<svg width="480" height="440" viewBox="0 0 480 440" fill="none" xmlns="http://www.w3.org/2000/svg">
<g clip-path="url(#clip0_87_372)">
<g clip-path="url(#clip1_87_372)">
<rect width="929.531" height="661" transform="translate(-402.266 -75)" fill="#FAFAFA"/>
<rect x="-18.1885" y="-33.6875" width="139.43" height="387.305" rx="15.4922" fill="white"/>
<rect x="-2.69629" y="-18.1953" width="108.445" height="108.445" rx="5.16406" fill="#11111A"/>
<rect x="-2.69629" y="105.742" width="108.445" height="108.445" rx="5.16406" fill="#CCCCCC"/>
<rect x="-2.69629" y="229.68" width="108.445" height="108.445" rx="5.16406" fill="#EAEAEA"/>
<rect x="-18.1885" y="384.602" width="139.43" height="206.562" rx="15.4922" fill="white"/>
<rect x="-2.69629" y="400.094" width="108.445" height="77.4609" rx="5.16406" fill="#CDA4ED"/>
<rect x="152.226" y="-33.6875" width="139.43" height="178.16" rx="15.4922" fill="white"/>
<rect x="167.718" y="-18.1953" width="108.445" height="108.445" rx="5.16406" fill="#B171E2"/>
<rect x="167.718" y="97.9961" width="30.9844" height="30.9844" rx="5.16406" fill="#B071E2" fill-opacity="0.12"/>
<rect x="206.448" y="97.9961" width="30.9844" height="30.9844" rx="5.16406" fill="#B071E2" fill-opacity="0.64"/>
<rect x="245.179" y="97.9961" width="30.9844" height="30.9844" rx="5.16406" fill="#803DB5"/>
<rect x="152.226" y="175.457" width="139.43" height="178.16" rx="15.4922" fill="white"/>
<rect x="167.718" y="190.949" width="108.445" height="108.445" rx="5.16406" fill="#F3B613"/>
<rect x="167.718" y="307.141" width="30.9844" height="30.9844" rx="5.16406" fill="#FEF6E3"/>
<rect x="206.448" y="307.141" width="30.9844" height="30.9844" rx="5.16406" fill="#F7D068"/>
<rect x="245.179" y="307.141" width="30.9844" height="30.9844" rx="5.16406" fill="#D69F0F"/>
<rect x="152.226" y="384.602" width="139.43" height="206.562" rx="15.4922" fill="white"/>
<g filter="url(#filter0_d_87_372)">
<rect x="167.718" y="400.094" width="108.445" height="77.4609" rx="5.16406" fill="white"/>
</g>
<rect x="322.64" y="-33.6875" width="160.086" height="254.33" rx="15.4922" fill="white"/>
<g clip-path="url(#clip2_87_372)">
<path d="M340.861 12.8047V-9.7294H343.589V0.305309H355.605V-9.7294H358.333V12.8047H355.605V2.72596H343.589V12.8047H340.861ZM370.53 13.1568C368.902 13.1568 367.497 12.7974 366.316 12.0785C365.142 11.3523 364.236 10.34 363.598 9.04167C362.967 7.73598 362.652 6.21757 362.652 4.48644C362.652 2.7553 362.967 1.22956 363.598 -0.0907983C364.236 -1.41849 365.124 -2.45277 366.261 -3.19364C367.405 -3.94184 368.74 -4.31594 370.266 -4.31594C371.146 -4.31594 372.015 -4.16923 372.874 -3.87582C373.732 -3.58241 374.513 -3.10561 375.217 -2.44543C375.922 -1.79259 376.483 -0.927025 376.901 0.151267C377.319 1.22956 377.528 2.55725 377.528 4.13434V5.23464H364.5V2.99003H374.887C374.887 2.03644 374.697 1.18555 374.315 0.437344C373.941 -0.310858 373.406 -0.901351 372.709 -1.33413C372.019 -1.76692 371.205 -1.98331 370.266 -1.98331C369.232 -1.98331 368.337 -1.72657 367.581 -1.2131C366.833 -0.706965 366.257 -0.0467866 365.854 0.767433C365.45 1.58165 365.249 2.45456 365.249 3.38614V4.88255C365.249 6.15889 365.469 7.24085 365.909 8.12842C366.356 9.00866 366.976 9.67984 367.768 10.142C368.561 10.5968 369.481 10.8242 370.53 10.8242C371.212 10.8242 371.828 10.7288 372.379 10.5381C372.936 10.34 373.417 10.0466 373.82 9.65784C374.223 9.26173 374.535 8.77026 374.755 8.18344L377.264 8.88763C377 9.73853 376.556 10.4867 375.933 11.1322C375.309 11.7704 374.539 12.2692 373.622 12.6286C372.705 12.9807 371.674 13.1568 370.53 13.1568ZM386.451 13.2008C385.38 13.2008 384.409 12.9991 383.536 12.5956C382.663 12.1849 381.97 11.5944 381.456 10.8242C380.943 10.0466 380.686 9.10769 380.686 8.00739C380.686 7.03913 380.877 6.25425 381.258 5.65275C381.639 5.04392 382.149 4.56713 382.787 4.22237C383.426 3.87761 384.13 3.62087 384.9 3.45216C385.678 3.27611 386.459 3.13674 387.244 3.03405C388.271 2.90201 389.103 2.80298 389.741 2.73697C390.387 2.66361 390.856 2.54258 391.15 2.37387C391.45 2.20516 391.601 1.91174 391.601 1.49363V1.40561C391.601 0.319979 391.304 -0.523582 390.71 -1.12508C390.123 -1.72657 389.231 -2.02732 388.036 -2.02732C386.796 -2.02732 385.824 -1.75592 385.12 -1.2131C384.416 -0.670288 383.921 -0.0907986 383.635 0.525368L381.17 -0.35487C381.61 -1.38181 382.197 -2.18136 382.93 -2.75352C383.671 -3.33301 384.478 -3.73645 385.351 -3.96385C386.231 -4.19858 387.097 -4.31594 387.948 -4.31594C388.491 -4.31594 389.114 -4.24992 389.818 -4.11789C390.53 -3.99319 391.216 -3.73278 391.876 -3.33668C392.543 -2.94057 393.097 -2.34274 393.537 -1.54319C393.977 -0.743642 394.197 0.327315 394.197 1.66968V12.8047H391.601V10.5161H391.469C391.293 10.8828 390.999 11.2753 390.589 11.6934C390.178 12.1115 389.631 12.4673 388.949 12.7607C388.267 13.0541 387.434 13.2008 386.451 13.2008ZM386.848 10.8682C387.874 10.8682 388.74 10.6664 389.444 10.263C390.156 9.85956 390.691 9.33875 391.051 8.70058C391.417 8.06241 391.601 7.39122 391.601 6.68703V4.31039C391.491 4.44243 391.249 4.56346 390.875 4.67349C390.508 4.77618 390.082 4.86787 389.598 4.94856C389.121 5.02192 388.656 5.08793 388.201 5.14662C387.753 5.19796 387.39 5.24198 387.112 5.27865C386.437 5.36668 385.806 5.50972 385.219 5.70777C384.64 5.89849 384.17 6.18823 383.811 6.577C383.459 6.95844 383.283 7.47925 383.283 8.13943C383.283 9.04167 383.616 9.72385 384.284 10.186C384.959 10.6408 385.813 10.8682 386.848 10.8682ZM405.319 13.1568C403.91 13.1568 402.667 12.801 401.589 12.0895C400.51 11.3706 399.667 10.3584 399.058 9.05267C398.449 7.73965 398.145 6.18823 398.145 4.39842C398.145 2.62327 398.449 1.08285 399.058 -0.222834C399.667 -1.52852 400.514 -2.53713 401.6 -3.24865C402.685 -3.96018 403.94 -4.31594 405.363 -4.31594C406.463 -4.31594 407.332 -4.13256 407.97 -3.76579C408.616 -3.40636 409.107 -2.99558 409.445 -2.53346C409.79 -2.07867 410.057 -1.70457 410.248 -1.41116H410.468V-9.7294H413.065V12.8047H410.556V10.208H410.248C410.057 10.5161 409.786 10.9048 409.434 11.3743C409.082 11.8364 408.579 12.2509 407.926 12.6176C407.274 12.9771 406.404 13.1568 405.319 13.1568ZM405.671 10.8242C406.712 10.8242 407.593 10.5527 408.312 10.0099C409.03 9.45978 409.577 8.70058 409.951 7.73232C410.325 6.75672 410.512 5.63075 410.512 4.3544C410.512 3.09273 410.329 1.98876 409.962 1.04251C409.595 0.0889169 409.052 -0.65195 408.334 -1.18009C407.615 -1.71557 406.727 -1.98331 405.671 -1.98331C404.571 -1.98331 403.654 -1.7009 402.92 -1.13608C402.194 -0.578597 401.647 0.180608 401.281 1.14153C400.921 2.09513 400.742 3.16608 400.742 4.3544C400.742 5.5574 400.925 6.65036 401.292 7.63329C401.666 8.60889 402.216 9.38643 402.942 9.96592C403.676 10.5381 404.585 10.8242 405.671 10.8242ZM420.778 -9.7294V12.8047H418.181V-9.7294H420.778ZM425.534 12.8047V-4.09588H428.131V12.8047H425.534ZM426.854 -6.91264C426.348 -6.91264 425.912 -7.08502 425.545 -7.42978C425.186 -7.77454 425.006 -8.18899 425.006 -8.67312C425.006 -9.15725 425.186 -9.57169 425.545 -9.91645C425.912 -10.2612 426.348 -10.4336 426.854 -10.4336C427.36 -10.4336 427.793 -10.2612 428.153 -9.91645C428.519 -9.57169 428.703 -9.15725 428.703 -8.67312C428.703 -8.18899 428.519 -7.77454 428.153 -7.42978C427.793 -7.08502 427.36 -6.91264 426.854 -6.91264ZM435.483 2.63794V12.8047H432.887V-4.09588H435.395V-1.45517H435.615C436.012 -2.3134 436.613 -3.00292 437.42 -3.52373C438.227 -4.05187 439.268 -4.31594 440.545 -4.31594C441.689 -4.31594 442.69 -4.08121 443.549 -3.61175C444.407 -3.14962 445.074 -2.44543 445.551 -1.49918C446.028 -0.560259 446.266 0.628063 446.266 2.06578V12.8047H443.67V2.24183C443.67 0.91414 443.325 -0.12014 442.635 -0.861007C441.946 -1.60921 441 -1.98331 439.797 -1.98331C438.968 -1.98331 438.227 -1.8036 437.574 -1.44416C436.928 -1.08473 436.419 -0.560259 436.045 0.129261C435.67 0.81878 435.483 1.65501 435.483 2.63794ZM458.097 13.1568C456.469 13.1568 455.064 12.7974 453.883 12.0785C452.709 11.3523 451.804 10.34 451.165 9.04167C450.535 7.73598 450.219 6.21757 450.219 4.48644C450.219 2.7553 450.535 1.22956 451.165 -0.0907983C451.804 -1.41849 452.691 -2.45277 453.828 -3.19364C454.972 -3.94184 456.307 -4.31594 457.833 -4.31594C458.713 -4.31594 459.583 -4.16923 460.441 -3.87582C461.299 -3.58241 462.08 -3.10561 462.785 -2.44543C463.489 -1.79259 464.05 -0.927025 464.468 0.151267C464.886 1.22956 465.095 2.55725 465.095 4.13434V5.23464H452.068V2.99003H462.454C462.454 2.03644 462.264 1.18555 461.882 0.437344C461.508 -0.310858 460.973 -0.901351 460.276 -1.33413C459.586 -1.76692 458.772 -1.98331 457.833 -1.98331C456.799 -1.98331 455.904 -1.72657 455.148 -1.2131C454.4 -0.706965 453.824 -0.0467866 453.421 0.767433C453.018 1.58165 452.816 2.45456 452.816 3.38614V4.88255C452.816 6.15889 453.036 7.24085 453.476 8.12842C453.923 9.00866 454.543 9.67984 455.336 10.142C456.128 10.5968 457.048 10.8242 458.097 10.8242C458.779 10.8242 459.396 10.7288 459.946 10.5381C460.503 10.34 460.984 10.0466 461.387 9.65784C461.791 9.26173 462.102 8.77026 462.322 8.18344L464.831 8.88763C464.567 9.73853 464.123 10.4867 463.5 11.1322C462.876 11.7704 462.106 12.2692 461.189 12.6286C460.272 12.9807 459.242 13.1568 458.097 13.1568Z" fill="#11111A"/>
<path d="M340.178 54.8633V37.9627H342.225V53.0478H350.081V54.8633H340.178ZM356.716 55.1604C355.913 55.1604 355.184 55.0091 354.529 54.7065C353.874 54.3984 353.354 53.9555 352.969 53.3779C352.584 52.7947 352.392 52.0905 352.392 51.2653C352.392 50.5391 352.535 49.9505 352.821 49.4993C353.107 49.0427 353.489 48.6851 353.968 48.4265C354.446 48.168 354.975 47.9754 355.552 47.8489C356.135 47.7168 356.721 47.6123 357.31 47.5353C358.08 47.4363 358.705 47.362 359.183 47.3125C359.667 47.2575 360.02 47.1667 360.24 47.0402C360.465 46.9136 360.578 46.6936 360.578 46.38V46.314C360.578 45.4997 360.355 44.8671 359.909 44.416C359.469 43.9648 358.801 43.7393 357.904 43.7393C356.974 43.7393 356.245 43.9428 355.717 44.3499C355.189 44.757 354.818 45.1917 354.603 45.6538L352.755 44.9936C353.085 44.2234 353.525 43.6237 354.075 43.1946C354.631 42.76 355.236 42.4574 355.891 42.2869C356.551 42.1108 357.2 42.0228 357.838 42.0228C358.245 42.0228 358.713 42.0723 359.241 42.1713C359.775 42.2649 360.289 42.4602 360.784 42.7573C361.285 43.0543 361.7 43.5027 362.03 44.1024C362.36 44.702 362.525 45.5053 362.525 46.512V54.8633H360.578V53.1468H360.479C360.347 53.4219 360.127 53.7162 359.819 54.0298C359.511 54.3434 359.101 54.6102 358.589 54.8303C358.077 55.0503 357.453 55.1604 356.716 55.1604ZM357.013 53.4109C357.783 53.4109 358.432 53.2596 358.96 52.957C359.494 52.6544 359.896 52.2638 360.165 51.7852C360.44 51.3066 360.578 50.8032 360.578 50.275V48.4926C360.495 48.5916 360.314 48.6824 360.033 48.7649C359.758 48.8419 359.439 48.9107 359.076 48.9712C358.718 49.0262 358.369 49.0757 358.028 49.1197C357.692 49.1582 357.42 49.1912 357.211 49.2188C356.705 49.2848 356.232 49.3921 355.792 49.5406C355.357 49.6836 355.005 49.9009 354.735 50.1925C354.471 50.4786 354.339 50.8692 354.339 51.3643C354.339 52.041 354.59 52.5527 355.09 52.8993C355.596 53.2403 356.237 53.4109 357.013 53.4109ZM366.08 54.8633V42.1879H367.962V44.1024H368.094C368.325 43.4752 368.743 42.9663 369.348 42.5757C369.953 42.1851 370.635 41.9898 371.395 41.9898C371.538 41.9898 371.716 41.9926 371.931 41.9981C372.145 42.0036 372.308 42.0118 372.418 42.0228V44.0033C372.352 43.9868 372.2 43.9621 371.964 43.9291C371.733 43.8906 371.488 43.8713 371.229 43.8713C370.613 43.8713 370.063 44.0006 369.579 44.2592C369.1 44.5122 368.721 44.8643 368.44 45.3154C368.165 45.7611 368.028 46.27 368.028 46.8421V54.8633H366.08ZM379.457 59.8806C378.516 59.8806 377.707 59.7596 377.031 59.5175C376.354 59.281 375.79 58.9674 375.339 58.5768C374.893 58.1917 374.539 57.7791 374.275 57.339L375.826 56.2497C376.002 56.4807 376.225 56.7448 376.494 57.0419C376.764 57.3445 377.133 57.6058 377.6 57.8258C378.073 58.0514 378.692 58.1642 379.457 58.1642C380.48 58.1642 381.325 57.9166 381.99 57.4215C382.656 56.9263 382.989 56.1506 382.989 55.0943V52.5196H382.824C382.681 52.7507 382.477 53.0368 382.213 53.3779C381.955 53.7135 381.581 54.0133 381.091 54.2774C380.607 54.5359 379.952 54.6652 379.127 54.6652C378.104 54.6652 377.185 54.4232 376.371 53.939C375.562 53.4549 374.921 52.7507 374.448 51.8265C373.98 50.9022 373.746 49.7799 373.746 48.4596C373.746 47.1612 373.975 46.0306 374.431 45.0679C374.888 44.0996 375.523 43.3514 376.338 42.8233C377.152 42.2896 378.093 42.0228 379.16 42.0228C379.985 42.0228 380.64 42.1603 381.124 42.4354C381.614 42.705 381.988 43.0131 382.246 43.3597C382.51 43.7008 382.714 43.9813 382.857 44.2014H383.055V42.1879H384.936V55.2264C384.936 56.3157 384.689 57.2014 384.194 57.8836C383.704 58.5713 383.044 59.0747 382.213 59.3938C381.388 59.7183 380.469 59.8806 379.457 59.8806ZM379.391 52.9158C380.172 52.9158 380.832 52.737 381.371 52.3794C381.911 52.0218 382.32 51.5074 382.601 50.8362C382.882 50.165 383.022 49.3618 383.022 48.4265C383.022 47.5133 382.884 46.7073 382.609 46.0086C382.334 45.3099 381.927 44.7626 381.388 44.3664C380.849 43.9703 380.183 43.7723 379.391 43.7723C378.566 43.7723 377.878 43.9813 377.328 44.3995C376.783 44.8176 376.373 45.3787 376.098 46.0829C375.829 46.7871 375.694 47.5683 375.694 48.4265C375.694 49.3068 375.831 50.0852 376.107 50.7619C376.387 51.4331 376.8 51.9612 377.344 52.3464C377.895 52.726 378.577 52.9158 379.391 52.9158ZM393.816 55.1274C392.594 55.1274 391.541 54.8578 390.655 54.3186C389.775 53.774 389.096 53.0148 388.617 52.041C388.144 51.0618 387.907 49.9229 387.907 48.6246C387.907 47.3262 388.144 46.1819 388.617 45.1917C389.096 44.1959 389.761 43.4202 390.614 42.8645C391.472 42.3034 392.473 42.0228 393.618 42.0228C394.278 42.0228 394.93 42.1328 395.574 42.3529C396.217 42.573 396.803 42.9306 397.331 43.4257C397.859 43.9153 398.28 44.5645 398.594 45.3732C398.907 46.1819 399.064 47.1777 399.064 48.3605V49.1857H389.294V47.5023H397.084C397.084 46.7871 396.941 46.1489 396.655 45.5878C396.374 45.0266 395.972 44.5838 395.45 44.2592C394.933 43.9346 394.322 43.7723 393.618 43.7723C392.842 43.7723 392.171 43.9648 391.604 44.3499C391.043 44.7295 390.611 45.2247 390.309 45.8353C390.006 46.446 389.855 47.1007 389.855 47.7994V48.9217C389.855 49.8789 390.02 50.6904 390.35 51.3561C390.685 52.0163 391.15 52.5196 391.745 52.8662C392.339 53.2073 393.029 53.3779 393.816 53.3779C394.327 53.3779 394.79 53.3064 395.202 53.1633C395.62 53.0148 395.981 52.7947 396.283 52.5031C396.586 52.2061 396.82 51.8375 396.985 51.3973L398.866 51.9255C398.668 52.5637 398.335 53.1248 397.868 53.6089C397.4 54.0876 396.822 54.4617 396.135 54.7312C395.447 54.9953 394.674 55.1274 393.816 55.1274Z" fill="#11111A"/>
<path d="M339.496 88.1758V76.9087H343.303C344.183 76.9087 344.906 77.0591 345.471 77.3599C346.036 77.6569 346.454 78.0659 346.725 78.5867C346.997 79.1075 347.132 79.6998 347.132 80.3637C347.132 81.0275 346.997 81.6162 346.725 82.1296C346.454 82.6431 346.037 83.0466 345.476 83.34C344.915 83.6297 344.198 83.7746 343.325 83.7746H340.244V82.5423H343.281C343.883 82.5423 344.367 82.4542 344.734 82.2782C345.104 82.1021 345.372 81.8527 345.537 81.53C345.706 81.2036 345.79 80.8148 345.79 80.3637C345.79 79.9125 345.706 79.5183 345.537 79.1808C345.368 78.8434 345.099 78.583 344.728 78.3996C344.358 78.2126 343.868 78.1191 343.259 78.1191H340.861V88.1758H339.496ZM344.8 83.1144L347.572 88.1758H345.988L343.259 83.1144H344.8ZM352.682 88.3518C351.868 88.3518 351.165 88.1721 350.575 87.8127C349.988 87.4496 349.535 86.9434 349.216 86.2943C348.901 85.6414 348.743 84.8822 348.743 84.0167C348.743 83.1511 348.901 82.3882 349.216 81.728C349.535 81.0642 349.979 80.5471 350.547 80.1766C351.119 79.8025 351.787 79.6155 352.55 79.6155C352.99 79.6155 353.425 79.6888 353.854 79.8355C354.283 79.9822 354.673 80.2206 355.026 80.5507C355.378 80.8771 355.658 81.3099 355.867 81.8491C356.076 82.3882 356.181 83.0521 356.181 83.8406V84.3908H349.667V83.2685H354.86C354.86 82.7917 354.765 82.3662 354.574 81.9921C354.387 81.618 354.12 81.3228 353.771 81.1064C353.426 80.89 353.019 80.7818 352.55 80.7818C352.033 80.7818 351.585 80.9102 351.207 81.1669C350.833 81.42 350.545 81.75 350.344 82.1572C350.142 82.5643 350.041 83.0007 350.041 83.4665V84.2147C350.041 84.8529 350.151 85.3939 350.371 85.8376C350.595 86.2778 350.905 86.6134 351.301 86.8444C351.697 87.0718 352.157 87.1855 352.682 87.1855C353.023 87.1855 353.331 87.1378 353.606 87.0425C353.885 86.9434 354.125 86.7967 354.327 86.6024C354.529 86.4043 354.684 86.1586 354.794 85.8652L356.049 86.2173C355.917 86.6427 355.695 87.0168 355.383 87.3396C355.071 87.6586 354.686 87.908 354.228 88.0878C353.769 88.2638 353.254 88.3518 352.682 88.3518ZM361.567 91.5207C360.94 91.5207 360.4 91.44 359.949 91.2786C359.498 91.1209 359.122 90.9119 358.822 90.6515C358.524 90.3947 358.288 90.1196 358.112 89.8262L359.146 89.1C359.264 89.2541 359.412 89.4301 359.592 89.6282C359.771 89.8299 360.017 90.0041 360.329 90.1508C360.644 90.3012 361.057 90.3764 361.567 90.3764C362.249 90.3764 362.812 90.2113 363.256 89.8812C363.7 89.5512 363.921 89.034 363.921 88.3298V86.6134H363.811C363.716 86.7674 363.58 86.9581 363.404 87.1855C363.232 87.4092 362.983 87.6091 362.656 87.7852C362.333 87.9576 361.897 88.0437 361.347 88.0437C360.665 88.0437 360.052 87.8824 359.509 87.5596C358.97 87.2369 358.543 86.7674 358.227 86.1512C357.916 85.5351 357.76 84.7869 357.76 83.9066C357.76 83.0411 357.912 82.2874 358.216 81.6455C358.521 81 358.944 80.5012 359.487 80.1491C360.03 79.7933 360.657 79.6155 361.369 79.6155C361.919 79.6155 362.355 79.7072 362.678 79.8905C363.005 80.0703 363.254 80.2756 363.426 80.5067C363.602 80.7341 363.738 80.9212 363.833 81.0679H363.965V79.7255H365.22V88.4178C365.22 89.144 365.055 89.7345 364.725 90.1893C364.398 90.6478 363.958 90.9834 363.404 91.1961C362.854 91.4125 362.242 91.5207 361.567 91.5207ZM361.523 86.8774C362.044 86.8774 362.484 86.7582 362.843 86.5198C363.203 86.2814 363.476 85.9385 363.663 85.4911C363.85 85.0436 363.943 84.5081 363.943 83.8846C363.943 83.2758 363.852 82.7385 363.668 82.2727C363.485 81.8069 363.214 81.442 362.854 81.1779C362.495 80.9138 362.051 80.7818 361.523 80.7818C360.973 80.7818 360.514 80.9212 360.147 81.1999C359.784 81.4786 359.511 81.8527 359.328 82.3222C359.148 82.7917 359.058 83.3125 359.058 83.8846C359.058 84.4714 359.15 84.9904 359.333 85.4415C359.52 85.889 359.795 86.2411 360.158 86.4978C360.525 86.7509 360.98 86.8774 361.523 86.8774ZM372.922 84.7208V79.7255H374.22V88.1758H372.922V86.7454H372.834C372.636 87.1745 372.328 87.5394 371.91 87.8402C371.491 88.1373 370.963 88.2858 370.325 88.2858C369.797 88.2858 369.328 88.1703 368.917 87.9392C368.506 87.7045 368.183 87.3524 367.949 86.8829C367.714 86.4098 367.596 85.8138 367.596 85.0949V79.7255H368.895V85.0069C368.895 85.6231 369.067 86.1146 369.412 86.4813C369.76 86.8481 370.204 87.0315 370.743 87.0315C371.066 87.0315 371.394 86.9489 371.728 86.7839C372.065 86.6189 372.348 86.3658 372.575 86.0247C372.806 85.6836 372.922 85.249 372.922 84.7208ZM377.897 76.9087V88.1758H376.598V76.9087H377.897ZM382.761 88.3738C382.226 88.3738 381.74 88.273 381.303 88.0713C380.867 87.8659 380.52 87.5706 380.264 87.1855C380.007 86.7967 379.878 86.3273 379.878 85.7771C379.878 85.293 379.974 84.9006 380.165 84.5998C380.355 84.2954 380.61 84.057 380.929 83.8846C381.248 83.7122 381.6 83.5839 381.986 83.4995C382.374 83.4115 382.765 83.3418 383.157 83.2905C383.671 83.2244 384.087 83.1749 384.406 83.1419C384.729 83.1052 384.964 83.0447 385.11 82.9604C385.261 82.876 385.336 82.7293 385.336 82.5203V82.4762C385.336 81.9334 385.187 81.5116 384.89 81.2109C384.597 80.9102 384.151 80.7598 383.553 80.7598C382.934 80.7598 382.448 80.8955 382.096 81.1669C381.743 81.4383 381.496 81.728 381.353 82.0361L380.121 81.596C380.341 81.0825 380.634 80.6828 381.001 80.3967C381.371 80.1069 381.775 79.9052 382.211 79.7915C382.651 79.6741 383.084 79.6155 383.509 79.6155C383.781 79.6155 384.093 79.6485 384.445 79.7145C384.8 79.7768 385.143 79.907 385.474 80.1051C385.807 80.3032 386.084 80.6021 386.304 81.0018C386.524 81.4016 386.634 81.9371 386.634 82.6083V88.1758H385.336V87.0315H385.27C385.182 87.2149 385.035 87.4111 384.83 87.6201C384.624 87.8292 384.351 88.0071 384.01 88.1538C383.669 88.3005 383.253 88.3738 382.761 88.3738ZM382.959 87.2075C383.473 87.2075 383.906 87.1067 384.258 86.9049C384.613 86.7032 384.881 86.4428 385.061 86.1237C385.244 85.8046 385.336 85.469 385.336 85.117V83.9286C385.281 83.9947 385.16 84.0552 384.973 84.1102C384.789 84.1615 384.577 84.2074 384.335 84.2477C384.096 84.2844 383.863 84.3174 383.636 84.3467C383.412 84.3724 383.231 84.3944 383.091 84.4128C382.754 84.4568 382.439 84.5283 382.145 84.6273C381.855 84.7227 381.621 84.8676 381.441 85.0619C381.265 85.2527 381.177 85.5131 381.177 85.8432C381.177 86.2943 381.344 86.6354 381.677 86.8664C382.015 87.0938 382.442 87.2075 382.959 87.2075ZM389.004 88.1758V79.7255H390.258V81.0018H390.346C390.5 80.5837 390.779 80.2445 391.183 79.9841C391.586 79.7237 392.041 79.5935 392.547 79.5935C392.642 79.5935 392.762 79.5953 392.905 79.599C393.048 79.6026 393.156 79.6081 393.229 79.6155V80.9358C393.185 80.9248 393.084 80.9083 392.927 80.8863C392.773 80.8606 392.609 80.8478 392.437 80.8478C392.026 80.8478 391.659 80.934 391.337 81.1064C391.018 81.2751 390.765 81.5098 390.578 81.8106C390.394 82.1076 390.302 82.4469 390.302 82.8283V88.1758H389.004Z" fill="#11111A"/>
<path d="M344.404 108.118C344.349 107.654 344.125 107.293 343.734 107.036C343.343 106.78 342.863 106.651 342.295 106.651C341.879 106.651 341.515 106.718 341.203 106.853C340.895 106.987 340.653 107.172 340.479 107.408C340.308 107.643 340.222 107.91 340.222 108.21C340.222 108.461 340.282 108.676 340.401 108.856C340.523 109.034 340.679 109.182 340.869 109.301C341.058 109.417 341.257 109.513 341.465 109.59C341.673 109.663 341.864 109.723 342.038 109.769L342.991 110.025C343.236 110.09 343.508 110.178 343.808 110.291C344.11 110.404 344.399 110.559 344.674 110.754C344.952 110.947 345.181 111.195 345.362 111.497C345.542 111.8 345.632 112.171 345.632 112.611C345.632 113.118 345.499 113.577 345.233 113.987C344.97 114.396 344.585 114.722 344.078 114.963C343.574 115.204 342.961 115.325 342.24 115.325C341.567 115.325 340.985 115.217 340.493 115C340.004 114.783 339.619 114.48 339.338 114.092C339.059 113.704 338.902 113.253 338.865 112.74H340.039C340.07 113.094 340.189 113.387 340.397 113.62C340.608 113.849 340.873 114.02 341.194 114.133C341.518 114.243 341.867 114.298 342.24 114.298C342.674 114.298 343.063 114.228 343.409 114.087C343.754 113.944 344.028 113.745 344.229 113.491C344.431 113.235 344.532 112.935 344.532 112.593C344.532 112.281 344.445 112.027 344.271 111.832C344.096 111.636 343.867 111.477 343.583 111.355C343.299 111.233 342.991 111.126 342.661 111.034L341.506 110.704C340.773 110.493 340.192 110.192 339.764 109.801C339.336 109.41 339.122 108.898 339.122 108.265C339.122 107.739 339.264 107.281 339.548 106.89C339.836 106.495 340.221 106.19 340.704 105.973C341.19 105.753 341.732 105.643 342.331 105.643C342.936 105.643 343.474 105.751 343.945 105.968C344.416 106.182 344.789 106.475 345.064 106.848C345.342 107.221 345.489 107.645 345.504 108.118H344.404ZM347.355 115.16V108.118H348.4V109.219H348.492C348.639 108.843 348.875 108.551 349.202 108.343C349.529 108.132 349.922 108.027 350.381 108.027C350.845 108.027 351.232 108.132 351.541 108.343C351.852 108.551 352.095 108.843 352.27 109.219H352.343C352.523 108.855 352.794 108.566 353.154 108.352C353.515 108.135 353.947 108.027 354.452 108.027C355.081 108.027 355.596 108.224 355.997 108.618C356.397 109.009 356.597 109.619 356.597 110.447V115.16H355.515V110.447C355.515 109.928 355.373 109.556 355.089 109.333C354.805 109.11 354.47 108.998 354.085 108.998C353.59 108.998 353.206 109.148 352.934 109.448C352.662 109.744 352.526 110.12 352.526 110.576V115.16H351.426V110.337C351.426 109.937 351.296 109.614 351.036 109.37C350.776 109.122 350.442 108.998 350.032 108.998C349.751 108.998 349.488 109.073 349.244 109.223C349.002 109.373 348.807 109.581 348.657 109.847C348.51 110.109 348.437 110.414 348.437 110.759V115.16H347.355ZM360.648 115.325C360.202 115.325 359.797 115.241 359.433 115.073C359.069 114.902 358.78 114.656 358.566 114.335C358.352 114.011 358.246 113.62 358.246 113.161C358.246 112.758 358.325 112.431 358.484 112.18C358.643 111.927 358.855 111.728 359.121 111.584C359.387 111.441 359.68 111.334 360.001 111.263C360.325 111.19 360.651 111.132 360.978 111.089C361.406 111.034 361.753 110.993 362.019 110.965C362.288 110.935 362.483 110.884 362.605 110.814C362.731 110.744 362.793 110.621 362.793 110.447V110.411C362.793 109.958 362.67 109.607 362.422 109.356C362.178 109.105 361.806 108.98 361.308 108.98C360.791 108.98 360.386 109.093 360.093 109.319C359.8 109.546 359.593 109.787 359.474 110.044L358.447 109.677C358.631 109.249 358.875 108.916 359.181 108.678C359.489 108.436 359.826 108.268 360.189 108.173C360.556 108.075 360.917 108.027 361.271 108.027C361.497 108.027 361.757 108.054 362.051 108.109C362.347 108.161 362.633 108.27 362.908 108.435C363.186 108.6 363.417 108.849 363.6 109.182C363.784 109.515 363.875 109.961 363.875 110.521V115.16H362.793V114.207H362.738C362.665 114.359 362.543 114.523 362.372 114.697C362.2 114.871 361.973 115.02 361.689 115.142C361.404 115.264 361.057 115.325 360.648 115.325ZM360.813 114.353C361.241 114.353 361.601 114.269 361.895 114.101C362.191 113.933 362.414 113.716 362.564 113.45C362.717 113.184 362.793 112.905 362.793 112.611V111.621C362.748 111.676 362.647 111.726 362.491 111.772C362.338 111.815 362.161 111.853 361.959 111.887C361.76 111.917 361.566 111.945 361.377 111.969C361.19 111.991 361.039 112.009 360.923 112.024C360.642 112.061 360.379 112.121 360.134 112.203C359.893 112.283 359.697 112.403 359.548 112.565C359.401 112.724 359.327 112.941 359.327 113.216C359.327 113.592 359.467 113.876 359.745 114.069C360.026 114.259 360.382 114.353 360.813 114.353ZM366.932 105.771V115.16H365.85V105.771H366.932ZM369.996 105.771V115.16H368.914V105.771H369.996Z" fill="#11111A"/>
</g>
<g clip-path="url(#clip3_87_372)">
<path d="M339.155 139.98V131.53H340.178V139.073H344.106V139.98H339.155ZM347.424 140.129C347.022 140.129 346.658 140.053 346.33 139.902C346.003 139.748 345.743 139.527 345.551 139.238C345.358 138.946 345.262 138.594 345.262 138.181C345.262 137.818 345.333 137.524 345.476 137.298C345.619 137.07 345.811 136.891 346.05 136.762C346.289 136.633 346.553 136.537 346.842 136.473C347.134 136.407 347.427 136.355 347.721 136.316C348.106 136.267 348.418 136.23 348.658 136.205C348.9 136.178 349.076 136.132 349.186 136.069C349.298 136.006 349.355 135.896 349.355 135.739V135.706C349.355 135.299 349.243 134.982 349.021 134.757C348.801 134.531 348.466 134.418 348.018 134.418C347.553 134.418 347.189 134.52 346.925 134.724C346.661 134.927 346.475 135.145 346.368 135.376L345.443 135.046C345.608 134.661 345.828 134.361 346.103 134.146C346.381 133.929 346.684 133.778 347.011 133.692C347.341 133.604 347.666 133.56 347.985 133.56C348.189 133.56 348.422 133.585 348.686 133.635C348.953 133.681 349.21 133.779 349.458 133.927C349.708 134.076 349.916 134.3 350.081 134.6C350.246 134.9 350.329 135.301 350.329 135.805V139.98H349.355V139.122H349.305C349.239 139.26 349.129 139.407 348.975 139.564C348.821 139.721 348.616 139.854 348.36 139.964C348.105 140.074 347.792 140.129 347.424 140.129ZM347.572 139.254C347.957 139.254 348.282 139.179 348.546 139.027C348.813 138.876 349.014 138.681 349.149 138.441C349.286 138.202 349.355 137.95 349.355 137.686V136.795C349.314 136.845 349.223 136.89 349.083 136.931C348.945 136.97 348.785 137.004 348.604 137.034C348.425 137.062 348.25 137.087 348.08 137.109C347.912 137.128 347.776 137.144 347.671 137.158C347.418 137.191 347.182 137.245 346.962 137.319C346.744 137.391 346.568 137.499 346.434 137.645C346.302 137.788 346.236 137.983 346.236 138.231C346.236 138.569 346.361 138.825 346.611 138.998C346.864 139.169 347.185 139.254 347.572 139.254ZM352.106 139.98V133.643H353.047V134.6H353.113C353.228 134.286 353.437 134.032 353.74 133.837C354.042 133.641 354.384 133.544 354.763 133.544C354.835 133.544 354.924 133.545 355.031 133.548C355.139 133.551 355.22 133.555 355.275 133.56V134.551C355.242 134.542 355.166 134.53 355.048 134.513C354.932 134.494 354.81 134.484 354.681 134.484C354.373 134.484 354.097 134.549 353.855 134.678C353.616 134.805 353.426 134.981 353.286 135.207C353.148 135.429 353.08 135.684 353.08 135.97V139.98H352.106ZM358.794 142.489C358.324 142.489 357.92 142.429 357.581 142.308C357.243 142.189 356.961 142.033 356.735 141.837C356.513 141.645 356.335 141.438 356.203 141.218L356.979 140.674C357.067 140.789 357.178 140.921 357.313 141.07C357.448 141.221 357.632 141.352 357.866 141.462C358.103 141.575 358.412 141.631 358.794 141.631C359.306 141.631 359.728 141.507 360.061 141.26C360.394 141.012 360.56 140.624 360.56 140.096V138.809H360.478C360.406 138.924 360.305 139.067 360.173 139.238C360.043 139.406 359.856 139.555 359.611 139.688C359.369 139.817 359.042 139.881 358.629 139.881C358.118 139.881 357.658 139.76 357.251 139.518C356.847 139.276 356.526 138.924 356.29 138.462C356.056 138 355.939 137.439 355.939 136.779C355.939 136.129 356.053 135.564 356.282 135.083C356.51 134.599 356.828 134.225 357.235 133.96C357.642 133.694 358.112 133.56 358.646 133.56C359.058 133.56 359.386 133.629 359.628 133.767C359.873 133.901 360.06 134.055 360.189 134.229C360.321 134.399 360.423 134.539 360.494 134.65H360.593V133.643H361.534V140.162C361.534 140.707 361.41 141.15 361.163 141.491C360.918 141.834 360.588 142.086 360.173 142.246C359.76 142.408 359.301 142.489 358.794 142.489ZM358.761 139.007C359.152 139.007 359.482 138.917 359.752 138.739C360.021 138.56 360.226 138.303 360.366 137.967C360.507 137.631 360.577 137.23 360.577 136.762C360.577 136.305 360.508 135.902 360.371 135.553C360.233 135.204 360.029 134.93 359.76 134.732C359.49 134.534 359.157 134.435 358.761 134.435C358.349 134.435 358.005 134.539 357.73 134.749C357.458 134.958 357.253 135.238 357.115 135.59C356.98 135.942 356.913 136.333 356.913 136.762C356.913 137.202 356.982 137.591 357.119 137.93C357.259 138.265 357.466 138.529 357.738 138.722C358.013 138.912 358.354 139.007 358.761 139.007ZM365.974 140.113C365.363 140.113 364.836 139.978 364.394 139.708C363.953 139.436 363.614 139.056 363.374 138.569C363.138 138.08 363.02 137.51 363.02 136.861C363.02 136.212 363.138 135.64 363.374 135.145C363.614 134.647 363.947 134.259 364.373 133.981C364.802 133.701 365.303 133.56 365.875 133.56C366.205 133.56 366.531 133.615 366.853 133.725C367.175 133.835 367.467 134.014 367.732 134.262C367.996 134.506 368.206 134.831 368.363 135.235C368.52 135.64 368.598 136.138 368.598 136.729V137.142H363.713V136.3H367.608C367.608 135.942 367.536 135.623 367.393 135.343C367.253 135.062 367.052 134.841 366.791 134.678C366.532 134.516 366.227 134.435 365.875 134.435C365.487 134.435 365.151 134.531 364.868 134.724C364.587 134.914 364.372 135.161 364.22 135.466C364.069 135.772 363.993 136.099 363.993 136.449V137.01C363.993 137.488 364.076 137.894 364.241 138.227C364.409 138.557 364.641 138.809 364.938 138.982C365.235 139.152 365.58 139.238 365.974 139.238C366.23 139.238 366.461 139.202 366.667 139.13C366.876 139.056 367.056 138.946 367.208 138.8C367.359 138.652 367.476 138.468 367.558 138.248L368.499 138.512C368.4 138.831 368.234 139.111 368 139.353C367.766 139.593 367.477 139.78 367.133 139.914C366.789 140.046 366.403 140.113 365.974 140.113Z" fill="#11111A"/>
<path d="M338.928 163.51V156.937H341.148C341.662 156.937 342.083 157.025 342.413 157.2C342.742 157.374 342.986 157.612 343.145 157.916C343.303 158.22 343.382 158.565 343.382 158.953C343.382 159.34 343.303 159.683 343.145 159.983C342.986 160.282 342.743 160.518 342.416 160.689C342.089 160.858 341.671 160.942 341.161 160.942H339.364V160.224H341.136C341.487 160.224 341.769 160.172 341.983 160.07C342.199 159.967 342.355 159.821 342.451 159.633C342.55 159.443 342.599 159.216 342.599 158.953C342.599 158.69 342.55 158.46 342.451 158.263C342.353 158.066 342.196 157.914 341.98 157.807C341.764 157.698 341.478 157.643 341.123 157.643H339.724V163.51H338.928ZM342.021 160.557L343.639 163.51H342.715L341.123 160.557H342.021ZM346.619 163.612C346.144 163.612 345.735 163.508 345.39 163.298C345.048 163.086 344.784 162.791 344.598 162.412C344.414 162.031 344.322 161.589 344.322 161.084C344.322 160.579 344.414 160.134 344.598 159.749C344.784 159.361 345.043 159.06 345.374 158.844C345.708 158.625 346.097 158.516 346.542 158.516C346.799 158.516 347.053 158.559 347.303 158.645C347.553 158.73 347.781 158.869 347.986 159.062C348.192 159.252 348.356 159.505 348.477 159.819C348.599 160.134 348.66 160.521 348.66 160.981V161.302H344.861V160.647H347.89C347.89 160.369 347.835 160.121 347.723 159.903C347.614 159.684 347.458 159.512 347.255 159.386C347.054 159.26 346.816 159.197 346.542 159.197C346.241 159.197 345.98 159.271 345.759 159.421C345.541 159.569 345.373 159.761 345.255 159.999C345.138 160.236 345.079 160.491 345.079 160.763V161.199C345.079 161.571 345.143 161.887 345.272 162.146C345.402 162.403 345.583 162.598 345.814 162.733C346.045 162.866 346.313 162.932 346.619 162.932C346.818 162.932 346.998 162.904 347.159 162.849C347.321 162.791 347.461 162.705 347.579 162.592C347.697 162.476 347.788 162.333 347.852 162.162L348.583 162.367C348.506 162.615 348.377 162.834 348.195 163.022C348.013 163.208 347.789 163.354 347.521 163.458C347.254 163.561 346.953 163.612 346.619 163.612ZM351.802 165.461C351.436 165.461 351.122 165.414 350.859 165.32C350.596 165.228 350.376 165.106 350.201 164.954C350.028 164.804 349.89 164.644 349.787 164.473L350.39 164.049C350.459 164.139 350.545 164.241 350.65 164.357C350.755 164.475 350.898 164.576 351.08 164.662C351.264 164.75 351.505 164.793 351.802 164.793C352.2 164.793 352.529 164.697 352.787 164.505C353.046 164.312 353.176 164.01 353.176 163.6V162.598H353.112C353.056 162.688 352.977 162.799 352.874 162.932C352.774 163.063 352.628 163.179 352.438 163.282C352.249 163.382 351.995 163.433 351.674 163.433C351.276 163.433 350.919 163.339 350.602 163.15C350.287 162.962 350.038 162.688 349.854 162.329C349.672 161.969 349.581 161.533 349.581 161.019C349.581 160.515 349.67 160.075 349.848 159.7C350.025 159.324 350.273 159.033 350.589 158.828C350.906 158.62 351.272 158.516 351.687 158.516C352.008 158.516 352.262 158.57 352.45 158.677C352.641 158.782 352.786 158.901 352.887 159.036C352.99 159.169 353.069 159.278 353.124 159.363H353.201V158.58H353.933V163.651C353.933 164.075 353.837 164.419 353.644 164.684C353.454 164.952 353.197 165.148 352.874 165.272C352.553 165.398 352.196 165.461 351.802 165.461ZM351.777 162.752C352.08 162.752 352.337 162.683 352.547 162.544C352.756 162.405 352.916 162.205 353.025 161.944C353.134 161.683 353.189 161.37 353.189 161.007C353.189 160.651 353.135 160.338 353.028 160.066C352.921 159.795 352.763 159.582 352.553 159.428C352.344 159.274 352.085 159.197 351.777 159.197C351.456 159.197 351.188 159.278 350.974 159.44C350.762 159.603 350.603 159.821 350.496 160.095C350.391 160.369 350.339 160.673 350.339 161.007C350.339 161.349 350.392 161.652 350.499 161.915C350.608 162.176 350.769 162.381 350.981 162.531C351.195 162.679 351.46 162.752 351.777 162.752ZM358.426 161.494V158.58H359.183V163.51H358.426V162.675H358.375C358.259 162.926 358.079 163.139 357.836 163.314C357.592 163.487 357.284 163.574 356.911 163.574C356.603 163.574 356.329 163.507 356.09 163.372C355.85 163.235 355.662 163.029 355.525 162.756C355.388 162.48 355.32 162.132 355.32 161.713V158.58H356.077V161.661C356.077 162.021 356.177 162.307 356.379 162.521C356.582 162.735 356.841 162.842 357.155 162.842C357.343 162.842 357.535 162.794 357.73 162.698C357.926 162.602 358.091 162.454 358.224 162.255C358.359 162.056 358.426 161.802 358.426 161.494ZM361.328 156.937V163.51H360.571V156.937H361.328ZM364.166 163.625C363.853 163.625 363.57 163.566 363.315 163.449C363.061 163.329 362.858 163.157 362.709 162.932C362.559 162.705 362.484 162.431 362.484 162.111C362.484 161.828 362.54 161.599 362.651 161.424C362.762 161.246 362.911 161.107 363.097 161.007C363.283 160.906 363.489 160.831 363.713 160.782C363.94 160.731 364.168 160.69 364.397 160.66C364.696 160.621 364.939 160.593 365.125 160.573C365.313 160.552 365.45 160.517 365.536 160.467C365.624 160.418 365.668 160.333 365.668 160.211V160.185C365.668 159.868 365.581 159.622 365.408 159.447C365.236 159.271 364.977 159.184 364.628 159.184C364.266 159.184 363.983 159.263 363.777 159.421C363.572 159.58 363.428 159.749 363.344 159.928L362.625 159.672C362.754 159.372 362.925 159.139 363.139 158.972C363.355 158.803 363.59 158.685 363.845 158.619C364.101 158.55 364.354 158.516 364.602 158.516C364.76 158.516 364.942 158.536 365.148 158.574C365.355 158.61 365.555 158.686 365.748 158.802C365.943 158.917 366.104 159.092 366.232 159.325C366.361 159.558 366.425 159.871 366.425 160.262V163.51H365.668V162.842H365.629C365.578 162.949 365.492 163.064 365.372 163.186C365.253 163.308 365.093 163.411 364.894 163.497C364.695 163.583 364.452 163.625 364.166 163.625ZM364.281 162.945C364.581 162.945 364.833 162.886 365.039 162.768C365.246 162.651 365.402 162.499 365.507 162.313C365.614 162.127 365.668 161.931 365.668 161.725V161.032C365.635 161.071 365.565 161.106 365.456 161.138C365.349 161.168 365.225 161.195 365.084 161.218C364.944 161.24 364.809 161.259 364.676 161.276C364.545 161.291 364.44 161.304 364.358 161.315C364.161 161.34 363.977 161.382 363.806 161.44C363.637 161.495 363.5 161.58 363.395 161.693C363.293 161.805 363.241 161.957 363.241 162.149C363.241 162.412 363.339 162.611 363.533 162.746C363.73 162.879 363.98 162.945 364.281 162.945ZM367.807 163.51V158.58H368.539V159.325H368.59C368.68 159.081 368.843 158.883 369.078 158.731C369.314 158.579 369.579 158.503 369.874 158.503C369.93 158.503 369.999 158.504 370.083 158.507C370.166 158.509 370.229 158.512 370.272 158.516V159.286C370.246 159.28 370.187 159.27 370.095 159.258C370.006 159.243 369.91 159.235 369.81 159.235C369.57 159.235 369.356 159.285 369.168 159.386C368.982 159.484 368.834 159.621 368.725 159.797C368.618 159.97 368.565 160.168 368.565 160.39V163.51H367.807Z" fill="#11111A"/>
<path d="M341.895 180.523C341.862 180.244 341.728 180.028 341.493 179.874C341.259 179.72 340.971 179.643 340.63 179.643C340.38 179.643 340.162 179.683 339.975 179.764C339.79 179.844 339.645 179.955 339.54 180.097C339.438 180.238 339.386 180.398 339.386 180.578C339.386 180.728 339.422 180.858 339.493 180.966C339.567 181.072 339.66 181.161 339.774 181.233C339.888 181.302 340.007 181.36 340.132 181.406C340.256 181.45 340.371 181.486 340.475 181.513L341.048 181.667C341.194 181.706 341.358 181.759 341.537 181.827C341.719 181.895 341.892 181.987 342.057 182.105C342.224 182.22 342.362 182.369 342.47 182.55C342.578 182.732 342.632 182.955 342.632 183.219C342.632 183.523 342.552 183.798 342.393 184.044C342.235 184.29 342.004 184.485 341.7 184.63C341.397 184.775 341.029 184.847 340.597 184.847C340.193 184.847 339.844 184.782 339.548 184.652C339.255 184.522 339.024 184.34 338.855 184.107C338.688 183.874 338.594 183.604 338.572 183.296H339.276C339.294 183.508 339.366 183.684 339.491 183.824C339.617 183.961 339.777 184.064 339.969 184.132C340.164 184.198 340.373 184.231 340.597 184.231C340.857 184.231 341.091 184.189 341.298 184.104C341.505 184.018 341.669 183.899 341.79 183.747C341.911 183.593 341.972 183.413 341.972 183.208C341.972 183.021 341.92 182.868 341.815 182.751C341.711 182.634 341.573 182.538 341.402 182.465C341.232 182.392 341.048 182.327 340.85 182.272L340.156 182.074C339.716 181.948 339.368 181.767 339.111 181.532C338.854 181.298 338.726 180.991 338.726 180.611C338.726 180.296 338.811 180.02 338.982 179.786C339.154 179.549 339.385 179.366 339.675 179.236C339.967 179.104 340.292 179.038 340.652 179.038C341.015 179.038 341.337 179.103 341.62 179.233C341.902 179.361 342.126 179.537 342.291 179.761C342.458 179.985 342.546 180.239 342.555 180.523H341.895ZM343.666 184.748V180.523H344.293V181.183H344.348C344.436 180.958 344.578 180.782 344.774 180.658C344.97 180.531 345.206 180.468 345.481 180.468C345.76 180.468 345.992 180.531 346.177 180.658C346.364 180.782 346.51 180.958 346.614 181.183H346.658C346.767 180.965 346.929 180.792 347.145 180.663C347.362 180.533 347.621 180.468 347.924 180.468C348.302 180.468 348.611 180.586 348.851 180.823C349.091 181.057 349.211 181.423 349.211 181.92V184.748H348.562V181.92C348.562 181.609 348.477 181.386 348.306 181.252C348.136 181.118 347.935 181.051 347.704 181.051C347.407 181.051 347.177 181.141 347.013 181.321C346.85 181.499 346.768 181.724 346.768 181.997V184.748H346.108V181.854C346.108 181.614 346.03 181.421 345.874 181.274C345.719 181.125 345.518 181.051 345.272 181.051C345.103 181.051 344.946 181.096 344.799 181.186C344.654 181.276 344.537 181.4 344.447 181.56C344.359 181.718 344.315 181.9 344.315 182.107V184.748H343.666ZM351.641 184.847C351.374 184.847 351.131 184.797 350.912 184.696C350.694 184.593 350.521 184.445 350.393 184.253C350.264 184.059 350.2 183.824 350.2 183.549C350.2 183.307 350.248 183.11 350.343 182.96C350.438 182.808 350.566 182.689 350.725 182.602C350.885 182.516 351.061 182.452 351.254 182.41C351.448 182.366 351.643 182.331 351.839 182.305C352.096 182.272 352.304 182.248 352.464 182.231C352.625 182.213 352.743 182.183 352.816 182.14C352.891 182.098 352.929 182.025 352.929 181.92V181.898C352.929 181.627 352.855 181.416 352.706 181.266C352.559 181.115 352.336 181.04 352.038 181.04C351.728 181.04 351.485 181.108 351.309 181.244C351.133 181.379 351.009 181.524 350.937 181.678L350.321 181.458C350.431 181.201 350.578 181.002 350.761 180.858C350.946 180.714 351.148 180.613 351.366 180.556C351.586 180.497 351.803 180.468 352.016 180.468C352.151 180.468 352.307 180.484 352.483 180.517C352.661 180.549 352.832 180.614 352.998 180.713C353.164 180.812 353.303 180.961 353.413 181.161C353.523 181.361 353.578 181.629 353.578 181.964V184.748H352.929V184.176H352.896C352.852 184.268 352.778 184.366 352.676 184.47C352.573 184.575 352.436 184.664 352.266 184.737C352.095 184.81 351.887 184.847 351.641 184.847ZM351.74 184.264C351.997 184.264 352.214 184.213 352.39 184.113C352.568 184.012 352.701 183.882 352.791 183.722C352.883 183.562 352.929 183.395 352.929 183.219V182.624C352.901 182.657 352.841 182.688 352.747 182.715C352.656 182.741 352.549 182.764 352.428 182.784C352.309 182.802 352.192 182.819 352.079 182.834C351.967 182.846 351.876 182.857 351.806 182.867C351.638 182.889 351.48 182.924 351.333 182.974C351.188 183.021 351.071 183.094 350.981 183.191C350.893 183.286 350.849 183.417 350.849 183.582C350.849 183.807 350.933 183.978 351.1 184.093C351.268 184.207 351.482 184.264 351.74 184.264ZM355.412 179.115V184.748H354.763V179.115H355.412ZM357.25 179.115V184.748H356.601V179.115H357.25Z" fill="#11111A"/>
<path d="M338.7 198.71H339.379L340.974 202.607H341.029L342.625 198.71H343.303V203.404H342.771V199.837H342.726L341.259 203.404H340.745L339.278 199.837H339.232V203.404H338.7V198.71ZM344.37 203.404V199.883H344.911V203.404H344.37ZM344.645 199.297C344.539 199.297 344.448 199.261 344.372 199.189C344.297 199.117 344.26 199.031 344.26 198.93C344.26 198.829 344.297 198.743 344.372 198.671C344.448 198.599 344.539 198.563 344.645 198.563C344.75 198.563 344.84 198.599 344.915 198.671C344.992 198.743 345.03 198.829 345.03 198.93C345.03 199.031 344.992 199.117 344.915 199.189C344.84 199.261 344.75 199.297 344.645 199.297ZM346.443 201.286V203.404H345.902V199.883H346.424V200.433H346.47C346.553 200.255 346.678 200.111 346.846 200.003C347.014 199.893 347.231 199.837 347.497 199.837C347.735 199.837 347.944 199.886 348.123 199.984C348.302 200.08 348.441 200.227 348.54 200.424C348.639 200.62 348.689 200.868 348.689 201.167V203.404H348.148V201.204C348.148 200.927 348.076 200.712 347.933 200.557C347.789 200.401 347.592 200.323 347.341 200.323C347.168 200.323 347.014 200.361 346.878 200.436C346.744 200.511 346.637 200.62 346.559 200.764C346.481 200.907 346.443 201.081 346.443 201.286ZM349.678 203.404V199.883H350.218V203.404H349.678ZM349.953 199.297C349.847 199.297 349.756 199.261 349.68 199.189C349.605 199.117 349.567 199.031 349.567 198.93C349.567 198.829 349.605 198.743 349.68 198.671C349.756 198.599 349.847 198.563 349.953 198.563C350.058 198.563 350.148 198.599 350.223 198.671C350.299 198.743 350.338 198.829 350.338 198.93C350.338 199.031 350.299 199.117 350.223 199.189C350.148 199.261 350.058 199.297 349.953 199.297Z" fill="#11111A"/>
</g>
<rect x="322.64" y="251.627" width="163.313" height="254.33" rx="15.4922" fill="white"/>
<g clip-path="url(#clip4_87_372)">
<path d="M340.354 298.119V275.585H344.437V285.125H354.878V275.585H358.971V298.119H354.878V288.547H344.437V298.119H340.354ZM370.717 298.449C369.023 298.449 367.559 298.097 366.327 297.393C365.102 296.681 364.159 295.676 363.499 294.378C362.839 293.072 362.509 291.536 362.509 289.768C362.509 288.029 362.839 286.504 363.499 285.191C364.167 283.87 365.098 282.843 366.294 282.11C367.49 281.369 368.894 280.999 370.508 280.999C371.55 280.999 372.533 281.167 373.457 281.505C374.388 281.835 375.21 282.348 375.922 283.045C376.64 283.742 377.205 284.629 377.616 285.708C378.027 286.779 378.232 288.055 378.232 289.537V290.758H364.379V288.073H374.414C374.407 287.311 374.242 286.632 373.919 286.038C373.596 285.436 373.145 284.963 372.566 284.618C371.993 284.274 371.326 284.101 370.563 284.101C369.749 284.101 369.034 284.299 368.418 284.696C367.801 285.084 367.321 285.598 366.976 286.236C366.639 286.867 366.466 287.56 366.459 288.315V290.659C366.459 291.642 366.639 292.486 366.998 293.19C367.358 293.887 367.86 294.422 368.506 294.796C369.151 295.163 369.907 295.346 370.772 295.346C371.352 295.346 371.876 295.266 372.346 295.104C372.815 294.936 373.222 294.69 373.567 294.367C373.912 294.044 374.172 293.645 374.348 293.168L378.067 293.586C377.832 294.569 377.385 295.427 376.725 296.161C376.072 296.887 375.236 297.452 374.216 297.855C373.196 298.251 372.03 298.449 370.717 298.449ZM386.465 298.46C385.394 298.46 384.43 298.27 383.571 297.888C382.72 297.499 382.046 296.927 381.547 296.172C381.055 295.416 380.81 294.484 380.81 293.377C380.81 292.423 380.986 291.635 381.338 291.011C381.69 290.388 382.17 289.889 382.779 289.515C383.388 289.141 384.074 288.858 384.837 288.668C385.607 288.47 386.403 288.326 387.224 288.238C388.215 288.136 389.018 288.044 389.634 287.963C390.25 287.875 390.698 287.743 390.976 287.567C391.262 287.384 391.405 287.101 391.405 286.72V286.654C391.405 285.825 391.16 285.183 390.668 284.729C390.177 284.274 389.469 284.046 388.545 284.046C387.569 284.046 386.795 284.259 386.223 284.685C385.658 285.11 385.277 285.612 385.079 286.192L381.36 285.664C381.653 284.637 382.137 283.779 382.812 283.089C383.487 282.392 384.312 281.871 385.288 281.527C386.263 281.175 387.342 280.999 388.523 280.999C389.337 280.999 390.147 281.094 390.954 281.285C391.761 281.475 392.498 281.791 393.166 282.231C393.833 282.664 394.369 283.254 394.772 284.002C395.183 284.751 395.389 285.686 395.389 286.808V298.119H391.56V295.798H391.427C391.185 296.267 390.844 296.707 390.404 297.118C389.971 297.521 389.425 297.848 388.765 298.097C388.112 298.339 387.345 298.46 386.465 298.46ZM387.499 295.533C388.299 295.533 388.992 295.376 389.579 295.06C390.166 294.738 390.617 294.312 390.932 293.784C391.255 293.256 391.416 292.68 391.416 292.057V290.065C391.292 290.168 391.079 290.263 390.778 290.351C390.485 290.439 390.155 290.516 389.788 290.582C389.421 290.648 389.058 290.707 388.699 290.758C388.339 290.809 388.028 290.854 387.764 290.89C387.169 290.971 386.638 291.103 386.168 291.286C385.699 291.47 385.328 291.726 385.057 292.057C384.785 292.379 384.65 292.797 384.65 293.311C384.65 294.044 384.917 294.598 385.453 294.972C385.988 295.346 386.671 295.533 387.499 295.533ZM405.665 298.416C404.338 298.416 403.149 298.075 402.1 297.393C401.051 296.711 400.223 295.72 399.614 294.422C399.005 293.124 398.7 291.547 398.7 289.691C398.7 287.813 399.009 286.229 399.625 284.938C400.248 283.639 401.088 282.66 402.144 282C403.201 281.332 404.378 280.999 405.676 280.999C406.667 280.999 407.481 281.167 408.119 281.505C408.757 281.835 409.263 282.235 409.637 282.704C410.012 283.166 410.301 283.603 410.507 284.013H410.672V275.585H414.666V298.119H410.749V295.456H410.507C410.301 295.867 410.004 296.304 409.615 296.766C409.227 297.221 408.713 297.609 408.075 297.932C407.437 298.255 406.634 298.416 405.665 298.416ZM406.777 295.148C407.62 295.148 408.339 294.921 408.933 294.466C409.527 294.004 409.979 293.362 410.287 292.541C410.595 291.719 410.749 290.762 410.749 289.669C410.749 288.576 410.595 287.626 410.287 286.819C409.986 286.012 409.538 285.385 408.944 284.938C408.357 284.49 407.635 284.266 406.777 284.266C405.889 284.266 405.148 284.497 404.554 284.96C403.96 285.422 403.512 286.06 403.212 286.874C402.911 287.688 402.761 288.62 402.761 289.669C402.761 290.725 402.911 291.668 403.212 292.497C403.52 293.318 403.971 293.967 404.565 294.444C405.167 294.914 405.904 295.148 406.777 295.148ZM422.893 275.585V298.119H418.91V275.585H422.893ZM426.989 298.119V281.219H430.972V298.119H426.989ZM428.992 278.82C428.361 278.82 427.818 278.611 427.363 278.193C426.908 277.767 426.681 277.258 426.681 276.663C426.681 276.062 426.908 275.552 427.363 275.134C427.818 274.708 428.361 274.496 428.992 274.496C429.63 274.496 430.173 274.708 430.62 275.134C431.075 275.552 431.302 276.062 431.302 276.663C431.302 277.258 431.075 277.767 430.62 278.193C430.173 278.611 429.63 278.82 428.992 278.82ZM439.051 288.216V298.119H435.068V281.219H438.875V284.09H439.073C439.462 283.144 440.082 282.392 440.933 281.835C441.791 281.277 442.851 280.999 444.112 280.999C445.279 280.999 446.295 281.248 447.16 281.747C448.033 282.246 448.708 282.968 449.185 283.914C449.669 284.861 449.907 286.009 449.9 287.358V298.119H445.917V287.974C445.917 286.845 445.624 285.961 445.037 285.323C444.457 284.685 443.654 284.365 442.627 284.365C441.93 284.365 441.31 284.519 440.768 284.828C440.232 285.128 439.81 285.565 439.502 286.137C439.201 286.709 439.051 287.402 439.051 288.216ZM461.431 298.449C459.737 298.449 458.273 298.097 457.041 297.393C455.816 296.681 454.873 295.676 454.213 294.378C453.553 293.072 453.223 291.536 453.223 289.768C453.223 288.029 453.553 286.504 454.213 285.191C454.881 283.87 455.812 282.843 457.008 282.11C458.204 281.369 459.608 280.999 461.222 280.999C462.264 280.999 463.247 281.167 464.171 281.505C465.102 281.835 465.924 282.348 466.636 283.045C467.354 283.742 467.919 284.629 468.33 285.708C468.741 286.779 468.946 288.055 468.946 289.537V290.758H455.093V288.073H465.128C465.121 287.311 464.956 286.632 464.633 286.038C464.31 285.436 463.859 284.963 463.28 284.618C462.708 284.274 462.04 284.101 461.277 284.101C460.463 284.101 459.748 284.299 459.132 284.696C458.515 285.084 458.035 285.598 457.69 286.236C457.353 286.867 457.18 287.56 457.173 288.315V290.659C457.173 291.642 457.353 292.486 457.712 293.19C458.072 293.887 458.574 294.422 459.22 294.796C459.865 295.163 460.621 295.346 461.486 295.346C462.066 295.346 462.59 295.266 463.06 295.104C463.529 294.936 463.936 294.69 464.281 294.367C464.626 294.044 464.886 293.645 465.062 293.168L468.781 293.586C468.546 294.569 468.099 295.427 467.439 296.161C466.786 296.887 465.95 297.452 464.93 297.855C463.911 298.251 462.744 298.449 461.431 298.449Z" fill="#11111A"/>
<path d="M339.799 340.178V323.277H342.86V337.611H350.304V340.178H339.799ZM356.477 340.434C355.673 340.434 354.95 340.291 354.306 340.004C353.668 339.713 353.162 339.284 352.788 338.717C352.419 338.15 352.235 337.452 352.235 336.621C352.235 335.906 352.367 335.314 352.631 334.847C352.895 334.379 353.255 334.005 353.712 333.724C354.169 333.444 354.683 333.232 355.255 333.089C355.833 332.941 356.43 332.833 357.046 332.767C357.789 332.69 358.391 332.621 358.853 332.561C359.315 332.495 359.651 332.396 359.86 332.264C360.075 332.126 360.182 331.915 360.182 331.628V331.579C360.182 330.957 359.997 330.476 359.629 330.135C359.26 329.794 358.729 329.623 358.036 329.623C357.305 329.623 356.724 329.783 356.295 330.102C355.871 330.421 355.585 330.798 355.437 331.232L352.648 330.836C352.868 330.066 353.231 329.422 353.737 328.905C354.243 328.383 354.862 327.992 355.594 327.733C356.325 327.469 357.134 327.337 358.02 327.337C358.63 327.337 359.238 327.409 359.843 327.552C360.449 327.695 361.002 327.931 361.502 328.262C362.003 328.586 362.404 329.029 362.707 329.59C363.015 330.151 363.169 330.853 363.169 331.694V340.178H360.297V338.437H360.198C360.017 338.789 359.761 339.119 359.431 339.427C359.106 339.729 358.696 339.974 358.201 340.161C357.712 340.343 357.137 340.434 356.477 340.434ZM357.252 338.238C357.852 338.238 358.372 338.12 358.812 337.884C359.252 337.642 359.59 337.322 359.827 336.926C360.069 336.53 360.19 336.098 360.19 335.631V334.137C360.097 334.214 359.937 334.286 359.711 334.352C359.491 334.418 359.244 334.475 358.969 334.525C358.694 334.574 358.421 334.618 358.152 334.657C357.882 334.696 357.648 334.729 357.45 334.756C357.005 334.817 356.606 334.916 356.254 335.053C355.902 335.191 355.624 335.383 355.42 335.631C355.217 335.873 355.115 336.186 355.115 336.572C355.115 337.122 355.316 337.537 355.717 337.818C356.119 338.098 356.631 338.238 357.252 338.238ZM366.173 340.178V327.502H369.069V329.615H369.201C369.433 328.883 369.829 328.319 370.39 327.923C370.956 327.522 371.603 327.321 372.329 327.321C372.494 327.321 372.678 327.329 372.882 327.346C373.091 327.357 373.264 327.376 373.402 327.403V330.151C373.275 330.107 373.075 330.069 372.799 330.036C372.53 329.997 372.269 329.978 372.015 329.978C371.471 329.978 370.981 330.096 370.547 330.333C370.117 330.564 369.779 330.886 369.532 331.298C369.284 331.711 369.16 332.187 369.16 332.726V340.178H366.173ZM380.377 345.195C379.304 345.195 378.383 345.049 377.613 344.758C376.842 344.472 376.223 344.087 375.756 343.602C375.288 343.118 374.964 342.582 374.782 341.993L377.472 341.341C377.593 341.589 377.769 341.834 378 342.076C378.231 342.323 378.542 342.527 378.933 342.686C379.329 342.851 379.827 342.934 380.427 342.934C381.274 342.934 381.975 342.728 382.531 342.315C383.087 341.908 383.364 341.237 383.364 340.302V337.9H383.216C383.062 338.208 382.836 338.525 382.539 338.849C382.248 339.174 381.86 339.446 381.376 339.666C380.897 339.886 380.295 339.996 379.568 339.996C378.595 339.996 377.712 339.768 376.919 339.311C376.133 338.849 375.506 338.161 375.038 337.248C374.576 336.329 374.345 335.18 374.345 333.799C374.345 332.407 374.576 331.232 375.038 330.275C375.506 329.312 376.135 328.583 376.928 328.088C377.72 327.588 378.603 327.337 379.577 327.337C380.319 327.337 380.93 327.464 381.409 327.717C381.893 327.964 382.278 328.264 382.564 328.616C382.85 328.963 383.067 329.29 383.216 329.598H383.381V327.502H386.327V340.384C386.327 341.468 386.068 342.365 385.551 343.074C385.034 343.784 384.327 344.315 383.43 344.667C382.534 345.019 381.516 345.195 380.377 345.195ZM380.402 337.653C381.034 337.653 381.574 337.499 382.019 337.19C382.465 336.882 382.803 336.439 383.034 335.862C383.265 335.284 383.381 334.591 383.381 333.782C383.381 332.985 383.265 332.286 383.034 331.686C382.809 331.087 382.473 330.622 382.028 330.292C381.587 329.956 381.045 329.788 380.402 329.788C379.736 329.788 379.18 329.961 378.735 330.308C378.289 330.655 377.954 331.131 377.728 331.736C377.503 332.335 377.39 333.018 377.39 333.782C377.39 334.558 377.503 335.237 377.728 335.821C377.959 336.398 378.298 336.849 378.743 337.174C379.194 337.493 379.747 337.653 380.402 337.653ZM395 340.425C393.729 340.425 392.632 340.161 391.707 339.633C390.789 339.099 390.082 338.346 389.587 337.372C389.091 336.393 388.844 335.24 388.844 333.914C388.844 332.61 389.091 331.466 389.587 330.481C390.087 329.491 390.786 328.721 391.683 328.171C392.579 327.615 393.633 327.337 394.843 327.337C395.624 327.337 396.362 327.464 397.055 327.717C397.754 327.964 398.37 328.35 398.903 328.872C399.442 329.395 399.866 330.06 400.174 330.869C400.482 331.672 400.636 332.63 400.636 333.741V334.657H390.247V332.643H397.773C397.767 332.071 397.643 331.562 397.401 331.117C397.159 330.666 396.821 330.311 396.386 330.052C395.957 329.794 395.457 329.664 394.884 329.664C394.274 329.664 393.737 329.813 393.275 330.11C392.813 330.402 392.453 330.787 392.194 331.265C391.941 331.738 391.812 332.258 391.806 332.825V334.583C391.806 335.32 391.941 335.953 392.211 336.481C392.48 337.003 392.857 337.405 393.341 337.686C393.825 337.961 394.392 338.098 395.041 338.098C395.476 338.098 395.869 338.038 396.221 337.917C396.573 337.79 396.879 337.606 397.137 337.364C397.396 337.122 397.591 336.822 397.723 336.464L400.513 336.778C400.336 337.515 400.001 338.159 399.506 338.709C399.016 339.253 398.389 339.677 397.624 339.98C396.86 340.277 395.985 340.425 395 340.425Z" fill="#11111A"/>
<path d="M339.243 373.49V362.223H343.468C344.334 362.223 345.06 362.374 345.647 362.674C346.237 362.975 346.683 363.397 346.984 363.94C347.288 364.479 347.44 365.108 347.44 365.827C347.44 366.549 347.286 367.176 346.978 367.708C346.674 368.236 346.225 368.645 345.63 368.935C345.036 369.221 344.306 369.364 343.441 369.364H340.431V367.67H343.166C343.672 367.67 344.086 367.6 344.409 367.461C344.732 367.318 344.97 367.11 345.124 366.839C345.282 366.564 345.361 366.226 345.361 365.827C345.361 365.427 345.282 365.086 345.124 364.803C344.967 364.517 344.726 364.301 344.404 364.154C344.081 364.004 343.664 363.929 343.155 363.929H341.284V373.49H339.243ZM345.064 368.385L347.853 373.49H345.575L342.836 368.385H345.064ZM352.851 373.655C352.004 373.655 351.272 373.479 350.656 373.127C350.043 372.771 349.572 372.269 349.242 371.62C348.912 370.967 348.747 370.199 348.747 369.315C348.747 368.445 348.912 367.682 349.242 367.026C349.576 366.366 350.042 365.852 350.639 365.486C351.237 365.115 351.94 364.93 352.747 364.93C353.267 364.93 353.759 365.014 354.221 365.183C354.687 365.348 355.098 365.605 355.453 365.953C355.813 366.302 356.095 366.745 356.3 367.285C356.506 367.82 356.609 368.458 356.609 369.199V369.81H349.682V368.467H354.7C354.696 368.086 354.613 367.747 354.452 367.45C354.291 367.149 354.065 366.912 353.775 366.74C353.489 366.568 353.155 366.481 352.774 366.481C352.367 366.481 352.009 366.58 351.701 366.778C351.393 366.973 351.153 367.23 350.981 367.549C350.812 367.864 350.726 368.211 350.722 368.588V369.76C350.722 370.252 350.812 370.673 350.992 371.026C351.171 371.374 351.423 371.642 351.745 371.829C352.068 372.012 352.446 372.104 352.879 372.104C353.168 372.104 353.431 372.064 353.665 371.983C353.9 371.898 354.104 371.776 354.276 371.614C354.448 371.453 354.579 371.253 354.667 371.015L356.526 371.224C356.409 371.715 356.185 372.144 355.855 372.511C355.528 372.874 355.11 373.156 354.601 373.358C354.091 373.556 353.508 373.655 352.851 373.655ZM361.968 376.835C361.253 376.835 360.639 376.738 360.125 376.544C359.612 376.353 359.199 376.096 358.888 375.773C358.576 375.451 358.359 375.093 358.238 374.701L360.032 374.266C360.113 374.431 360.23 374.594 360.384 374.756C360.538 374.921 360.745 375.056 361.006 375.163C361.27 375.273 361.602 375.328 362.001 375.328C362.566 375.328 363.034 375.19 363.404 374.915C363.775 374.644 363.96 374.196 363.96 373.573V371.972H363.861C363.758 372.177 363.608 372.388 363.41 372.604C363.215 372.821 362.957 373.002 362.634 373.149C362.315 373.296 361.913 373.369 361.429 373.369C360.78 373.369 360.191 373.217 359.663 372.913C359.139 372.604 358.721 372.146 358.409 371.537C358.101 370.925 357.947 370.158 357.947 369.238C357.947 368.31 358.101 367.527 358.409 366.888C358.721 366.247 359.141 365.761 359.669 365.431C360.197 365.097 360.786 364.93 361.435 364.93C361.93 364.93 362.337 365.014 362.656 365.183C362.979 365.348 363.236 365.548 363.426 365.783C363.617 366.014 363.762 366.232 363.861 366.437H363.971V365.04H365.935V373.628C365.935 374.35 365.763 374.948 365.418 375.421C365.073 375.894 364.602 376.248 364.004 376.483C363.406 376.718 362.728 376.835 361.968 376.835ZM361.985 371.807C362.407 371.807 362.766 371.704 363.063 371.499C363.36 371.293 363.586 370.998 363.74 370.613C363.894 370.228 363.971 369.766 363.971 369.227C363.971 368.695 363.894 368.229 363.74 367.829C363.59 367.429 363.366 367.12 363.069 366.899C362.775 366.676 362.414 366.564 361.985 366.564C361.541 366.564 361.171 366.679 360.874 366.91C360.577 367.142 360.353 367.459 360.202 367.862C360.052 368.262 359.977 368.717 359.977 369.227C359.977 369.744 360.052 370.197 360.202 370.585C360.356 370.971 360.582 371.271 360.879 371.488C361.18 371.7 361.548 371.807 361.985 371.807ZM373.362 369.936V365.04H375.354V373.49H373.423V371.988H373.334C373.144 372.461 372.83 372.848 372.394 373.149C371.961 373.45 371.427 373.6 370.793 373.6C370.239 373.6 369.749 373.477 369.324 373.232C368.902 372.982 368.572 372.621 368.334 372.148C368.095 371.671 367.976 371.095 367.976 370.42V365.04H369.968V370.112C369.968 370.648 370.114 371.073 370.408 371.389C370.701 371.704 371.086 371.862 371.563 371.862C371.856 371.862 372.141 371.79 372.416 371.647C372.691 371.504 372.916 371.291 373.092 371.009C373.272 370.723 373.362 370.365 373.362 369.936ZM379.393 362.223V373.49H377.401V362.223H379.393ZM383.873 373.661C383.337 373.661 382.855 373.565 382.426 373.375C382 373.18 381.663 372.894 381.413 372.516C381.168 372.139 381.045 371.673 381.045 371.119C381.045 370.642 381.133 370.248 381.309 369.936C381.485 369.625 381.725 369.375 382.03 369.188C382.334 369.001 382.677 368.86 383.058 368.764C383.443 368.665 383.841 368.594 384.252 368.55C384.747 368.499 385.149 368.453 385.457 368.412C385.765 368.368 385.989 368.302 386.128 368.214C386.271 368.123 386.343 367.981 386.343 367.791V367.758C386.343 367.343 386.22 367.022 385.974 366.795C385.728 366.568 385.374 366.454 384.912 366.454C384.425 366.454 384.038 366.56 383.752 366.773C383.469 366.986 383.278 367.237 383.179 367.527L381.32 367.263C381.467 366.749 381.709 366.32 382.046 365.975C382.384 365.627 382.796 365.366 383.284 365.194C383.772 365.018 384.311 364.93 384.901 364.93C385.308 364.93 385.714 364.978 386.117 365.073C386.521 365.168 386.889 365.326 387.223 365.546C387.557 365.762 387.824 366.058 388.026 366.432C388.232 366.806 388.334 367.274 388.334 367.835V373.49H386.42V372.329H386.354C386.233 372.564 386.062 372.784 385.842 372.99C385.626 373.191 385.352 373.355 385.022 373.479C384.696 373.6 384.313 373.661 383.873 373.661ZM384.39 372.197C384.789 372.197 385.136 372.119 385.429 371.961C385.723 371.799 385.948 371.587 386.106 371.323C386.268 371.059 386.348 370.771 386.348 370.459V369.463C386.286 369.514 386.18 369.562 386.029 369.606C385.882 369.65 385.717 369.689 385.534 369.722C385.351 369.755 385.169 369.784 384.989 369.81C384.81 369.835 384.654 369.857 384.522 369.876C384.225 369.916 383.959 369.982 383.724 370.074C383.489 370.166 383.304 370.294 383.168 370.459C383.033 370.62 382.965 370.829 382.965 371.086C382.965 371.453 383.099 371.73 383.366 371.917C383.634 372.104 383.975 372.197 384.39 372.197ZM390.337 373.49V365.04H392.268V366.448H392.356C392.51 365.961 392.774 365.585 393.148 365.321C393.526 365.053 393.957 364.919 394.441 364.919C394.551 364.919 394.674 364.924 394.81 364.935C394.949 364.943 395.064 364.956 395.156 364.974V366.806C395.072 366.777 394.938 366.751 394.755 366.729C394.575 366.703 394.401 366.69 394.232 366.69C393.869 366.69 393.542 366.769 393.253 366.927C392.967 367.081 392.741 367.296 392.576 367.571C392.411 367.846 392.328 368.163 392.328 368.522V373.49H390.337Z" fill="#11111A"/>
<path d="M344.161 393.667C344.118 393.266 343.937 392.954 343.62 392.731C343.305 392.508 342.895 392.397 342.391 392.397C342.036 392.397 341.732 392.45 341.479 392.557C341.225 392.664 341.031 392.809 340.896 392.993C340.762 393.176 340.693 393.385 340.69 393.621C340.69 393.816 340.734 393.986 340.823 394.13C340.915 394.273 341.038 394.395 341.194 394.496C341.35 394.594 341.523 394.677 341.712 394.744C341.902 394.811 342.093 394.868 342.285 394.914L343.166 395.134C343.52 395.216 343.861 395.328 344.188 395.468C344.518 395.609 344.813 395.786 345.073 396C345.336 396.214 345.544 396.472 345.696 396.775C345.849 397.077 345.926 397.432 345.926 397.838C345.926 398.389 345.785 398.873 345.504 399.292C345.223 399.707 344.816 400.033 344.284 400.268C343.756 400.501 343.115 400.617 342.363 400.617C341.633 400.617 340.999 400.504 340.461 400.277C339.926 400.051 339.507 399.721 339.205 399.287C338.905 398.853 338.743 398.324 338.719 397.701H340.392C340.416 398.028 340.517 398.3 340.695 398.517C340.872 398.734 341.103 398.896 341.387 399.003C341.674 399.11 341.995 399.163 342.35 399.163C342.719 399.163 343.043 399.108 343.322 398.998C343.603 398.885 343.823 398.729 343.982 398.531C344.141 398.329 344.222 398.094 344.225 397.825C344.222 397.58 344.15 397.378 344.009 397.22C343.869 397.058 343.672 396.923 343.418 396.816C343.167 396.706 342.874 396.608 342.538 396.523L341.469 396.248C340.696 396.049 340.085 395.748 339.636 395.344C339.189 394.938 338.966 394.399 338.966 393.726C338.966 393.173 339.116 392.688 339.416 392.273C339.718 391.857 340.129 391.535 340.649 391.305C341.168 391.073 341.757 390.957 342.414 390.957C343.08 390.957 343.664 391.073 344.165 391.305C344.669 391.535 345.065 391.854 345.353 392.264C345.64 392.67 345.788 393.138 345.797 393.667H344.161ZM347.369 400.475V393.433H348.955V394.629H349.037C349.184 394.226 349.427 393.911 349.766 393.685C350.106 393.456 350.511 393.341 350.981 393.341C351.458 393.341 351.86 393.457 352.187 393.689C352.517 393.919 352.749 394.232 352.884 394.629H352.957C353.113 394.238 353.376 393.926 353.746 393.694C354.119 393.459 354.56 393.341 355.071 393.341C355.719 393.341 356.247 393.546 356.657 393.955C357.067 394.365 357.271 394.962 357.271 395.748V400.475H355.607V396.005C355.607 395.568 355.491 395.248 355.259 395.046C355.026 394.842 354.742 394.739 354.406 394.739C354.006 394.739 353.692 394.865 353.466 395.115C353.243 395.363 353.131 395.685 353.131 396.083V400.475H351.504V395.936C351.504 395.572 351.394 395.282 351.174 395.065C350.957 394.848 350.673 394.739 350.321 394.739C350.083 394.739 349.866 394.8 349.67 394.923C349.474 395.042 349.319 395.212 349.202 395.432C349.086 395.649 349.028 395.902 349.028 396.193V400.475H347.369ZM360.981 400.617C360.535 400.617 360.133 400.537 359.776 400.378C359.421 400.216 359.14 399.978 358.932 399.663C358.727 399.348 358.625 398.96 358.625 398.499C358.625 398.101 358.698 397.773 358.845 397.513C358.992 397.253 359.192 397.045 359.446 396.889C359.699 396.734 359.985 396.616 360.303 396.536C360.624 396.454 360.955 396.394 361.298 396.358C361.71 396.315 362.045 396.277 362.302 396.243C362.558 396.206 362.745 396.151 362.861 396.078C362.98 396.002 363.04 395.884 363.04 395.725V395.697C363.04 395.352 362.937 395.085 362.733 394.895C362.528 394.706 362.233 394.611 361.848 394.611C361.441 394.611 361.119 394.7 360.88 394.877C360.645 395.054 360.486 395.263 360.404 395.505L358.854 395.285C358.976 394.857 359.178 394.499 359.459 394.212C359.74 393.922 360.084 393.705 360.491 393.561C360.897 393.414 361.347 393.341 361.839 393.341C362.178 393.341 362.516 393.381 362.852 393.46C363.188 393.54 363.495 393.671 363.773 393.854C364.051 394.035 364.275 394.281 364.443 394.593C364.614 394.904 364.699 395.294 364.699 395.762V400.475H363.104V399.507H363.049C362.948 399.703 362.806 399.886 362.623 400.057C362.442 400.226 362.215 400.362 361.94 400.465C361.668 400.566 361.348 400.617 360.981 400.617ZM361.412 399.397C361.745 399.397 362.034 399.332 362.279 399.2C362.523 399.066 362.711 398.888 362.843 398.668C362.977 398.448 363.044 398.208 363.044 397.949V397.119C362.992 397.161 362.904 397.201 362.778 397.238C362.656 397.275 362.519 397.307 362.366 397.334C362.213 397.362 362.062 397.386 361.912 397.408C361.762 397.429 361.632 397.447 361.522 397.463C361.275 397.496 361.053 397.551 360.858 397.628C360.662 397.704 360.508 397.811 360.395 397.949C360.281 398.083 360.225 398.257 360.225 398.471C360.225 398.777 360.336 399.008 360.56 399.163C360.783 399.319 361.067 399.397 361.412 399.397ZM368.028 391.085V400.475H366.368V391.085H368.028ZM371.394 391.085V400.475H369.734V391.085H371.394Z" fill="#11111A"/>
</g>
<g clip-path="url(#clip5_87_372)">
<path d="M339.06 425.295V416.845H340.335V424.197H344.164V425.295H339.06ZM347.364 425.435C346.962 425.435 346.599 425.361 346.275 425.212C345.95 425.061 345.693 424.842 345.503 424.556C345.316 424.27 345.223 423.92 345.223 423.504C345.223 423.147 345.291 422.852 345.429 422.621C345.566 422.39 345.752 422.207 345.986 422.072C346.22 421.938 346.481 421.836 346.77 421.767C347.059 421.698 347.353 421.646 347.653 421.61C348.032 421.566 348.341 421.531 348.577 421.503C348.814 421.473 348.986 421.425 349.093 421.359C349.2 421.293 349.254 421.185 349.254 421.037V421.008C349.254 420.648 349.152 420.368 348.948 420.17C348.748 419.972 348.448 419.873 348.049 419.873C347.634 419.873 347.306 419.965 347.067 420.15C346.83 420.331 346.667 420.533 346.576 420.756L345.416 420.492C345.554 420.107 345.755 419.796 346.019 419.56C346.286 419.32 346.592 419.147 346.939 419.04C347.286 418.93 347.65 418.875 348.032 418.875C348.286 418.875 348.554 418.905 348.837 418.965C349.123 419.023 349.39 419.131 349.638 419.287C349.888 419.444 350.093 419.668 350.252 419.96C350.412 420.249 350.492 420.624 350.492 421.086V425.295H349.287V424.428H349.237C349.158 424.588 349.038 424.745 348.878 424.899C348.719 425.053 348.514 425.181 348.264 425.283C348.013 425.384 347.713 425.435 347.364 425.435ZM347.632 424.445C347.973 424.445 348.265 424.378 348.507 424.243C348.752 424.108 348.937 423.932 349.064 423.715C349.193 423.495 349.258 423.259 349.258 423.009V422.192C349.214 422.236 349.129 422.277 349.002 422.316C348.878 422.352 348.737 422.383 348.577 422.411C348.418 422.436 348.262 422.459 348.111 422.481C347.96 422.5 347.833 422.517 347.731 422.53C347.492 422.561 347.273 422.612 347.075 422.683C346.88 422.755 346.723 422.858 346.605 422.993C346.489 423.125 346.432 423.301 346.432 423.521C346.432 423.826 346.544 424.057 346.77 424.214C346.995 424.368 347.283 424.445 347.632 424.445ZM352.135 425.295V418.957H353.327V419.964H353.393C353.509 419.623 353.712 419.355 354.004 419.159C354.298 418.961 354.631 418.862 355.002 418.862C355.08 418.862 355.17 418.865 355.275 418.871C355.382 418.876 355.466 418.883 355.527 418.891V420.071C355.477 420.058 355.389 420.042 355.262 420.026C355.136 420.007 355.009 419.997 354.883 419.997C354.591 419.997 354.331 420.059 354.103 420.183C353.877 420.304 353.699 420.473 353.567 420.69C353.435 420.905 353.369 421.15 353.369 421.425V425.295H352.135ZM359.024 427.804C358.521 427.804 358.088 427.738 357.725 427.606C357.364 427.474 357.07 427.299 356.842 427.082C356.613 426.864 356.443 426.626 356.33 426.368L357.39 425.93C357.465 426.051 357.564 426.179 357.688 426.314C357.814 426.452 357.985 426.569 358.199 426.665C358.417 426.761 358.696 426.809 359.037 426.809C359.504 426.809 359.891 426.695 360.196 426.467C360.502 426.241 360.654 425.881 360.654 425.386V424.14H360.576C360.502 424.274 360.394 424.424 360.254 424.589C360.116 424.754 359.927 424.897 359.685 425.018C359.443 425.14 359.128 425.2 358.74 425.2C358.239 425.2 357.788 425.083 357.386 424.849C356.987 424.613 356.671 424.265 356.437 423.805C356.206 423.343 356.091 422.775 356.091 422.101C356.091 421.427 356.205 420.85 356.433 420.368C356.664 419.887 356.981 419.518 357.382 419.263C357.784 419.004 358.239 418.875 358.748 418.875C359.141 418.875 359.459 418.941 359.701 419.073C359.943 419.202 360.132 419.353 360.266 419.527C360.404 419.7 360.51 419.853 360.584 419.985H360.675V418.957H361.884V425.435C361.884 425.98 361.757 426.427 361.504 426.776C361.251 427.126 360.909 427.384 360.477 427.552C360.048 427.72 359.564 427.804 359.024 427.804ZM359.012 424.177C359.367 424.177 359.667 424.094 359.912 423.929C360.159 423.761 360.346 423.522 360.473 423.211C360.602 422.898 360.667 422.522 360.667 422.085C360.667 421.658 360.603 421.283 360.477 420.958C360.35 420.634 360.165 420.381 359.92 420.199C359.675 420.015 359.372 419.923 359.012 419.923C358.641 419.923 358.331 420.019 358.084 420.212C357.836 420.401 357.649 420.66 357.523 420.987C357.399 421.315 357.337 421.68 357.337 422.085C357.337 422.5 357.4 422.865 357.527 423.178C357.653 423.492 357.84 423.737 358.088 423.913C358.338 424.089 358.646 424.177 359.012 424.177ZM366.27 425.423C365.645 425.423 365.108 425.289 364.657 425.023C364.208 424.753 363.862 424.375 363.617 423.888C363.375 423.398 363.254 422.825 363.254 422.167C363.254 421.518 363.375 420.946 363.617 420.451C363.862 419.956 364.203 419.569 364.64 419.291C365.08 419.014 365.595 418.875 366.183 418.875C366.541 418.875 366.887 418.934 367.223 419.052C367.559 419.17 367.86 419.356 368.127 419.609C368.393 419.862 368.604 420.191 368.758 420.595C368.912 420.997 368.989 421.485 368.989 422.06V422.497H363.951V421.573H367.78C367.78 421.249 367.714 420.961 367.582 420.711C367.45 420.458 367.264 420.258 367.025 420.113C366.788 419.967 366.511 419.894 366.191 419.894C365.845 419.894 365.542 419.979 365.284 420.15C365.028 420.317 364.83 420.538 364.69 420.81C364.552 421.079 364.483 421.372 364.483 421.689V422.411C364.483 422.834 364.558 423.195 364.706 423.492C364.857 423.789 365.068 424.016 365.337 424.173C365.607 424.327 365.922 424.404 366.282 424.404C366.516 424.404 366.729 424.371 366.922 424.305C367.114 424.236 367.281 424.134 367.421 423.999C367.561 423.865 367.669 423.698 367.743 423.5L368.911 423.71C368.817 424.054 368.649 424.356 368.407 424.614C368.168 424.87 367.867 425.069 367.504 425.212C367.143 425.353 366.732 425.423 366.27 425.423Z" fill="#11111A"/>
</g>
</g>
</g>
<defs>
<filter id="filter0_d_87_372" x="147.062" y="389.766" width="149.758" height="118.773" filterUnits="userSpaceOnUse" color-interpolation-filters="sRGB">
<feFlood flood-opacity="0" result="BackgroundImageFix"/>
<feColorMatrix in="SourceAlpha" type="matrix" values="0 0 0 0 0 0 0 0 0 0 0 0 0 0 0 0 0 0 127 0" result="hardAlpha"/>
<feOffset dy="10.3281"/>
<feGaussianBlur stdDeviation="10.3281"/>
<feComposite in2="hardAlpha" operator="out"/>
<feColorMatrix type="matrix" values="0 0 0 0 0 0 0 0 0 0 0 0 0 0 0 0 0 0 0.12 0"/>
<feBlend mode="normal" in2="BackgroundImageFix" result="effect1_dropShadow_87_372"/>
<feBlend mode="normal" in="SourceGraphic" in2="effect1_dropShadow_87_372" result="shape"/>
</filter>
<clipPath id="clip0_87_372">
<rect width="480" height="640" fill="white"/>
</clipPath>
<clipPath id="clip1_87_372">
<rect width="929.531" height="661" fill="white" transform="translate(-402.266 -75)"/>
</clipPath>
<clipPath id="clip2_87_372">
<rect width="129.102" height="136.848" fill="white" transform="translate(338.132 -18.1953)"/>
</clipPath>
<clipPath id="clip3_87_372">
<rect width="32.9209" height="76.1699" fill="white" transform="translate(338.132 128.98)"/>
</clipPath>
<clipPath id="clip4_87_372">
<rect width="132.329" height="136.848" fill="white" transform="translate(338.132 267.119)"/>
</clipPath>
<clipPath id="clip5_87_372">
<rect width="32.9209" height="76.1699" fill="white" transform="translate(338.132 414.295)"/>
</clipPath>
</defs>
</svg>
