<svg width="394" height="546" viewBox="0 0 394 546" fill="none" xmlns="http://www.w3.org/2000/svg">
<g clip-path="url(#clip0_88_1245)">
<rect x="-0.5" y="-0.5" width="321" height="97" fill="#F5F5F7"/>
<rect x="24" y="24" width="48" height="48" rx="8" fill="#DFDFE2"/>
<rect x="96" y="24" width="120" height="8" rx="4" fill="#DFDFE2"/>
<rect x="96" y="44" width="120" height="8" rx="4" fill="#DFDFE2"/>
<rect x="96" y="64" width="68" height="8" rx="4" fill="#DFDFE2"/>
<rect x="-0.5" y="-0.5" width="321" height="97" stroke="#DFDFE2"/>
<rect x="-0.5" y="95.5" width="321" height="85" fill="#DFDFE2"/>
<rect x="-0.5" y="95.5" width="321" height="85" stroke="#DFDFE2"/>
</g>
<rect x="1" y="1" width="318" height="178" rx="15" stroke="#DFDFE2" stroke-width="2"/>
<g clip-path="url(#clip1_88_1245)">
<rect x="73.5" y="269.5" width="321" height="181" fill="#DFDFE2"/>
<rect x="73.5" y="269.5" width="321" height="181" stroke="#DFDFE2"/>
<rect x="73.5" y="449.5" width="321" height="97" fill="#F5F5F7"/>
<rect x="98" y="474" width="48" height="48" rx="8" fill="#DFDFE2"/>
<rect x="170" y="474" width="120" height="8" rx="4" fill="#DFDFE2"/>
<rect x="170" y="494" width="120" height="8" rx="4" fill="#DFDFE2"/>
<rect x="170" y="514" width="68" height="8" rx="4" fill="#DFDFE2"/>
<rect x="73.5" y="449.5" width="321" height="97" stroke="#DFDFE2"/>
</g>
<rect x="75" y="271" width="318" height="274" rx="15" stroke="#DFDFE2" stroke-width="2"/>
<g filter="url(#filter0_d_88_1245)">
<rect x="42" y="134" width="320" height="84" rx="16" fill="white"/>
<path d="M66.3068 161.273H67.517L69.9375 165.347H70.0398L72.4602 161.273H73.6705L70.517 166.403V170H69.4602V166.403L66.3068 161.273ZM76.6342 170.136C76.0433 170.136 75.5249 169.996 75.0788 169.714C74.6357 169.433 74.2891 169.04 74.0391 168.534C73.7919 168.028 73.6683 167.437 73.6683 166.761C73.6683 166.08 73.7919 165.484 74.0391 164.976C74.2891 164.467 74.6357 164.072 75.0788 163.791C75.5249 163.51 76.0433 163.369 76.6342 163.369C77.2251 163.369 77.7422 163.51 78.1854 163.791C78.6314 164.072 78.978 164.467 79.2251 164.976C79.4751 165.484 79.6001 166.08 79.6001 166.761C79.6001 167.437 79.4751 168.028 79.2251 168.534C78.978 169.04 78.6314 169.433 78.1854 169.714C77.7422 169.996 77.2251 170.136 76.6342 170.136ZM76.6342 169.233C77.0831 169.233 77.4524 169.118 77.7422 168.888C78.032 168.658 78.2464 168.355 78.3857 167.98C78.5249 167.605 78.5945 167.199 78.5945 166.761C78.5945 166.324 78.5249 165.916 78.3857 165.538C78.2464 165.161 78.032 164.855 77.7422 164.622C77.4524 164.389 77.0831 164.273 76.6342 164.273C76.1854 164.273 75.8161 164.389 75.5263 164.622C75.2365 164.855 75.022 165.161 74.8828 165.538C74.7436 165.916 74.674 166.324 74.674 166.761C74.674 167.199 74.7436 167.605 74.8828 167.98C75.022 168.355 75.2365 168.658 75.5263 168.888C75.8161 169.118 76.1854 169.233 76.6342 169.233ZM85.2603 167.324V163.455H86.266V170H85.2603V168.892H85.1921C85.0387 169.224 84.8001 169.507 84.4762 169.74C84.1523 169.97 83.7433 170.085 83.2489 170.085C82.8398 170.085 82.4762 169.996 82.158 169.817C81.8398 169.635 81.5898 169.362 81.408 168.999C81.2262 168.632 81.1353 168.17 81.1353 167.614V163.455H82.141V167.545C82.141 168.023 82.2745 168.403 82.5415 168.688C82.8114 168.972 83.1552 169.114 83.5728 169.114C83.8228 169.114 84.0771 169.05 84.3356 168.922C84.5969 168.794 84.8157 168.598 84.9918 168.334C85.1708 168.07 85.2603 167.733 85.2603 167.324ZM88.108 170V163.455H89.0795V164.443H89.1477C89.267 164.119 89.483 163.857 89.7955 163.655C90.108 163.453 90.4602 163.352 90.8523 163.352C90.9261 163.352 91.0185 163.354 91.1293 163.357C91.2401 163.359 91.3239 163.364 91.3807 163.369V164.392C91.3466 164.384 91.2685 164.371 91.1463 164.354C91.027 164.334 90.9006 164.324 90.767 164.324C90.4489 164.324 90.1648 164.391 89.9148 164.524C89.6676 164.655 89.4716 164.837 89.3267 165.07C89.1847 165.3 89.1136 165.562 89.1136 165.858V170H88.108ZM98.6069 170.136C98.016 170.136 97.4975 169.996 97.0515 169.714C96.6083 169.433 96.2617 169.04 96.0117 168.534C95.7646 168.028 95.641 167.437 95.641 166.761C95.641 166.08 95.7646 165.484 96.0117 164.976C96.2617 164.467 96.6083 164.072 97.0515 163.791C97.4975 163.51 98.016 163.369 98.6069 163.369C99.1978 163.369 99.7148 163.51 100.158 163.791C100.604 164.072 100.951 164.467 101.198 164.976C101.448 165.484 101.573 166.08 101.573 166.761C101.573 167.437 101.448 168.028 101.198 168.534C100.951 169.04 100.604 169.433 100.158 169.714C99.7148 169.996 99.1978 170.136 98.6069 170.136ZM98.6069 169.233C99.0558 169.233 99.4251 169.118 99.7148 168.888C100.005 168.658 100.219 168.355 100.358 167.98C100.498 167.605 100.567 167.199 100.567 166.761C100.567 166.324 100.498 165.916 100.358 165.538C100.219 165.161 100.005 164.855 99.7148 164.622C99.4251 164.389 99.0558 164.273 98.6069 164.273C98.158 164.273 97.7887 164.389 97.4989 164.622C97.2092 164.855 96.9947 165.161 96.8555 165.538C96.7163 165.916 96.6467 166.324 96.6467 166.761C96.6467 167.199 96.7163 167.605 96.8555 167.98C96.9947 168.355 97.2092 168.658 97.4989 168.888C97.7887 169.118 98.158 169.233 98.6069 169.233ZM103.108 170V163.455H104.08V164.443H104.148C104.267 164.119 104.483 163.857 104.795 163.655C105.108 163.453 105.46 163.352 105.852 163.352C105.926 163.352 106.018 163.354 106.129 163.357C106.24 163.359 106.324 163.364 106.381 163.369V164.392C106.347 164.384 106.268 164.371 106.146 164.354C106.027 164.334 105.901 164.324 105.767 164.324C105.449 164.324 105.165 164.391 104.915 164.524C104.668 164.655 104.472 164.837 104.327 165.07C104.185 165.3 104.114 165.562 104.114 165.858V170H103.108ZM109.845 170.136C109.3 170.136 108.818 169.999 108.401 169.723C107.983 169.445 107.656 169.053 107.42 168.547C107.185 168.038 107.067 167.438 107.067 166.744C107.067 166.057 107.185 165.46 107.42 164.955C107.656 164.449 107.984 164.058 108.405 163.783C108.825 163.507 109.311 163.369 109.862 163.369C110.288 163.369 110.625 163.44 110.872 163.582C111.122 163.722 111.313 163.881 111.443 164.06C111.577 164.236 111.68 164.381 111.754 164.494H111.839V161.273H112.845V170H111.874V168.994H111.754C111.68 169.114 111.575 169.264 111.439 169.446C111.303 169.625 111.108 169.786 110.855 169.928C110.602 170.067 110.266 170.136 109.845 170.136ZM109.982 169.233C110.385 169.233 110.726 169.128 111.004 168.918C111.283 168.705 111.494 168.411 111.639 168.036C111.784 167.658 111.857 167.222 111.857 166.727C111.857 166.239 111.786 165.811 111.643 165.445C111.501 165.075 111.291 164.788 111.013 164.584C110.734 164.376 110.391 164.273 109.982 164.273C109.555 164.273 109.2 164.382 108.916 164.601C108.635 164.817 108.423 165.111 108.281 165.483C108.142 165.852 108.072 166.267 108.072 166.727C108.072 167.193 108.143 167.616 108.286 167.997C108.43 168.375 108.643 168.676 108.925 168.901C109.209 169.122 109.561 169.233 109.982 169.233ZM117.571 170.136C116.94 170.136 116.396 169.997 115.939 169.719C115.484 169.438 115.134 169.045 114.886 168.543C114.642 168.037 114.52 167.449 114.52 166.778C114.52 166.108 114.642 165.517 114.886 165.006C115.134 164.491 115.477 164.091 115.918 163.804C116.361 163.514 116.878 163.369 117.469 163.369C117.81 163.369 118.146 163.426 118.479 163.54C118.811 163.653 119.114 163.838 119.386 164.094C119.659 164.347 119.876 164.682 120.038 165.099C120.2 165.517 120.281 166.031 120.281 166.642V167.068H115.236V166.199H119.259C119.259 165.83 119.185 165.5 119.037 165.21C118.892 164.92 118.685 164.692 118.415 164.524C118.148 164.357 117.832 164.273 117.469 164.273C117.068 164.273 116.722 164.372 116.429 164.571C116.139 164.767 115.916 165.023 115.76 165.338C115.604 165.653 115.526 165.991 115.526 166.352V166.932C115.526 167.426 115.611 167.845 115.781 168.189C115.955 168.53 116.195 168.79 116.501 168.969C116.808 169.145 117.165 169.233 117.571 169.233C117.835 169.233 118.074 169.196 118.287 169.122C118.503 169.045 118.689 168.932 118.845 168.781C119.001 168.628 119.122 168.437 119.207 168.21L120.179 168.483C120.077 168.812 119.905 169.102 119.663 169.352C119.422 169.599 119.124 169.793 118.768 169.932C118.413 170.068 118.014 170.136 117.571 170.136ZM121.811 170V163.455H122.783V164.443H122.851C122.97 164.119 123.186 163.857 123.499 163.655C123.811 163.453 124.163 163.352 124.555 163.352C124.629 163.352 124.722 163.354 124.832 163.357C124.943 163.359 125.027 163.364 125.084 163.369V164.392C125.05 164.384 124.972 164.371 124.849 164.354C124.73 164.334 124.604 164.324 124.47 164.324C124.152 164.324 123.868 164.391 123.618 164.524C123.371 164.655 123.175 164.837 123.03 165.07C122.888 165.3 122.817 165.562 122.817 165.858V170H121.811ZM132.566 163.455V164.307H129.037V163.455H132.566ZM130.094 170V162.551C130.094 162.176 130.182 161.864 130.358 161.614C130.534 161.364 130.763 161.176 131.044 161.051C131.326 160.926 131.623 160.864 131.935 160.864C132.182 160.864 132.384 160.884 132.54 160.923C132.696 160.963 132.813 161 132.89 161.034L132.6 161.903C132.549 161.886 132.478 161.865 132.387 161.839C132.299 161.814 132.182 161.801 132.037 161.801C131.705 161.801 131.465 161.885 131.317 162.053C131.172 162.22 131.1 162.466 131.1 162.79V170H130.094ZM133.975 170V163.455H134.947V164.443H135.015C135.134 164.119 135.35 163.857 135.663 163.655C135.975 163.453 136.327 163.352 136.719 163.352C136.793 163.352 136.886 163.354 136.996 163.357C137.107 163.359 137.191 163.364 137.248 163.369V164.392C137.214 164.384 137.136 164.371 137.013 164.354C136.894 164.334 136.768 164.324 136.634 164.324C136.316 164.324 136.032 164.391 135.782 164.524C135.535 164.655 135.339 164.837 135.194 165.07C135.052 165.3 134.981 165.562 134.981 165.858V170H133.975ZM140.9 170.136C140.309 170.136 139.79 169.996 139.344 169.714C138.901 169.433 138.555 169.04 138.305 168.534C138.058 168.028 137.934 167.437 137.934 166.761C137.934 166.08 138.058 165.484 138.305 164.976C138.555 164.467 138.901 164.072 139.344 163.791C139.79 163.51 140.309 163.369 140.9 163.369C141.491 163.369 142.008 163.51 142.451 163.791C142.897 164.072 143.244 164.467 143.491 164.976C143.741 165.484 143.866 166.08 143.866 166.761C143.866 167.437 143.741 168.028 143.491 168.534C143.244 169.04 142.897 169.433 142.451 169.714C142.008 169.996 141.491 170.136 140.9 170.136ZM140.9 169.233C141.349 169.233 141.718 169.118 142.008 168.888C142.298 168.658 142.512 168.355 142.651 167.98C142.79 167.605 142.86 167.199 142.86 166.761C142.86 166.324 142.79 165.916 142.651 165.538C142.512 165.161 142.298 164.855 142.008 164.622C141.718 164.389 141.349 164.273 140.9 164.273C140.451 164.273 140.082 164.389 139.792 164.622C139.502 164.855 139.288 165.161 139.148 165.538C139.009 165.916 138.94 166.324 138.94 166.761C138.94 167.199 139.009 167.605 139.148 167.98C139.288 168.355 139.502 168.658 139.792 168.888C140.082 169.118 140.451 169.233 140.9 169.233ZM145.401 170V163.455H146.373V164.477H146.458C146.594 164.128 146.814 163.857 147.118 163.663C147.422 163.467 147.787 163.369 148.213 163.369C148.645 163.369 149.005 163.467 149.292 163.663C149.581 163.857 149.807 164.128 149.969 164.477H150.037C150.205 164.139 150.456 163.871 150.792 163.672C151.127 163.47 151.529 163.369 151.998 163.369C152.583 163.369 153.061 163.553 153.434 163.919C153.806 164.283 153.992 164.849 153.992 165.619V170H152.986V165.619C152.986 165.136 152.854 164.791 152.59 164.584C152.326 164.376 152.015 164.273 151.657 164.273C151.196 164.273 150.84 164.412 150.587 164.69C150.334 164.966 150.208 165.315 150.208 165.739V170H149.185V165.517C149.185 165.145 149.064 164.845 148.823 164.618C148.581 164.388 148.27 164.273 147.89 164.273C147.628 164.273 147.384 164.342 147.157 164.482C146.932 164.621 146.75 164.814 146.611 165.061C146.475 165.305 146.407 165.588 146.407 165.909V170H145.401Z" fill="#11111A" fill-opacity="0.48"/>
<path d="M67.1186 189V178.818H73.5021V180.141H68.6548V183.243H73.169V184.56H68.6548V187.678H73.5618V189H67.1186ZM78.6515 189.154C77.9123 189.154 77.276 188.987 76.7424 188.652C76.2121 188.314 75.8044 187.848 75.5194 187.255C75.2343 186.662 75.0918 185.982 75.0918 185.217C75.0918 184.441 75.2376 183.757 75.5293 183.163C75.821 182.567 76.2319 182.101 76.7623 181.766C77.2926 181.432 77.9173 181.264 78.6365 181.264C79.2166 181.264 79.7336 181.372 80.1877 181.587C80.6417 181.799 81.008 182.098 81.2864 182.482C81.5681 182.867 81.7355 183.316 81.7885 183.83H80.3418C80.2623 183.472 80.08 183.163 79.7949 182.905C79.5132 182.646 79.1354 182.517 78.6614 182.517C78.2471 182.517 77.8842 182.626 77.5726 182.845C77.2644 183.061 77.0241 183.369 76.8517 183.77C76.6794 184.168 76.5932 184.638 76.5932 185.182C76.5932 185.739 76.6777 186.219 76.8468 186.624C77.0158 187.028 77.2544 187.341 77.5627 187.563C77.8742 187.785 78.2405 187.896 78.6614 187.896C78.9431 187.896 79.1983 187.845 79.427 187.742C79.659 187.636 79.8529 187.485 80.0087 187.29C80.1678 187.094 80.2788 186.859 80.3418 186.584H81.7885C81.7355 187.078 81.5748 187.518 81.3063 187.906C81.0378 188.294 80.6782 188.599 80.2275 188.821C79.78 189.043 79.2547 189.154 78.6515 189.154ZM84.8647 184.466V189H83.3782V178.818H84.8448V182.607H84.9393C85.1183 182.196 85.3917 181.869 85.7596 181.627C86.1275 181.385 86.6081 181.264 87.2013 181.264C87.725 181.264 88.1824 181.372 88.5735 181.587C88.9679 181.803 89.2728 182.124 89.4883 182.552C89.707 182.976 89.8164 183.506 89.8164 184.143V189H88.3299V184.322C88.3299 183.762 88.1857 183.327 87.8974 183.019C87.609 182.708 87.208 182.552 86.6942 182.552C86.3429 182.552 86.0281 182.626 85.7496 182.776C85.4746 182.925 85.2575 183.143 85.0984 183.432C84.9426 183.717 84.8647 184.062 84.8647 184.466ZM95.0167 189.154C94.3008 189.154 93.676 188.99 93.1424 188.662C92.6088 188.334 92.1945 187.875 91.8995 187.285C91.6045 186.695 91.457 186.005 91.457 185.217C91.457 184.424 91.6045 183.732 91.8995 183.138C92.1945 182.545 92.6088 182.085 93.1424 181.756C93.676 181.428 94.3008 181.264 95.0167 181.264C95.7326 181.264 96.3574 181.428 96.891 181.756C97.4246 182.085 97.8389 182.545 98.1339 183.138C98.4289 183.732 98.5763 184.424 98.5763 185.217C98.5763 186.005 98.4289 186.695 98.1339 187.285C97.8389 187.875 97.4246 188.334 96.891 188.662C96.3574 188.99 95.7326 189.154 95.0167 189.154ZM95.0217 187.906C95.4857 187.906 95.8701 187.784 96.1751 187.538C96.48 187.293 96.7054 186.967 96.8512 186.559C97.0004 186.151 97.0749 185.702 97.0749 185.212C97.0749 184.724 97.0004 184.277 96.8512 183.869C96.7054 183.458 96.48 183.129 96.1751 182.88C95.8701 182.631 95.4857 182.507 95.0217 182.507C94.5543 182.507 94.1665 182.631 93.8583 182.88C93.5534 183.129 93.3263 183.458 93.1772 183.869C93.0314 184.277 92.9585 184.724 92.9585 185.212C92.9585 185.702 93.0314 186.151 93.1772 186.559C93.3263 186.967 93.5534 187.293 93.8583 187.538C94.1665 187.784 94.5543 187.906 95.0217 187.906ZM104.06 189V178.818H107.689C108.481 178.818 109.138 178.962 109.658 179.251C110.178 179.539 110.568 179.933 110.826 180.434C111.085 180.931 111.214 181.491 111.214 182.114C111.214 182.741 111.083 183.304 110.821 183.805C110.563 184.302 110.172 184.696 109.648 184.988C109.128 185.276 108.473 185.42 107.684 185.42H105.189V184.118H107.545C108.046 184.118 108.452 184.032 108.763 183.859C109.075 183.684 109.303 183.445 109.449 183.143C109.595 182.842 109.668 182.499 109.668 182.114C109.668 181.73 109.595 181.388 109.449 181.09C109.303 180.792 109.073 180.558 108.758 180.389C108.447 180.22 108.036 180.136 107.525 180.136H105.596V189H104.06ZM115.05 189.169C114.566 189.169 114.128 189.08 113.737 188.901C113.346 188.718 113.036 188.455 112.808 188.11C112.582 187.765 112.469 187.343 112.469 186.842C112.469 186.411 112.552 186.057 112.718 185.778C112.884 185.5 113.107 185.28 113.389 185.117C113.671 184.955 113.986 184.832 114.334 184.749C114.682 184.666 115.036 184.603 115.398 184.56C115.855 184.507 116.226 184.464 116.511 184.431C116.796 184.395 117.004 184.337 117.133 184.257C117.262 184.178 117.327 184.048 117.327 183.869V183.835C117.327 183.4 117.204 183.064 116.959 182.825C116.717 182.587 116.356 182.467 115.875 182.467C115.375 182.467 114.98 182.578 114.692 182.8C114.407 183.019 114.21 183.263 114.1 183.531L112.703 183.213C112.869 182.749 113.111 182.375 113.429 182.089C113.75 181.801 114.12 181.592 114.538 181.463C114.955 181.33 115.394 181.264 115.855 181.264C116.16 181.264 116.483 181.301 116.825 181.374C117.169 181.443 117.491 181.572 117.789 181.761C118.091 181.95 118.338 182.22 118.53 182.572C118.722 182.92 118.818 183.372 118.818 183.929V189H117.366V187.956H117.307C117.211 188.148 117.067 188.337 116.874 188.523C116.682 188.708 116.435 188.862 116.134 188.985C115.832 189.108 115.471 189.169 115.05 189.169ZM115.373 187.976C115.784 187.976 116.135 187.895 116.427 187.732C116.722 187.57 116.946 187.358 117.098 187.096C117.254 186.831 117.332 186.547 117.332 186.246V185.261C117.279 185.314 117.176 185.364 117.023 185.411C116.874 185.454 116.704 185.492 116.511 185.525C116.319 185.555 116.132 185.583 115.95 185.609C115.767 185.633 115.615 185.652 115.492 185.669C115.204 185.705 114.94 185.767 114.702 185.853C114.466 185.939 114.277 186.063 114.135 186.226C113.996 186.385 113.926 186.597 113.926 186.862C113.926 187.23 114.062 187.509 114.334 187.697C114.606 187.883 114.952 187.976 115.373 187.976ZM120.798 189V181.364H122.235V182.577H122.314C122.454 182.166 122.699 181.843 123.05 181.607C123.405 181.369 123.806 181.249 124.253 181.249C124.346 181.249 124.456 181.253 124.581 181.259C124.711 181.266 124.812 181.274 124.885 181.284V182.706C124.825 182.689 124.719 182.671 124.567 182.651C124.414 182.628 124.262 182.616 124.109 182.616C123.758 182.616 123.445 182.691 123.17 182.84C122.898 182.986 122.682 183.19 122.523 183.452C122.364 183.71 122.285 184.005 122.285 184.337V189H120.798ZM127.538 186.41L127.528 184.595H127.787L130.83 181.364H132.609L129.139 185.043H128.906L127.538 186.41ZM126.171 189V178.818H127.658V189H126.171ZM130.994 189L128.259 185.371L129.283 184.332L132.818 189H130.994ZM141.085 189H137.789V178.818H141.189C142.187 178.818 143.044 179.022 143.759 179.43C144.475 179.834 145.024 180.416 145.405 181.175C145.789 181.93 145.982 182.837 145.982 183.894C145.982 184.955 145.788 185.866 145.4 186.629C145.016 187.391 144.459 187.978 143.73 188.388C143 188.796 142.119 189 141.085 189ZM139.325 187.658H141C141.776 187.658 142.42 187.512 142.934 187.22C143.448 186.925 143.832 186.499 144.088 185.942C144.343 185.382 144.47 184.7 144.47 183.894C144.47 183.095 144.343 182.418 144.088 181.861C143.836 181.304 143.459 180.881 142.959 180.593C142.459 180.305 141.837 180.161 141.095 180.161H139.325V187.658ZM147.773 189V181.364H149.259V189H147.773ZM148.523 180.185C148.265 180.185 148.043 180.099 147.857 179.927C147.675 179.751 147.584 179.542 147.584 179.3C147.584 179.055 147.675 178.846 147.857 178.674C148.043 178.498 148.265 178.411 148.523 178.411C148.782 178.411 149.002 178.498 149.185 178.674C149.37 178.846 149.463 179.055 149.463 179.3C149.463 179.542 149.37 179.751 149.185 179.927C149.002 180.099 148.782 180.185 148.523 180.185ZM152.746 184.466V189H151.259V181.364H152.686V182.607H152.78C152.956 182.202 153.231 181.877 153.606 181.632C153.983 181.387 154.459 181.264 155.032 181.264C155.553 181.264 156.009 181.374 156.4 181.592C156.791 181.808 157.094 182.129 157.309 182.557C157.525 182.984 157.633 183.513 157.633 184.143V189H156.146V184.322C156.146 183.768 156.002 183.336 155.714 183.024C155.425 182.709 155.029 182.552 154.525 182.552C154.181 182.552 153.874 182.626 153.606 182.776C153.34 182.925 153.13 183.143 152.974 183.432C152.822 183.717 152.746 184.062 152.746 184.466ZM162.917 189.154C162.165 189.154 161.517 188.993 160.974 188.672C160.433 188.347 160.016 187.891 159.721 187.305C159.429 186.715 159.283 186.024 159.283 185.232C159.283 184.449 159.429 183.76 159.721 183.163C160.016 182.567 160.427 182.101 160.954 181.766C161.484 181.432 162.104 181.264 162.813 181.264C163.244 181.264 163.662 181.335 164.066 181.478C164.47 181.621 164.833 181.844 165.155 182.149C165.476 182.454 165.73 182.85 165.915 183.337C166.101 183.821 166.194 184.41 166.194 185.102V185.629H160.123V184.516H164.737C164.737 184.125 164.657 183.778 164.498 183.477C164.339 183.172 164.116 182.931 163.827 182.756C163.542 182.58 163.207 182.492 162.823 182.492C162.405 182.492 162.041 182.595 161.729 182.8C161.421 183.003 161.182 183.268 161.013 183.596C160.848 183.921 160.765 184.274 160.765 184.655V185.525C160.765 186.035 160.854 186.469 161.033 186.827C161.215 187.185 161.469 187.459 161.794 187.648C162.119 187.833 162.498 187.926 162.932 187.926C163.214 187.926 163.471 187.886 163.703 187.807C163.935 187.724 164.135 187.601 164.305 187.439C164.474 187.277 164.603 187.076 164.692 186.837L166.099 187.091C165.987 187.505 165.784 187.868 165.493 188.18C165.204 188.488 164.841 188.728 164.404 188.901C163.97 189.07 163.474 189.154 162.917 189.154ZM167.843 189V181.364H169.28V182.577H169.359C169.499 182.166 169.744 181.843 170.095 181.607C170.45 181.369 170.851 181.249 171.298 181.249C171.391 181.249 171.5 181.253 171.626 181.259C171.756 181.266 171.857 181.274 171.93 181.284V182.706C171.87 182.689 171.764 182.671 171.612 182.651C171.459 182.628 171.307 182.616 171.154 182.616C170.803 182.616 170.49 182.691 170.214 182.84C169.943 182.986 169.727 183.19 169.568 183.452C169.409 183.71 169.33 184.005 169.33 184.337V189H167.843Z" fill="#11111A"/>
<rect x="210" y="158" width="128" height="36" rx="18" fill="#11111A"/>
<rect x="218" y="164" width="24" height="24" rx="12" fill="white" fill-opacity="0.24"/>
<path d="M226.839 180V179.045L229.793 175.986C230.108 175.653 230.368 175.362 230.572 175.112C230.78 174.859 230.935 174.619 231.037 174.392C231.139 174.165 231.19 173.923 231.19 173.668C231.19 173.378 231.122 173.128 230.986 172.918C230.849 172.705 230.663 172.541 230.428 172.428C230.192 172.311 229.926 172.253 229.631 172.253C229.318 172.253 229.045 172.317 228.812 172.445C228.58 172.572 228.401 172.753 228.276 172.986C228.151 173.219 228.088 173.491 228.088 173.804H226.831C226.831 173.273 226.953 172.808 227.197 172.411C227.442 172.013 227.777 171.705 228.203 171.486C228.629 171.264 229.114 171.153 229.656 171.153C230.205 171.153 230.688 171.263 231.105 171.482C231.526 171.697 231.854 171.993 232.089 172.368C232.325 172.74 232.443 173.161 232.443 173.629C232.443 173.953 232.382 174.27 232.26 174.58C232.141 174.889 231.932 175.234 231.634 175.615C231.335 175.993 230.92 176.452 230.389 176.991L228.655 178.807V178.871H232.584V180H226.839Z" fill="white"/>
<path d="M255.722 171.273L258.151 178.381H258.249L260.678 171.273H262.101L258.96 180H257.439L254.298 171.273H255.722ZM263.259 180V173.455H264.533V180H263.259ZM263.902 172.445C263.681 172.445 263.49 172.371 263.331 172.223C263.175 172.072 263.097 171.893 263.097 171.686C263.097 171.476 263.175 171.297 263.331 171.149C263.49 170.999 263.681 170.923 263.902 170.923C264.124 170.923 264.313 170.999 264.469 171.149C264.628 171.297 264.708 171.476 264.708 171.686C264.708 171.893 264.628 172.072 264.469 172.223C264.313 172.371 264.124 172.445 263.902 172.445ZM269.068 180.132C268.423 180.132 267.868 179.994 267.402 179.719C266.939 179.44 266.581 179.05 266.328 178.547C266.078 178.041 265.953 177.449 265.953 176.77C265.953 176.099 266.078 175.509 266.328 174.997C266.581 174.486 266.933 174.087 267.385 173.8C267.839 173.513 268.371 173.369 268.979 173.369C269.348 173.369 269.706 173.43 270.053 173.553C270.399 173.675 270.71 173.866 270.986 174.128C271.261 174.389 271.479 174.729 271.638 175.146C271.797 175.561 271.876 176.065 271.876 176.659V177.111H266.673V176.156H270.628C270.628 175.821 270.56 175.524 270.423 175.266C270.287 175.004 270.095 174.798 269.848 174.648C269.604 174.497 269.317 174.422 268.987 174.422C268.629 174.422 268.317 174.51 268.05 174.686C267.786 174.859 267.581 175.087 267.436 175.368C267.294 175.646 267.223 175.949 267.223 176.276V177.021C267.223 177.459 267.3 177.831 267.453 178.138C267.609 178.445 267.827 178.679 268.105 178.841C268.384 179 268.709 179.08 269.081 179.08C269.322 179.08 269.543 179.045 269.741 178.977C269.94 178.906 270.112 178.801 270.257 178.662C270.402 178.523 270.513 178.351 270.589 178.146L271.795 178.364C271.699 178.719 271.526 179.03 271.276 179.297C271.028 179.561 270.717 179.767 270.342 179.915C269.97 180.06 269.545 180.132 269.068 180.132ZM274.697 180L272.771 173.455H274.088L275.371 178.261H275.435L276.722 173.455H278.038L279.317 178.24H279.381L280.655 173.455H281.972L280.05 180H278.75L277.42 175.274H277.322L275.993 180H274.697ZM294.04 175.636C294.04 176.568 293.869 177.369 293.528 178.04C293.188 178.707 292.72 179.222 292.126 179.582C291.536 179.94 290.864 180.119 290.111 180.119C289.355 180.119 288.68 179.94 288.087 179.582C287.496 179.222 287.03 178.706 286.689 178.036C286.348 177.365 286.178 176.565 286.178 175.636C286.178 174.705 286.348 173.905 286.689 173.237C287.03 172.567 287.496 172.053 288.087 171.695C288.68 171.334 289.355 171.153 290.111 171.153C290.864 171.153 291.536 171.334 292.126 171.695C292.72 172.053 293.188 172.567 293.528 173.237C293.869 173.905 294.04 174.705 294.04 175.636ZM292.736 175.636C292.736 174.926 292.621 174.328 292.391 173.842C292.163 173.354 291.851 172.984 291.453 172.734C291.058 172.482 290.611 172.355 290.111 172.355C289.608 172.355 289.159 172.482 288.764 172.734C288.369 172.984 288.057 173.354 287.827 173.842C287.599 174.328 287.486 174.926 287.486 175.636C287.486 176.347 287.599 176.946 287.827 177.435C288.057 177.92 288.369 178.29 288.764 178.543C289.159 178.793 289.608 178.918 290.111 178.918C290.611 178.918 291.058 178.793 291.453 178.543C291.851 178.29 292.163 177.92 292.391 177.435C292.621 176.946 292.736 176.347 292.736 175.636ZM295.579 180V173.455H296.811V174.494H296.879C296.998 174.142 297.208 173.865 297.51 173.663C297.814 173.459 298.157 173.357 298.541 173.357C298.62 173.357 298.714 173.359 298.822 173.365C298.933 173.371 299.02 173.378 299.082 173.386V174.605C299.031 174.591 298.94 174.575 298.809 174.558C298.679 174.538 298.548 174.528 298.417 174.528C298.116 174.528 297.848 174.592 297.612 174.72C297.379 174.845 297.194 175.02 297.058 175.244C296.922 175.466 296.853 175.719 296.853 176.003V180H295.579ZM302.401 180.128C301.872 180.128 301.401 179.993 300.986 179.723C300.574 179.45 300.25 179.062 300.014 178.56C299.781 178.054 299.665 177.447 299.665 176.74C299.665 176.033 299.783 175.428 300.018 174.925C300.257 174.422 300.584 174.037 300.999 173.77C301.413 173.503 301.884 173.369 302.409 173.369C302.815 173.369 303.142 173.438 303.389 173.574C303.639 173.707 303.832 173.864 303.969 174.043C304.108 174.222 304.216 174.379 304.293 174.516H304.369V171.273H305.643V180H304.399V178.982H304.293C304.216 179.121 304.105 179.28 303.96 179.459C303.818 179.638 303.622 179.794 303.372 179.928C303.122 180.061 302.798 180.128 302.401 180.128ZM302.682 179.041C303.048 179.041 303.358 178.945 303.611 178.751C303.866 178.555 304.06 178.284 304.19 177.938C304.324 177.591 304.391 177.187 304.391 176.727C304.391 176.273 304.325 175.875 304.195 175.534C304.064 175.193 303.872 174.928 303.619 174.737C303.366 174.547 303.054 174.452 302.682 174.452C302.298 174.452 301.979 174.551 301.723 174.75C301.467 174.949 301.274 175.22 301.143 175.564C301.016 175.908 300.952 176.295 300.952 176.727C300.952 177.165 301.017 177.558 301.148 177.908C301.278 178.257 301.472 178.534 301.727 178.739C301.986 178.94 302.304 179.041 302.682 179.041ZM310.283 180.132C309.638 180.132 309.083 179.994 308.617 179.719C308.154 179.44 307.796 179.05 307.543 178.547C307.293 178.041 307.168 177.449 307.168 176.77C307.168 176.099 307.293 175.509 307.543 174.997C307.796 174.486 308.148 174.087 308.6 173.8C309.054 173.513 309.586 173.369 310.194 173.369C310.563 173.369 310.921 173.43 311.267 173.553C311.614 173.675 311.925 173.866 312.201 174.128C312.476 174.389 312.694 174.729 312.853 175.146C313.012 175.561 313.091 176.065 313.091 176.659V177.111H307.888V176.156H311.843C311.843 175.821 311.775 175.524 311.638 175.266C311.502 175.004 311.31 174.798 311.063 174.648C310.819 174.497 310.532 174.422 310.202 174.422C309.844 174.422 309.532 174.51 309.265 174.686C309 174.859 308.796 175.087 308.651 175.368C308.509 175.646 308.438 175.949 308.438 176.276V177.021C308.438 177.459 308.515 177.831 308.668 178.138C308.824 178.445 309.042 178.679 309.32 178.841C309.598 179 309.924 179.08 310.296 179.08C310.537 179.08 310.757 179.045 310.956 178.977C311.155 178.906 311.327 178.801 311.472 178.662C311.617 178.523 311.728 178.351 311.804 178.146L313.01 178.364C312.914 178.719 312.74 179.03 312.49 179.297C312.243 179.561 311.932 179.767 311.557 179.915C311.185 180.06 310.76 180.132 310.283 180.132ZM314.505 180V173.455H315.737V174.494H315.805C315.924 174.142 316.134 173.865 316.435 173.663C316.739 173.459 317.083 173.357 317.467 173.357C317.546 173.357 317.64 173.359 317.748 173.365C317.859 173.371 317.945 173.378 318.008 173.386V174.605C317.957 174.591 317.866 174.575 317.735 174.558C317.604 174.538 317.474 174.528 317.343 174.528C317.042 174.528 316.773 174.592 316.538 174.72C316.305 174.845 316.12 175.02 315.984 175.244C315.847 175.466 315.779 175.719 315.779 176.003V180H314.505Z" fill="white"/>
<rect x="43.5" y="135.5" width="317" height="81" rx="14.5" stroke="#388AEB" stroke-width="3"/>
</g>
<g filter="url(#filter1_d_88_1245)">
<rect x="42" y="238" width="320" height="180" rx="16" fill="white"/>
<path d="M66.3068 265.273H67.517L69.9375 269.347H70.0398L72.4602 265.273H73.6705L70.517 270.403V274H69.4602V270.403L66.3068 265.273ZM76.6342 274.136C76.0433 274.136 75.5249 273.996 75.0788 273.714C74.6357 273.433 74.2891 273.04 74.0391 272.534C73.7919 272.028 73.6683 271.437 73.6683 270.761C73.6683 270.08 73.7919 269.484 74.0391 268.976C74.2891 268.467 74.6357 268.072 75.0788 267.791C75.5249 267.51 76.0433 267.369 76.6342 267.369C77.2251 267.369 77.7422 267.51 78.1854 267.791C78.6314 268.072 78.978 268.467 79.2251 268.976C79.4751 269.484 79.6001 270.08 79.6001 270.761C79.6001 271.437 79.4751 272.028 79.2251 272.534C78.978 273.04 78.6314 273.433 78.1854 273.714C77.7422 273.996 77.2251 274.136 76.6342 274.136ZM76.6342 273.233C77.0831 273.233 77.4524 273.118 77.7422 272.888C78.032 272.658 78.2464 272.355 78.3857 271.98C78.5249 271.605 78.5945 271.199 78.5945 270.761C78.5945 270.324 78.5249 269.916 78.3857 269.538C78.2464 269.161 78.032 268.855 77.7422 268.622C77.4524 268.389 77.0831 268.273 76.6342 268.273C76.1854 268.273 75.8161 268.389 75.5263 268.622C75.2365 268.855 75.022 269.161 74.8828 269.538C74.7436 269.916 74.674 270.324 74.674 270.761C74.674 271.199 74.7436 271.605 74.8828 271.98C75.022 272.355 75.2365 272.658 75.5263 272.888C75.8161 273.118 76.1854 273.233 76.6342 273.233ZM85.2603 271.324V267.455H86.266V274H85.2603V272.892H85.1921C85.0387 273.224 84.8001 273.507 84.4762 273.74C84.1523 273.97 83.7433 274.085 83.2489 274.085C82.8398 274.085 82.4762 273.996 82.158 273.817C81.8398 273.635 81.5898 273.362 81.408 272.999C81.2262 272.632 81.1353 272.17 81.1353 271.614V267.455H82.141V271.545C82.141 272.023 82.2745 272.403 82.5415 272.688C82.8114 272.972 83.1552 273.114 83.5728 273.114C83.8228 273.114 84.0771 273.05 84.3356 272.922C84.5969 272.794 84.8157 272.598 84.9918 272.334C85.1708 272.07 85.2603 271.733 85.2603 271.324ZM88.108 274V267.455H89.0795V268.443H89.1477C89.267 268.119 89.483 267.857 89.7955 267.655C90.108 267.453 90.4602 267.352 90.8523 267.352C90.9261 267.352 91.0185 267.354 91.1293 267.357C91.2401 267.359 91.3239 267.364 91.3807 267.369V268.392C91.3466 268.384 91.2685 268.371 91.1463 268.354C91.027 268.334 90.9006 268.324 90.767 268.324C90.4489 268.324 90.1648 268.391 89.9148 268.524C89.6676 268.655 89.4716 268.837 89.3267 269.07C89.1847 269.3 89.1136 269.562 89.1136 269.858V274H88.108ZM98.6069 274.136C98.016 274.136 97.4975 273.996 97.0515 273.714C96.6083 273.433 96.2617 273.04 96.0117 272.534C95.7646 272.028 95.641 271.437 95.641 270.761C95.641 270.08 95.7646 269.484 96.0117 268.976C96.2617 268.467 96.6083 268.072 97.0515 267.791C97.4975 267.51 98.016 267.369 98.6069 267.369C99.1978 267.369 99.7148 267.51 100.158 267.791C100.604 268.072 100.951 268.467 101.198 268.976C101.448 269.484 101.573 270.08 101.573 270.761C101.573 271.437 101.448 272.028 101.198 272.534C100.951 273.04 100.604 273.433 100.158 273.714C99.7148 273.996 99.1978 274.136 98.6069 274.136ZM98.6069 273.233C99.0558 273.233 99.4251 273.118 99.7148 272.888C100.005 272.658 100.219 272.355 100.358 271.98C100.498 271.605 100.567 271.199 100.567 270.761C100.567 270.324 100.498 269.916 100.358 269.538C100.219 269.161 100.005 268.855 99.7148 268.622C99.4251 268.389 99.0558 268.273 98.6069 268.273C98.158 268.273 97.7887 268.389 97.4989 268.622C97.2092 268.855 96.9947 269.161 96.8555 269.538C96.7163 269.916 96.6467 270.324 96.6467 270.761C96.6467 271.199 96.7163 271.605 96.8555 271.98C96.9947 272.355 97.2092 272.658 97.4989 272.888C97.7887 273.118 98.158 273.233 98.6069 273.233ZM103.108 274V267.455H104.08V268.443H104.148C104.267 268.119 104.483 267.857 104.795 267.655C105.108 267.453 105.46 267.352 105.852 267.352C105.926 267.352 106.018 267.354 106.129 267.357C106.24 267.359 106.324 267.364 106.381 267.369V268.392C106.347 268.384 106.268 268.371 106.146 268.354C106.027 268.334 105.901 268.324 105.767 268.324C105.449 268.324 105.165 268.391 104.915 268.524C104.668 268.655 104.472 268.837 104.327 269.07C104.185 269.3 104.114 269.562 104.114 269.858V274H103.108ZM109.845 274.136C109.3 274.136 108.818 273.999 108.401 273.723C107.983 273.445 107.656 273.053 107.42 272.547C107.185 272.038 107.067 271.438 107.067 270.744C107.067 270.057 107.185 269.46 107.42 268.955C107.656 268.449 107.984 268.058 108.405 267.783C108.825 267.507 109.311 267.369 109.862 267.369C110.288 267.369 110.625 267.44 110.872 267.582C111.122 267.722 111.313 267.881 111.443 268.06C111.577 268.236 111.68 268.381 111.754 268.494H111.839V265.273H112.845V274H111.874V272.994H111.754C111.68 273.114 111.575 273.264 111.439 273.446C111.303 273.625 111.108 273.786 110.855 273.928C110.602 274.067 110.266 274.136 109.845 274.136ZM109.982 273.233C110.385 273.233 110.726 273.128 111.004 272.918C111.283 272.705 111.494 272.411 111.639 272.036C111.784 271.658 111.857 271.222 111.857 270.727C111.857 270.239 111.786 269.811 111.643 269.445C111.501 269.075 111.291 268.788 111.013 268.584C110.734 268.376 110.391 268.273 109.982 268.273C109.555 268.273 109.2 268.382 108.916 268.601C108.635 268.817 108.423 269.111 108.281 269.483C108.142 269.852 108.072 270.267 108.072 270.727C108.072 271.193 108.143 271.616 108.286 271.997C108.43 272.375 108.643 272.676 108.925 272.901C109.209 273.122 109.561 273.233 109.982 273.233ZM117.571 274.136C116.94 274.136 116.396 273.997 115.939 273.719C115.484 273.438 115.134 273.045 114.886 272.543C114.642 272.037 114.52 271.449 114.52 270.778C114.52 270.108 114.642 269.517 114.886 269.006C115.134 268.491 115.477 268.091 115.918 267.804C116.361 267.514 116.878 267.369 117.469 267.369C117.81 267.369 118.146 267.426 118.479 267.54C118.811 267.653 119.114 267.838 119.386 268.094C119.659 268.347 119.876 268.682 120.038 269.099C120.2 269.517 120.281 270.031 120.281 270.642V271.068H115.236V270.199H119.259C119.259 269.83 119.185 269.5 119.037 269.21C118.892 268.92 118.685 268.692 118.415 268.524C118.148 268.357 117.832 268.273 117.469 268.273C117.068 268.273 116.722 268.372 116.429 268.571C116.139 268.767 115.916 269.023 115.76 269.338C115.604 269.653 115.526 269.991 115.526 270.352V270.932C115.526 271.426 115.611 271.845 115.781 272.189C115.955 272.53 116.195 272.79 116.501 272.969C116.808 273.145 117.165 273.233 117.571 273.233C117.835 273.233 118.074 273.196 118.287 273.122C118.503 273.045 118.689 272.932 118.845 272.781C119.001 272.628 119.122 272.437 119.207 272.21L120.179 272.483C120.077 272.812 119.905 273.102 119.663 273.352C119.422 273.599 119.124 273.793 118.768 273.932C118.413 274.068 118.014 274.136 117.571 274.136ZM121.811 274V267.455H122.783V268.443H122.851C122.97 268.119 123.186 267.857 123.499 267.655C123.811 267.453 124.163 267.352 124.555 267.352C124.629 267.352 124.722 267.354 124.832 267.357C124.943 267.359 125.027 267.364 125.084 267.369V268.392C125.05 268.384 124.972 268.371 124.849 268.354C124.73 268.334 124.604 268.324 124.47 268.324C124.152 268.324 123.868 268.391 123.618 268.524C123.371 268.655 123.175 268.837 123.03 269.07C122.888 269.3 122.817 269.562 122.817 269.858V274H121.811ZM132.566 267.455V268.307H129.037V267.455H132.566ZM130.094 274V266.551C130.094 266.176 130.182 265.864 130.358 265.614C130.534 265.364 130.763 265.176 131.044 265.051C131.326 264.926 131.623 264.864 131.935 264.864C132.182 264.864 132.384 264.884 132.54 264.923C132.696 264.963 132.813 265 132.89 265.034L132.6 265.903C132.549 265.886 132.478 265.865 132.387 265.839C132.299 265.814 132.182 265.801 132.037 265.801C131.705 265.801 131.465 265.885 131.317 266.053C131.172 266.22 131.1 266.466 131.1 266.79V274H130.094ZM133.975 274V267.455H134.947V268.443H135.015C135.134 268.119 135.35 267.857 135.663 267.655C135.975 267.453 136.327 267.352 136.719 267.352C136.793 267.352 136.886 267.354 136.996 267.357C137.107 267.359 137.191 267.364 137.248 267.369V268.392C137.214 268.384 137.136 268.371 137.013 268.354C136.894 268.334 136.768 268.324 136.634 268.324C136.316 268.324 136.032 268.391 135.782 268.524C135.535 268.655 135.339 268.837 135.194 269.07C135.052 269.3 134.981 269.562 134.981 269.858V274H133.975ZM140.9 274.136C140.309 274.136 139.79 273.996 139.344 273.714C138.901 273.433 138.555 273.04 138.305 272.534C138.058 272.028 137.934 271.437 137.934 270.761C137.934 270.08 138.058 269.484 138.305 268.976C138.555 268.467 138.901 268.072 139.344 267.791C139.79 267.51 140.309 267.369 140.9 267.369C141.491 267.369 142.008 267.51 142.451 267.791C142.897 268.072 143.244 268.467 143.491 268.976C143.741 269.484 143.866 270.08 143.866 270.761C143.866 271.437 143.741 272.028 143.491 272.534C143.244 273.04 142.897 273.433 142.451 273.714C142.008 273.996 141.491 274.136 140.9 274.136ZM140.9 273.233C141.349 273.233 141.718 273.118 142.008 272.888C142.298 272.658 142.512 272.355 142.651 271.98C142.79 271.605 142.86 271.199 142.86 270.761C142.86 270.324 142.79 269.916 142.651 269.538C142.512 269.161 142.298 268.855 142.008 268.622C141.718 268.389 141.349 268.273 140.9 268.273C140.451 268.273 140.082 268.389 139.792 268.622C139.502 268.855 139.288 269.161 139.148 269.538C139.009 269.916 138.94 270.324 138.94 270.761C138.94 271.199 139.009 271.605 139.148 271.98C139.288 272.355 139.502 272.658 139.792 272.888C140.082 273.118 140.451 273.233 140.9 273.233ZM145.401 274V267.455H146.373V268.477H146.458C146.594 268.128 146.814 267.857 147.118 267.663C147.422 267.467 147.787 267.369 148.213 267.369C148.645 267.369 149.005 267.467 149.292 267.663C149.581 267.857 149.807 268.128 149.969 268.477H150.037C150.205 268.139 150.456 267.871 150.792 267.672C151.127 267.47 151.529 267.369 151.998 267.369C152.583 267.369 153.061 267.553 153.434 267.919C153.806 268.283 153.992 268.849 153.992 269.619V274H152.986V269.619C152.986 269.136 152.854 268.791 152.59 268.584C152.326 268.376 152.015 268.273 151.657 268.273C151.196 268.273 150.84 268.412 150.587 268.69C150.334 268.966 150.208 269.315 150.208 269.739V274H149.185V269.517C149.185 269.145 149.064 268.845 148.823 268.618C148.581 268.388 148.27 268.273 147.89 268.273C147.628 268.273 147.384 268.342 147.157 268.482C146.932 268.621 146.75 268.814 146.611 269.061C146.475 269.305 146.407 269.588 146.407 269.909V274H145.401Z" fill="#11111A" fill-opacity="0.48"/>
<path d="M67.1186 293V282.818H73.5021V284.141H68.6548V287.243H73.169V288.56H68.6548V291.678H73.5618V293H67.1186ZM78.6515 293.154C77.9123 293.154 77.276 292.987 76.7424 292.652C76.2121 292.314 75.8044 291.848 75.5194 291.255C75.2343 290.662 75.0918 289.982 75.0918 289.217C75.0918 288.441 75.2376 287.757 75.5293 287.163C75.821 286.567 76.2319 286.101 76.7623 285.766C77.2926 285.432 77.9173 285.264 78.6365 285.264C79.2166 285.264 79.7336 285.372 80.1877 285.587C80.6417 285.799 81.008 286.098 81.2864 286.482C81.5681 286.867 81.7355 287.316 81.7885 287.83H80.3418C80.2623 287.472 80.08 287.163 79.7949 286.905C79.5132 286.646 79.1354 286.517 78.6614 286.517C78.2471 286.517 77.8842 286.626 77.5726 286.845C77.2644 287.061 77.0241 287.369 76.8517 287.77C76.6794 288.168 76.5932 288.638 76.5932 289.182C76.5932 289.739 76.6777 290.219 76.8468 290.624C77.0158 291.028 77.2544 291.341 77.5627 291.563C77.8742 291.785 78.2405 291.896 78.6614 291.896C78.9431 291.896 79.1983 291.845 79.427 291.742C79.659 291.636 79.8529 291.485 80.0087 291.29C80.1678 291.094 80.2788 290.859 80.3418 290.584H81.7885C81.7355 291.078 81.5748 291.518 81.3063 291.906C81.0378 292.294 80.6782 292.599 80.2275 292.821C79.78 293.043 79.2547 293.154 78.6515 293.154ZM84.8647 288.466V293H83.3782V282.818H84.8448V286.607H84.9393C85.1183 286.196 85.3917 285.869 85.7596 285.627C86.1275 285.385 86.6081 285.264 87.2013 285.264C87.725 285.264 88.1824 285.372 88.5735 285.587C88.9679 285.803 89.2728 286.124 89.4883 286.552C89.707 286.976 89.8164 287.506 89.8164 288.143V293H88.3299V288.322C88.3299 287.762 88.1857 287.327 87.8974 287.019C87.609 286.708 87.208 286.552 86.6942 286.552C86.3429 286.552 86.0281 286.626 85.7496 286.776C85.4746 286.925 85.2575 287.143 85.0984 287.432C84.9426 287.717 84.8647 288.062 84.8647 288.466ZM95.0167 293.154C94.3008 293.154 93.676 292.99 93.1424 292.662C92.6088 292.334 92.1945 291.875 91.8995 291.285C91.6045 290.695 91.457 290.005 91.457 289.217C91.457 288.424 91.6045 287.732 91.8995 287.138C92.1945 286.545 92.6088 286.085 93.1424 285.756C93.676 285.428 94.3008 285.264 95.0167 285.264C95.7326 285.264 96.3574 285.428 96.891 285.756C97.4246 286.085 97.8389 286.545 98.1339 287.138C98.4289 287.732 98.5763 288.424 98.5763 289.217C98.5763 290.005 98.4289 290.695 98.1339 291.285C97.8389 291.875 97.4246 292.334 96.891 292.662C96.3574 292.99 95.7326 293.154 95.0167 293.154ZM95.0217 291.906C95.4857 291.906 95.8701 291.784 96.1751 291.538C96.48 291.293 96.7054 290.967 96.8512 290.559C97.0004 290.151 97.0749 289.702 97.0749 289.212C97.0749 288.724 97.0004 288.277 96.8512 287.869C96.7054 287.458 96.48 287.129 96.1751 286.88C95.8701 286.631 95.4857 286.507 95.0217 286.507C94.5543 286.507 94.1665 286.631 93.8583 286.88C93.5534 287.129 93.3263 287.458 93.1772 287.869C93.0314 288.277 92.9585 288.724 92.9585 289.212C92.9585 289.702 93.0314 290.151 93.1772 290.559C93.3263 290.967 93.5534 291.293 93.8583 291.538C94.1665 291.784 94.5543 291.906 95.0217 291.906ZM104.06 293V282.818H107.689C108.481 282.818 109.138 282.962 109.658 283.251C110.178 283.539 110.568 283.933 110.826 284.434C111.085 284.931 111.214 285.491 111.214 286.114C111.214 286.741 111.083 287.304 110.821 287.805C110.563 288.302 110.172 288.696 109.648 288.988C109.128 289.276 108.473 289.42 107.684 289.42H105.189V288.118H107.545C108.046 288.118 108.452 288.032 108.763 287.859C109.075 287.684 109.303 287.445 109.449 287.143C109.595 286.842 109.668 286.499 109.668 286.114C109.668 285.73 109.595 285.388 109.449 285.09C109.303 284.792 109.073 284.558 108.758 284.389C108.447 284.22 108.036 284.136 107.525 284.136H105.596V293H104.06ZM115.05 293.169C114.566 293.169 114.128 293.08 113.737 292.901C113.346 292.718 113.036 292.455 112.808 292.11C112.582 291.765 112.469 291.343 112.469 290.842C112.469 290.411 112.552 290.057 112.718 289.778C112.884 289.5 113.107 289.28 113.389 289.117C113.671 288.955 113.986 288.832 114.334 288.749C114.682 288.666 115.036 288.603 115.398 288.56C115.855 288.507 116.226 288.464 116.511 288.431C116.796 288.395 117.004 288.337 117.133 288.257C117.262 288.178 117.327 288.048 117.327 287.869V287.835C117.327 287.4 117.204 287.064 116.959 286.825C116.717 286.587 116.356 286.467 115.875 286.467C115.375 286.467 114.98 286.578 114.692 286.8C114.407 287.019 114.21 287.263 114.1 287.531L112.703 287.213C112.869 286.749 113.111 286.375 113.429 286.089C113.75 285.801 114.12 285.592 114.538 285.463C114.955 285.33 115.394 285.264 115.855 285.264C116.16 285.264 116.483 285.301 116.825 285.374C117.169 285.443 117.491 285.572 117.789 285.761C118.091 285.95 118.338 286.22 118.53 286.572C118.722 286.92 118.818 287.372 118.818 287.929V293H117.366V291.956H117.307C117.211 292.148 117.067 292.337 116.874 292.523C116.682 292.708 116.435 292.862 116.134 292.985C115.832 293.108 115.471 293.169 115.05 293.169ZM115.373 291.976C115.784 291.976 116.135 291.895 116.427 291.732C116.722 291.57 116.946 291.358 117.098 291.096C117.254 290.831 117.332 290.547 117.332 290.246V289.261C117.279 289.314 117.176 289.364 117.023 289.411C116.874 289.454 116.704 289.492 116.511 289.525C116.319 289.555 116.132 289.583 115.95 289.609C115.767 289.633 115.615 289.652 115.492 289.669C115.204 289.705 114.94 289.767 114.702 289.853C114.466 289.939 114.277 290.063 114.135 290.226C113.996 290.385 113.926 290.597 113.926 290.862C113.926 291.23 114.062 291.509 114.334 291.697C114.606 291.883 114.952 291.976 115.373 291.976ZM120.798 293V285.364H122.235V286.577H122.314C122.454 286.166 122.699 285.843 123.05 285.607C123.405 285.369 123.806 285.249 124.253 285.249C124.346 285.249 124.456 285.253 124.581 285.259C124.711 285.266 124.812 285.274 124.885 285.284V286.706C124.825 286.689 124.719 286.671 124.567 286.651C124.414 286.628 124.262 286.616 124.109 286.616C123.758 286.616 123.445 286.691 123.17 286.84C122.898 286.986 122.682 287.19 122.523 287.452C122.364 287.71 122.285 288.005 122.285 288.337V293H120.798ZM127.538 290.41L127.528 288.595H127.787L130.83 285.364H132.609L129.139 289.043H128.906L127.538 290.41ZM126.171 293V282.818H127.658V293H126.171ZM130.994 293L128.259 289.371L129.283 288.332L132.818 293H130.994ZM141.085 293H137.789V282.818H141.189C142.187 282.818 143.044 283.022 143.759 283.43C144.475 283.834 145.024 284.416 145.405 285.175C145.789 285.93 145.982 286.837 145.982 287.894C145.982 288.955 145.788 289.866 145.4 290.629C145.016 291.391 144.459 291.978 143.73 292.388C143 292.796 142.119 293 141.085 293ZM139.325 291.658H141C141.776 291.658 142.42 291.512 142.934 291.22C143.448 290.925 143.832 290.499 144.088 289.942C144.343 289.382 144.47 288.7 144.47 287.894C144.47 287.095 144.343 286.418 144.088 285.861C143.836 285.304 143.459 284.881 142.959 284.593C142.459 284.305 141.837 284.161 141.095 284.161H139.325V291.658ZM147.773 293V285.364H149.259V293H147.773ZM148.523 284.185C148.265 284.185 148.043 284.099 147.857 283.927C147.675 283.751 147.584 283.542 147.584 283.3C147.584 283.055 147.675 282.846 147.857 282.674C148.043 282.498 148.265 282.411 148.523 282.411C148.782 282.411 149.002 282.498 149.185 282.674C149.37 282.846 149.463 283.055 149.463 283.3C149.463 283.542 149.37 283.751 149.185 283.927C149.002 284.099 148.782 284.185 148.523 284.185ZM152.746 288.466V293H151.259V285.364H152.686V286.607H152.78C152.956 286.202 153.231 285.877 153.606 285.632C153.983 285.387 154.459 285.264 155.032 285.264C155.553 285.264 156.009 285.374 156.4 285.592C156.791 285.808 157.094 286.129 157.309 286.557C157.525 286.984 157.633 287.513 157.633 288.143V293H156.146V288.322C156.146 287.768 156.002 287.336 155.714 287.024C155.425 286.709 155.029 286.552 154.525 286.552C154.181 286.552 153.874 286.626 153.606 286.776C153.34 286.925 153.13 287.143 152.974 287.432C152.822 287.717 152.746 288.062 152.746 288.466ZM162.917 293.154C162.165 293.154 161.517 292.993 160.974 292.672C160.433 292.347 160.016 291.891 159.721 291.305C159.429 290.715 159.283 290.024 159.283 289.232C159.283 288.449 159.429 287.76 159.721 287.163C160.016 286.567 160.427 286.101 160.954 285.766C161.484 285.432 162.104 285.264 162.813 285.264C163.244 285.264 163.662 285.335 164.066 285.478C164.47 285.621 164.833 285.844 165.155 286.149C165.476 286.454 165.73 286.85 165.915 287.337C166.101 287.821 166.194 288.41 166.194 289.102V289.629H160.123V288.516H164.737C164.737 288.125 164.657 287.778 164.498 287.477C164.339 287.172 164.116 286.931 163.827 286.756C163.542 286.58 163.207 286.492 162.823 286.492C162.405 286.492 162.041 286.595 161.729 286.8C161.421 287.003 161.182 287.268 161.013 287.596C160.848 287.921 160.765 288.274 160.765 288.655V289.525C160.765 290.035 160.854 290.469 161.033 290.827C161.215 291.185 161.469 291.459 161.794 291.648C162.119 291.833 162.498 291.926 162.932 291.926C163.214 291.926 163.471 291.886 163.703 291.807C163.935 291.724 164.135 291.601 164.305 291.439C164.474 291.277 164.603 291.076 164.692 290.837L166.099 291.091C165.987 291.505 165.784 291.868 165.493 292.18C165.204 292.488 164.841 292.728 164.404 292.901C163.97 293.07 163.474 293.154 162.917 293.154ZM167.843 293V285.364H169.28V286.577H169.359C169.499 286.166 169.744 285.843 170.095 285.607C170.45 285.369 170.851 285.249 171.298 285.249C171.391 285.249 171.5 285.253 171.626 285.259C171.756 285.266 171.857 285.274 171.93 285.284V286.706C171.87 286.689 171.764 286.671 171.612 286.651C171.459 286.628 171.307 286.616 171.154 286.616C170.803 286.616 170.49 286.691 170.214 286.84C169.943 286.986 169.727 287.19 169.568 287.452C169.409 287.71 169.33 288.005 169.33 288.337V293H167.843Z" fill="#11111A"/>
<path d="M294.121 294.273V281.545H294.937V294.273H294.121ZM296.672 285.493C296.619 285.022 296.4 284.658 296.016 284.399C295.631 284.137 295.147 284.006 294.564 284.006C294.146 284.006 293.785 284.073 293.48 284.205C293.175 284.335 292.938 284.513 292.769 284.742C292.603 284.968 292.521 285.224 292.521 285.513C292.521 285.755 292.577 285.964 292.69 286.139C292.806 286.315 292.956 286.462 293.142 286.582C293.331 286.698 293.533 286.795 293.749 286.875C293.964 286.951 294.171 287.014 294.37 287.064L295.364 287.322C295.689 287.402 296.022 287.51 296.364 287.646C296.705 287.781 297.022 287.96 297.313 288.183C297.605 288.405 297.84 288.68 298.019 289.008C298.201 289.336 298.293 289.729 298.293 290.186C298.293 290.763 298.143 291.275 297.845 291.722C297.55 292.17 297.121 292.523 296.558 292.781C295.997 293.04 295.32 293.169 294.524 293.169C293.762 293.169 293.102 293.048 292.545 292.806C291.989 292.564 291.553 292.221 291.238 291.777C290.923 291.33 290.749 290.799 290.716 290.186H292.257C292.287 290.554 292.406 290.861 292.615 291.106C292.827 291.348 293.097 291.528 293.425 291.648C293.757 291.764 294.12 291.822 294.514 291.822C294.948 291.822 295.335 291.754 295.673 291.618C296.014 291.479 296.282 291.286 296.478 291.041C296.674 290.793 296.771 290.503 296.771 290.171C296.771 289.87 296.685 289.623 296.513 289.43C296.344 289.238 296.113 289.079 295.822 288.953C295.533 288.827 295.207 288.716 294.842 288.62L293.639 288.292C292.824 288.07 292.178 287.743 291.7 287.312C291.226 286.882 290.989 286.312 290.989 285.602C290.989 285.016 291.148 284.504 291.467 284.066C291.785 283.629 292.216 283.289 292.759 283.047C293.303 282.802 293.916 282.679 294.599 282.679C295.288 282.679 295.896 282.8 296.423 283.042C296.954 283.284 297.371 283.617 297.676 284.041C297.981 284.462 298.14 284.946 298.153 285.493H296.672ZM299.989 293V291.886L303.434 288.317C303.802 287.929 304.106 287.589 304.344 287.298C304.586 287.003 304.767 286.723 304.886 286.457C305.006 286.192 305.065 285.911 305.065 285.612C305.065 285.274 304.986 284.982 304.827 284.737C304.667 284.489 304.45 284.298 304.175 284.165C303.9 284.03 303.59 283.962 303.246 283.962C302.881 283.962 302.563 284.036 302.291 284.185C302.019 284.335 301.81 284.545 301.665 284.817C301.519 285.089 301.446 285.407 301.446 285.771H299.979C299.979 285.152 300.122 284.61 300.407 284.146C300.692 283.682 301.083 283.322 301.58 283.067C302.077 282.808 302.642 282.679 303.275 282.679C303.915 282.679 304.479 282.807 304.966 283.062C305.456 283.314 305.839 283.658 306.114 284.096C306.389 284.53 306.527 285.021 306.527 285.567C306.527 285.945 306.456 286.315 306.313 286.676C306.174 287.037 305.93 287.44 305.582 287.884C305.234 288.325 304.75 288.86 304.131 289.49L302.107 291.608V291.683H306.691V293H299.989ZM312.13 293.139C311.676 293.133 311.228 293.05 310.787 292.891C310.35 292.732 309.952 292.466 309.594 292.095C309.236 291.724 308.95 291.225 308.734 290.599C308.522 289.972 308.416 289.19 308.416 288.252C308.416 287.364 308.504 286.575 308.68 285.886C308.858 285.196 309.115 284.615 309.45 284.141C309.785 283.663 310.189 283.3 310.663 283.052C311.137 282.803 311.669 282.679 312.259 282.679C312.866 282.679 313.404 282.798 313.875 283.037C314.345 283.276 314.727 283.605 315.018 284.026C315.313 284.447 315.501 284.926 315.58 285.463H314.064C313.961 285.039 313.757 284.692 313.452 284.424C313.147 284.156 312.75 284.021 312.259 284.021C311.513 284.021 310.932 284.346 310.514 284.996C310.1 285.645 309.891 286.549 309.888 287.705H309.962C310.138 287.417 310.353 287.172 310.608 286.969C310.867 286.764 311.155 286.607 311.474 286.497C311.795 286.384 312.133 286.328 312.488 286.328C313.078 286.328 313.611 286.472 314.089 286.761C314.569 287.046 314.952 287.44 315.237 287.944C315.522 288.448 315.665 289.024 315.665 289.674C315.665 290.324 315.517 290.912 315.222 291.439C314.93 291.966 314.519 292.384 313.989 292.692C313.459 292.997 312.839 293.146 312.13 293.139ZM312.125 291.847C312.516 291.847 312.866 291.75 313.174 291.558C313.482 291.366 313.726 291.107 313.905 290.783C314.084 290.458 314.173 290.095 314.173 289.694C314.173 289.303 314.085 288.946 313.91 288.625C313.737 288.304 313.499 288.048 313.194 287.859C312.892 287.67 312.547 287.576 312.16 287.576C311.865 287.576 311.591 287.632 311.339 287.745C311.091 287.858 310.872 288.013 310.683 288.212C310.494 288.411 310.345 288.64 310.236 288.898C310.13 289.154 310.077 289.424 310.077 289.709C310.077 290.09 310.164 290.443 310.34 290.768C310.519 291.093 310.763 291.354 311.071 291.553C311.382 291.749 311.734 291.847 312.125 291.847ZM318.01 293.094C317.738 293.094 317.504 292.998 317.309 292.806C317.113 292.611 317.016 292.375 317.016 292.1C317.016 291.828 317.113 291.596 317.309 291.404C317.504 291.209 317.738 291.111 318.01 291.111C318.282 291.111 318.515 291.209 318.711 291.404C318.906 291.596 319.004 291.828 319.004 292.1C319.004 292.282 318.958 292.45 318.865 292.602C318.776 292.751 318.656 292.871 318.507 292.96C318.358 293.05 318.192 293.094 318.01 293.094ZM320.975 293V291.886L324.421 288.317C324.789 287.929 325.092 287.589 325.331 287.298C325.573 287.003 325.753 286.723 325.873 286.457C325.992 286.192 326.051 285.911 326.051 285.612C326.051 285.274 325.972 284.982 325.813 284.737C325.654 284.489 325.437 284.298 325.162 284.165C324.886 284.03 324.577 283.962 324.232 283.962C323.867 283.962 323.549 284.036 323.277 284.185C323.006 284.335 322.797 284.545 322.651 284.817C322.505 285.089 322.432 285.407 322.432 285.771H320.966C320.966 285.152 321.108 284.61 321.393 284.146C321.678 283.682 322.069 283.322 322.566 283.067C323.064 282.808 323.629 282.679 324.262 282.679C324.901 282.679 325.465 282.807 325.952 283.062C326.443 283.314 326.825 283.658 327.1 284.096C327.376 284.53 327.513 285.021 327.513 285.567C327.513 285.945 327.442 286.315 327.299 286.676C327.16 287.037 326.917 287.44 326.569 287.884C326.221 288.325 325.737 288.86 325.117 289.49L323.093 291.608V291.683H327.677V293H320.975ZM332.922 293.139C332.299 293.139 331.739 293.02 331.242 292.781C330.748 292.539 330.354 292.208 330.059 291.787C329.764 291.366 329.606 290.885 329.586 290.345H331.078C331.114 290.783 331.308 291.142 331.659 291.424C332.011 291.706 332.432 291.847 332.922 291.847C333.313 291.847 333.66 291.757 333.961 291.578C334.266 291.396 334.505 291.146 334.677 290.827C334.853 290.509 334.941 290.146 334.941 289.739C334.941 289.324 334.851 288.955 334.672 288.63C334.493 288.305 334.246 288.05 333.931 287.864C333.62 287.679 333.262 287.584 332.858 287.581C332.549 287.581 332.239 287.634 331.928 287.74C331.616 287.846 331.364 287.985 331.172 288.158L329.765 287.949L330.337 282.818H335.935V284.136H331.615L331.292 286.984H331.351C331.55 286.792 331.814 286.631 332.142 286.502C332.473 286.373 332.828 286.308 333.206 286.308C333.825 286.308 334.377 286.456 334.861 286.751C335.348 287.046 335.731 287.448 336.01 287.959C336.291 288.466 336.431 289.049 336.427 289.709C336.431 290.368 336.281 290.957 335.98 291.474C335.681 291.991 335.267 292.398 334.737 292.697C334.21 292.992 333.605 293.139 332.922 293.139Z" fill="#11111A"/>
<path d="M67.0568 330V321.273H68.1136V329.062H72.1705V330H67.0568ZM76.4148 330.136C75.7841 330.136 75.2401 329.997 74.7827 329.719C74.3281 329.438 73.9773 329.045 73.7301 328.543C73.4858 328.037 73.3636 327.449 73.3636 326.778C73.3636 326.108 73.4858 325.517 73.7301 325.006C73.9773 324.491 74.321 324.091 74.7614 323.804C75.2045 323.514 75.7216 323.369 76.3125 323.369C76.6534 323.369 76.9901 323.426 77.3224 323.54C77.6548 323.653 77.9574 323.838 78.2301 324.094C78.5028 324.347 78.7202 324.682 78.8821 325.099C79.044 325.517 79.125 326.031 79.125 326.642V327.068H74.0795V326.199H78.1023C78.1023 325.83 78.0284 325.5 77.8807 325.21C77.7358 324.92 77.5284 324.692 77.2585 324.524C76.9915 324.357 76.6761 324.273 76.3125 324.273C75.9119 324.273 75.5653 324.372 75.2727 324.571C74.983 324.767 74.7599 325.023 74.6037 325.338C74.4474 325.653 74.3693 325.991 74.3693 326.352V326.932C74.3693 327.426 74.4545 327.845 74.625 328.189C74.7983 328.53 75.0384 328.79 75.3452 328.969C75.652 329.145 76.0085 329.233 76.4148 329.233C76.679 329.233 76.9176 329.196 77.1307 329.122C77.3466 329.045 77.5327 328.932 77.6889 328.781C77.8452 328.628 77.9659 328.437 78.0511 328.21L79.0227 328.483C78.9205 328.812 78.7486 329.102 78.5071 329.352C78.2656 329.599 77.9673 329.793 77.6122 329.932C77.2571 330.068 76.858 330.136 76.4148 330.136ZM82.581 330.153C82.1662 330.153 81.7898 330.075 81.4517 329.919C81.1136 329.76 80.8452 329.531 80.6463 329.233C80.4474 328.932 80.348 328.568 80.348 328.142C80.348 327.767 80.4219 327.463 80.5696 327.23C80.7173 326.994 80.9148 326.81 81.1619 326.676C81.4091 326.543 81.6818 326.443 81.9801 326.378C82.2813 326.31 82.5838 326.256 82.8878 326.216C83.2855 326.165 83.608 326.126 83.8551 326.101C84.1051 326.072 84.2869 326.026 84.4006 325.96C84.517 325.895 84.5753 325.781 84.5753 325.619V325.585C84.5753 325.165 84.4602 324.838 84.2301 324.605C84.0028 324.372 83.6577 324.256 83.1946 324.256C82.7145 324.256 82.3381 324.361 82.0653 324.571C81.7926 324.781 81.6009 325.006 81.4901 325.244L80.5355 324.903C80.706 324.506 80.9332 324.196 81.2173 323.974C81.5043 323.75 81.8168 323.594 82.1548 323.506C82.4957 323.415 82.831 323.369 83.1605 323.369C83.3707 323.369 83.6122 323.395 83.8849 323.446C84.1605 323.494 84.4261 323.595 84.6818 323.749C84.9403 323.902 85.1548 324.134 85.3253 324.443C85.4957 324.753 85.581 325.168 85.581 325.688V330H84.5753V329.114H84.5241C84.456 329.256 84.3423 329.408 84.1832 329.57C84.0241 329.732 83.8125 329.869 83.5483 329.983C83.2841 330.097 82.9616 330.153 82.581 330.153ZM82.7344 329.25C83.1321 329.25 83.4673 329.172 83.7401 329.016C84.0156 328.859 84.223 328.658 84.3622 328.411C84.5043 328.163 84.5753 327.903 84.5753 327.631V326.71C84.5327 326.761 84.4389 326.808 84.294 326.851C84.152 326.891 83.9872 326.926 83.7997 326.957C83.6151 326.986 83.4347 327.011 83.2585 327.034C83.0852 327.054 82.9446 327.071 82.8366 327.085C82.5753 327.119 82.331 327.175 82.1037 327.251C81.8793 327.325 81.6974 327.437 81.5582 327.588C81.4219 327.736 81.3537 327.937 81.3537 328.193C81.3537 328.543 81.483 328.807 81.7415 328.986C82.0028 329.162 82.3338 329.25 82.7344 329.25ZM92.5344 323.455L90.114 330H89.0913L86.6708 323.455H87.7617L89.5685 328.67H89.6367L91.4435 323.455H92.5344ZM96.3718 330.136C95.7411 330.136 95.1971 329.997 94.7397 329.719C94.2852 329.438 93.9343 329.045 93.6871 328.543C93.4428 328.037 93.3207 327.449 93.3207 326.778C93.3207 326.108 93.4428 325.517 93.6871 325.006C93.9343 324.491 94.2781 324.091 94.7184 323.804C95.1616 323.514 95.6786 323.369 96.2695 323.369C96.6104 323.369 96.9471 323.426 97.2795 323.54C97.6119 323.653 97.9144 323.838 98.1871 324.094C98.4599 324.347 98.6772 324.682 98.8391 325.099C99.0011 325.517 99.082 326.031 99.082 326.642V327.068H94.0366V326.199H98.0593C98.0593 325.83 97.9854 325.5 97.8377 325.21C97.6928 324.92 97.4854 324.692 97.2156 324.524C96.9485 324.357 96.6332 324.273 96.2695 324.273C95.869 324.273 95.5224 324.372 95.2298 324.571C94.94 324.767 94.717 325.023 94.5607 325.338C94.4045 325.653 94.3263 325.991 94.3263 326.352V326.932C94.3263 327.426 94.4116 327.845 94.582 328.189C94.7553 328.53 94.9954 328.79 95.3022 328.969C95.609 329.145 95.9656 329.233 96.3718 329.233C96.636 329.233 96.8746 329.196 97.0877 329.122C97.3036 329.045 97.4897 328.932 97.646 328.781C97.8022 328.628 97.9229 328.437 98.0082 328.21L98.9798 328.483C98.8775 328.812 98.7056 329.102 98.4641 329.352C98.2227 329.599 97.9244 329.793 97.5692 329.932C97.2141 330.068 96.815 330.136 96.3718 330.136ZM105.913 330.153C105.498 330.153 105.122 330.075 104.784 329.919C104.446 329.76 104.177 329.531 103.978 329.233C103.779 328.932 103.68 328.568 103.68 328.142C103.68 327.767 103.754 327.463 103.902 327.23C104.049 326.994 104.247 326.81 104.494 326.676C104.741 326.543 105.014 326.443 105.312 326.378C105.613 326.31 105.916 326.256 106.22 326.216C106.618 326.165 106.94 326.126 107.187 326.101C107.437 326.072 107.619 326.026 107.733 325.96C107.849 325.895 107.907 325.781 107.907 325.619V325.585C107.907 325.165 107.792 324.838 107.562 324.605C107.335 324.372 106.99 324.256 106.527 324.256C106.047 324.256 105.67 324.361 105.397 324.571C105.125 324.781 104.933 325.006 104.822 325.244L103.868 324.903C104.038 324.506 104.265 324.196 104.549 323.974C104.836 323.75 105.149 323.594 105.487 323.506C105.828 323.415 106.163 323.369 106.493 323.369C106.703 323.369 106.944 323.395 107.217 323.446C107.493 323.494 107.758 323.595 108.014 323.749C108.272 323.902 108.487 324.134 108.657 324.443C108.828 324.753 108.913 325.168 108.913 325.688V330H107.907V329.114H107.856C107.788 329.256 107.674 329.408 107.515 329.57C107.356 329.732 107.145 329.869 106.88 329.983C106.616 330.097 106.294 330.153 105.913 330.153ZM106.066 329.25C106.464 329.25 106.799 329.172 107.072 329.016C107.348 328.859 107.555 328.658 107.694 328.411C107.836 328.163 107.907 327.903 107.907 327.631V326.71C107.865 326.761 107.771 326.808 107.626 326.851C107.484 326.891 107.319 326.926 107.132 326.957C106.947 326.986 106.767 327.011 106.591 327.034C106.417 327.054 106.277 327.071 106.169 327.085C105.907 327.119 105.663 327.175 105.436 327.251C105.211 327.325 105.029 327.437 104.89 327.588C104.754 327.736 104.686 327.937 104.686 328.193C104.686 328.543 104.815 328.807 105.074 328.986C105.335 329.162 105.666 329.25 106.066 329.25ZM116.97 323.455V324.307H113.578V323.455H116.97ZM114.567 321.886H115.572V328.125C115.572 328.409 115.614 328.622 115.696 328.764C115.781 328.903 115.889 328.997 116.02 329.045C116.153 329.091 116.294 329.114 116.442 329.114C116.553 329.114 116.643 329.108 116.714 329.097C116.786 329.082 116.842 329.071 116.885 329.062L117.089 329.966C117.021 329.991 116.926 330.017 116.804 330.043C116.682 330.071 116.527 330.085 116.339 330.085C116.055 330.085 115.777 330.024 115.504 329.902C115.234 329.78 115.01 329.594 114.831 329.344C114.655 329.094 114.567 328.778 114.567 328.398V321.886ZM118.483 330V323.455H119.489V330H118.483ZM118.994 322.364C118.798 322.364 118.629 322.297 118.487 322.163C118.348 322.03 118.278 321.869 118.278 321.682C118.278 321.494 118.348 321.334 118.487 321.2C118.629 321.067 118.798 321 118.994 321C119.19 321 119.358 321.067 119.497 321.2C119.639 321.334 119.71 321.494 119.71 321.682C119.71 321.869 119.639 322.03 119.497 322.163C119.358 322.297 119.19 322.364 118.994 322.364ZM121.331 332.455V323.455H122.302V324.494H122.422C122.495 324.381 122.598 324.236 122.728 324.06C122.862 323.881 123.052 323.722 123.299 323.582C123.549 323.44 123.887 323.369 124.314 323.369C124.865 323.369 125.35 323.507 125.771 323.783C126.191 324.058 126.52 324.449 126.755 324.955C126.991 325.46 127.109 326.057 127.109 326.744C127.109 327.438 126.991 328.038 126.755 328.547C126.52 329.053 126.193 329.445 125.775 329.723C125.358 329.999 124.876 330.136 124.331 330.136C123.91 330.136 123.574 330.067 123.321 329.928C123.068 329.786 122.873 329.625 122.737 329.446C122.6 329.264 122.495 329.114 122.422 328.994H122.336V332.455H121.331ZM122.319 326.727C122.319 327.222 122.392 327.658 122.537 328.036C122.681 328.411 122.893 328.705 123.172 328.918C123.45 329.128 123.791 329.233 124.194 329.233C124.615 329.233 124.966 329.122 125.247 328.901C125.531 328.676 125.744 328.375 125.886 327.997C126.031 327.616 126.103 327.193 126.103 326.727C126.103 326.267 126.032 325.852 125.89 325.483C125.751 325.111 125.539 324.817 125.255 324.601C124.974 324.382 124.62 324.273 124.194 324.273C123.785 324.273 123.441 324.376 123.163 324.584C122.885 324.788 122.674 325.075 122.532 325.445C122.39 325.811 122.319 326.239 122.319 326.727Z" fill="#11111A" fill-opacity="0.48"/>
<rect x="184" y="314" width="47" height="24" rx="4" fill="#F5F5F7"/>
<path d="M195.477 331.091V320.182H196.176V331.091H195.477ZM197.83 323.455C197.778 323.023 197.571 322.688 197.207 322.449C196.844 322.21 196.398 322.091 195.869 322.091C195.483 322.091 195.145 322.153 194.855 322.278C194.568 322.403 194.344 322.575 194.182 322.794C194.023 323.013 193.943 323.261 193.943 323.54C193.943 323.773 193.999 323.973 194.109 324.141C194.223 324.305 194.368 324.443 194.544 324.554C194.72 324.662 194.905 324.751 195.098 324.822C195.291 324.891 195.469 324.946 195.631 324.989L196.517 325.227C196.744 325.287 196.997 325.369 197.276 325.474C197.557 325.58 197.825 325.723 198.081 325.905C198.339 326.084 198.553 326.314 198.72 326.595C198.888 326.876 198.972 327.222 198.972 327.631C198.972 328.102 198.848 328.528 198.601 328.909C198.357 329.29 197.999 329.592 197.527 329.817C197.058 330.041 196.489 330.153 195.818 330.153C195.193 330.153 194.652 330.053 194.195 329.851C193.74 329.649 193.382 329.368 193.121 329.007C192.862 328.646 192.716 328.227 192.682 327.75H193.773C193.801 328.08 193.912 328.352 194.105 328.568C194.301 328.781 194.548 328.94 194.847 329.045C195.148 329.148 195.472 329.199 195.818 329.199C196.222 329.199 196.584 329.134 196.905 329.003C197.226 328.869 197.48 328.685 197.668 328.449C197.855 328.21 197.949 327.932 197.949 327.614C197.949 327.324 197.868 327.088 197.706 326.906C197.544 326.724 197.331 326.577 197.067 326.463C196.803 326.349 196.517 326.25 196.21 326.165L195.136 325.858C194.455 325.662 193.915 325.382 193.517 325.018C193.119 324.655 192.92 324.179 192.92 323.591C192.92 323.102 193.053 322.676 193.317 322.312C193.584 321.946 193.942 321.662 194.391 321.46C194.842 321.256 195.347 321.153 195.903 321.153C196.466 321.153 196.966 321.254 197.403 321.456C197.841 321.655 198.188 321.928 198.443 322.274C198.702 322.621 198.838 323.014 198.852 323.455H197.83ZM203.624 321.273V330H202.567V322.381H202.516L200.385 323.795V322.722L202.567 321.273H203.624ZM206.368 330.068C206.158 330.068 205.978 329.993 205.827 329.842C205.676 329.692 205.601 329.511 205.601 329.301C205.601 329.091 205.676 328.911 205.827 328.76C205.978 328.609 206.158 328.534 206.368 328.534C206.578 328.534 206.759 328.609 206.909 328.76C207.06 328.911 207.135 329.091 207.135 329.301C207.135 329.44 207.1 329.568 207.029 329.685C206.961 329.801 206.868 329.895 206.752 329.966C206.638 330.034 206.51 330.068 206.368 330.068ZM211.465 330.119C210.823 330.119 210.276 329.945 209.824 329.595C209.373 329.243 209.027 328.733 208.789 328.065C208.55 327.395 208.431 326.585 208.431 325.636C208.431 324.693 208.55 323.888 208.789 323.22C209.03 322.55 209.377 322.038 209.828 321.686C210.283 321.331 210.828 321.153 211.465 321.153C212.101 321.153 212.645 321.331 213.097 321.686C213.551 322.038 213.898 322.55 214.137 323.22C214.378 323.888 214.499 324.693 214.499 325.636C214.499 326.585 214.38 327.395 214.141 328.065C213.902 328.733 213.557 329.243 213.105 329.595C212.654 329.945 212.107 330.119 211.465 330.119ZM211.465 329.182C212.101 329.182 212.596 328.875 212.948 328.261C213.3 327.648 213.476 326.773 213.476 325.636C213.476 324.881 213.395 324.237 213.233 323.706C213.074 323.175 212.844 322.77 212.543 322.491C212.245 322.213 211.885 322.074 211.465 322.074C210.834 322.074 210.341 322.385 209.986 323.007C209.631 323.626 209.453 324.503 209.453 325.636C209.453 326.392 209.533 327.034 209.692 327.562C209.851 328.091 210.08 328.493 210.378 328.768C210.679 329.044 211.042 329.182 211.465 329.182ZM218.965 330.119C218.323 330.119 217.776 329.945 217.324 329.595C216.873 329.243 216.527 328.733 216.289 328.065C216.05 327.395 215.931 326.585 215.931 325.636C215.931 324.693 216.05 323.888 216.289 323.22C216.53 322.55 216.877 322.038 217.328 321.686C217.783 321.331 218.328 321.153 218.965 321.153C219.601 321.153 220.145 321.331 220.597 321.686C221.051 322.038 221.398 322.55 221.637 323.22C221.878 323.888 221.999 324.693 221.999 325.636C221.999 326.585 221.88 327.395 221.641 328.065C221.402 328.733 221.057 329.243 220.605 329.595C220.154 329.945 219.607 330.119 218.965 330.119ZM218.965 329.182C219.601 329.182 220.096 328.875 220.448 328.261C220.8 327.648 220.976 326.773 220.976 325.636C220.976 324.881 220.895 324.237 220.733 323.706C220.574 323.175 220.344 322.77 220.043 322.491C219.745 322.213 219.385 322.074 218.965 322.074C218.334 322.074 217.841 322.385 217.486 323.007C217.131 323.626 216.953 324.503 216.953 325.636C216.953 326.392 217.033 327.034 217.192 327.562C217.351 328.091 217.58 328.493 217.878 328.768C218.179 329.044 218.542 329.182 218.965 329.182Z" fill="#11111A"/>
<rect x="235" y="314" width="49" height="24" rx="4" fill="#F5F5F7"/>
<path d="M246.477 331.091V320.182H247.176V331.091H246.477ZM248.83 323.455C248.778 323.023 248.571 322.688 248.207 322.449C247.844 322.21 247.398 322.091 246.869 322.091C246.483 322.091 246.145 322.153 245.855 322.278C245.568 322.403 245.344 322.575 245.182 322.794C245.023 323.013 244.943 323.261 244.943 323.54C244.943 323.773 244.999 323.973 245.109 324.141C245.223 324.305 245.368 324.443 245.544 324.554C245.72 324.662 245.905 324.751 246.098 324.822C246.291 324.891 246.469 324.946 246.631 324.989L247.517 325.227C247.744 325.287 247.997 325.369 248.276 325.474C248.557 325.58 248.825 325.723 249.081 325.905C249.339 326.084 249.553 326.314 249.72 326.595C249.888 326.876 249.972 327.222 249.972 327.631C249.972 328.102 249.848 328.528 249.601 328.909C249.357 329.29 248.999 329.592 248.527 329.817C248.058 330.041 247.489 330.153 246.818 330.153C246.193 330.153 245.652 330.053 245.195 329.851C244.74 329.649 244.382 329.368 244.121 329.007C243.862 328.646 243.716 328.227 243.682 327.75H244.773C244.801 328.08 244.912 328.352 245.105 328.568C245.301 328.781 245.548 328.94 245.847 329.045C246.148 329.148 246.472 329.199 246.818 329.199C247.222 329.199 247.584 329.134 247.905 329.003C248.226 328.869 248.48 328.685 248.668 328.449C248.855 328.21 248.949 327.932 248.949 327.614C248.949 327.324 248.868 327.088 248.706 326.906C248.544 326.724 248.331 326.577 248.067 326.463C247.803 326.349 247.517 326.25 247.21 326.165L246.136 325.858C245.455 325.662 244.915 325.382 244.517 325.018C244.119 324.655 243.92 324.179 243.92 323.591C243.92 323.102 244.053 322.676 244.317 322.312C244.584 321.946 244.942 321.662 245.391 321.46C245.842 321.256 246.347 321.153 246.903 321.153C247.466 321.153 247.966 321.254 248.403 321.456C248.841 321.655 249.188 321.928 249.443 322.274C249.702 322.621 249.838 323.014 249.852 323.455H248.83ZM251.556 330V329.233L254.436 326.08C254.775 325.71 255.053 325.389 255.272 325.116C255.49 324.841 255.652 324.582 255.757 324.341C255.865 324.097 255.919 323.841 255.919 323.574C255.919 323.267 255.846 323.001 255.698 322.777C255.553 322.553 255.354 322.379 255.101 322.257C254.848 322.135 254.564 322.074 254.249 322.074C253.914 322.074 253.621 322.143 253.371 322.283C253.124 322.419 252.932 322.611 252.796 322.858C252.662 323.105 252.596 323.395 252.596 323.727H251.59C251.59 323.216 251.708 322.767 251.944 322.381C252.179 321.994 252.5 321.693 252.907 321.477C253.316 321.261 253.775 321.153 254.283 321.153C254.794 321.153 255.248 321.261 255.642 321.477C256.037 321.693 256.347 321.984 256.571 322.351C256.796 322.717 256.908 323.125 256.908 323.574C256.908 323.895 256.85 324.209 256.733 324.516C256.62 324.82 256.421 325.159 256.137 325.534C255.855 325.906 255.465 326.361 254.965 326.898L253.005 328.994V329.062H257.061V330H251.556ZM259.571 330.068C259.361 330.068 259.181 329.993 259.03 329.842C258.88 329.692 258.804 329.511 258.804 329.301C258.804 329.091 258.88 328.911 259.03 328.76C259.181 328.609 259.361 328.534 259.571 328.534C259.782 328.534 259.962 328.609 260.113 328.76C260.263 328.911 260.338 329.091 260.338 329.301C260.338 329.44 260.303 329.568 260.232 329.685C260.164 329.801 260.071 329.895 259.955 329.966C259.841 330.034 259.713 330.068 259.571 330.068ZM264.668 330.119C264.026 330.119 263.479 329.945 263.027 329.595C262.576 329.243 262.23 328.733 261.992 328.065C261.753 327.395 261.634 326.585 261.634 325.636C261.634 324.693 261.753 323.888 261.992 323.22C262.233 322.55 262.58 322.038 263.032 321.686C263.486 321.331 264.032 321.153 264.668 321.153C265.304 321.153 265.848 321.331 266.3 321.686C266.755 322.038 267.101 322.55 267.34 323.22C267.581 323.888 267.702 324.693 267.702 325.636C267.702 326.585 267.583 327.395 267.344 328.065C267.105 328.733 266.76 329.243 266.309 329.595C265.857 329.945 265.31 330.119 264.668 330.119ZM264.668 329.182C265.304 329.182 265.799 328.875 266.151 328.261C266.503 327.648 266.679 326.773 266.679 325.636C266.679 324.881 266.598 324.237 266.436 323.706C266.277 323.175 266.047 322.77 265.746 322.491C265.448 322.213 265.088 322.074 264.668 322.074C264.037 322.074 263.544 322.385 263.189 323.007C262.834 323.626 262.657 324.503 262.657 325.636C262.657 326.392 262.736 327.034 262.895 327.562C263.054 328.091 263.283 328.493 263.581 328.768C263.882 329.044 264.245 329.182 264.668 329.182ZM272.168 330.119C271.526 330.119 270.979 329.945 270.527 329.595C270.076 329.243 269.73 328.733 269.492 328.065C269.253 327.395 269.134 326.585 269.134 325.636C269.134 324.693 269.253 323.888 269.492 323.22C269.733 322.55 270.08 322.038 270.532 321.686C270.986 321.331 271.532 321.153 272.168 321.153C272.804 321.153 273.348 321.331 273.8 321.686C274.255 322.038 274.601 322.55 274.84 323.22C275.081 323.888 275.202 324.693 275.202 325.636C275.202 326.585 275.083 327.395 274.844 328.065C274.605 328.733 274.26 329.243 273.809 329.595C273.357 329.945 272.81 330.119 272.168 330.119ZM272.168 329.182C272.804 329.182 273.299 328.875 273.651 328.261C274.003 327.648 274.179 326.773 274.179 325.636C274.179 324.881 274.098 324.237 273.936 323.706C273.777 323.175 273.547 322.77 273.246 322.491C272.948 322.213 272.588 322.074 272.168 322.074C271.537 322.074 271.044 322.385 270.689 323.007C270.334 323.626 270.157 324.503 270.157 325.636C270.157 326.392 270.236 327.034 270.395 327.562C270.554 328.091 270.783 328.493 271.081 328.768C271.382 329.044 271.745 329.182 272.168 329.182Z" fill="#11111A"/>
<rect x="288" y="314" width="50" height="24" rx="4" fill="#F5F5F7"/>
<path d="M299.477 331.091V320.182H300.176V331.091H299.477ZM301.83 323.455C301.778 323.023 301.571 322.688 301.207 322.449C300.844 322.21 300.398 322.091 299.869 322.091C299.483 322.091 299.145 322.153 298.855 322.278C298.568 322.403 298.344 322.575 298.182 322.794C298.023 323.013 297.943 323.261 297.943 323.54C297.943 323.773 297.999 323.973 298.109 324.141C298.223 324.305 298.368 324.443 298.544 324.554C298.72 324.662 298.905 324.751 299.098 324.822C299.291 324.891 299.469 324.946 299.631 324.989L300.517 325.227C300.744 325.287 300.997 325.369 301.276 325.474C301.557 325.58 301.825 325.723 302.081 325.905C302.339 326.084 302.553 326.314 302.72 326.595C302.888 326.876 302.972 327.222 302.972 327.631C302.972 328.102 302.848 328.528 302.601 328.909C302.357 329.29 301.999 329.592 301.527 329.817C301.058 330.041 300.489 330.153 299.818 330.153C299.193 330.153 298.652 330.053 298.195 329.851C297.74 329.649 297.382 329.368 297.121 329.007C296.862 328.646 296.716 328.227 296.682 327.75H297.773C297.801 328.08 297.912 328.352 298.105 328.568C298.301 328.781 298.548 328.94 298.847 329.045C299.148 329.148 299.472 329.199 299.818 329.199C300.222 329.199 300.584 329.134 300.905 329.003C301.226 328.869 301.48 328.685 301.668 328.449C301.855 328.21 301.949 327.932 301.949 327.614C301.949 327.324 301.868 327.088 301.706 326.906C301.544 326.724 301.331 326.577 301.067 326.463C300.803 326.349 300.517 326.25 300.21 326.165L299.136 325.858C298.455 325.662 297.915 325.382 297.517 325.018C297.119 324.655 296.92 324.179 296.92 323.591C296.92 323.102 297.053 322.676 297.317 322.312C297.584 321.946 297.942 321.662 298.391 321.46C298.842 321.256 299.347 321.153 299.903 321.153C300.466 321.153 300.966 321.254 301.403 321.456C301.841 321.655 302.188 321.928 302.443 322.274C302.702 322.621 302.838 323.014 302.852 323.455H301.83ZM307.505 330.119C306.942 330.119 306.441 330.023 306 329.83C305.563 329.636 305.215 329.368 304.956 329.024C304.701 328.678 304.561 328.276 304.539 327.818H305.613C305.635 328.099 305.732 328.342 305.902 328.547C306.073 328.749 306.296 328.905 306.571 329.016C306.847 329.126 307.152 329.182 307.488 329.182C307.863 329.182 308.195 329.116 308.485 328.986C308.775 328.855 309.002 328.673 309.167 328.44C309.331 328.207 309.414 327.938 309.414 327.631C309.414 327.31 309.334 327.027 309.175 326.783C309.016 326.536 308.783 326.342 308.476 326.203C308.169 326.064 307.794 325.994 307.351 325.994H306.652V325.057H307.351C307.698 325.057 308.002 324.994 308.263 324.869C308.527 324.744 308.733 324.568 308.881 324.341C309.032 324.114 309.107 323.847 309.107 323.54C309.107 323.244 309.042 322.987 308.911 322.768C308.78 322.55 308.596 322.379 308.357 322.257C308.121 322.135 307.843 322.074 307.522 322.074C307.221 322.074 306.936 322.129 306.669 322.24C306.405 322.348 306.189 322.506 306.022 322.713C305.854 322.918 305.763 323.165 305.749 323.455H304.726C304.743 322.997 304.881 322.597 305.14 322.253C305.398 321.906 305.736 321.636 306.154 321.443C306.574 321.25 307.036 321.153 307.539 321.153C308.078 321.153 308.542 321.263 308.928 321.482C309.314 321.697 309.611 321.983 309.819 322.338C310.026 322.693 310.13 323.077 310.13 323.489C310.13 323.98 310 324.399 309.742 324.746C309.486 325.092 309.138 325.332 308.698 325.466V325.534C309.249 325.625 309.679 325.859 309.989 326.237C310.299 326.612 310.453 327.077 310.453 327.631C310.453 328.105 310.324 328.531 310.066 328.909C309.81 329.284 309.461 329.58 309.017 329.795C308.574 330.011 308.07 330.119 307.505 330.119ZM312.677 330.068C312.467 330.068 312.286 329.993 312.136 329.842C311.985 329.692 311.91 329.511 311.91 329.301C311.91 329.091 311.985 328.911 312.136 328.76C312.286 328.609 312.467 328.534 312.677 328.534C312.887 328.534 313.067 328.609 313.218 328.76C313.369 328.911 313.444 329.091 313.444 329.301C313.444 329.44 313.408 329.568 313.337 329.685C313.269 329.801 313.177 329.895 313.06 329.966C312.947 330.034 312.819 330.068 312.677 330.068ZM317.773 330.119C317.131 330.119 316.585 329.945 316.133 329.595C315.681 329.243 315.336 328.733 315.097 328.065C314.859 327.395 314.739 326.585 314.739 325.636C314.739 324.693 314.859 323.888 315.097 323.22C315.339 322.55 315.685 322.038 316.137 321.686C316.592 321.331 317.137 321.153 317.773 321.153C318.41 321.153 318.954 321.331 319.406 321.686C319.86 322.038 320.207 322.55 320.445 323.22C320.687 323.888 320.808 324.693 320.808 325.636C320.808 326.585 320.688 327.395 320.45 328.065C320.211 328.733 319.866 329.243 319.414 329.595C318.962 329.945 318.415 330.119 317.773 330.119ZM317.773 329.182C318.41 329.182 318.904 328.875 319.256 328.261C319.609 327.648 319.785 326.773 319.785 325.636C319.785 324.881 319.704 324.237 319.542 323.706C319.383 323.175 319.153 322.77 318.852 322.491C318.553 322.213 318.194 322.074 317.773 322.074C317.143 322.074 316.65 322.385 316.295 323.007C315.94 323.626 315.762 324.503 315.762 325.636C315.762 326.392 315.842 327.034 316.001 327.562C316.16 328.091 316.388 328.493 316.687 328.768C316.988 329.044 317.35 329.182 317.773 329.182ZM325.273 330.119C324.631 330.119 324.085 329.945 323.633 329.595C323.181 329.243 322.836 328.733 322.597 328.065C322.359 327.395 322.239 326.585 322.239 325.636C322.239 324.693 322.359 323.888 322.597 323.22C322.839 322.55 323.185 322.038 323.637 321.686C324.092 321.331 324.637 321.153 325.273 321.153C325.91 321.153 326.454 321.331 326.906 321.686C327.36 322.038 327.707 322.55 327.945 323.22C328.187 323.888 328.308 324.693 328.308 325.636C328.308 326.585 328.188 327.395 327.95 328.065C327.711 328.733 327.366 329.243 326.914 329.595C326.462 329.945 325.915 330.119 325.273 330.119ZM325.273 329.182C325.91 329.182 326.404 328.875 326.756 328.261C327.109 327.648 327.285 326.773 327.285 325.636C327.285 324.881 327.204 324.237 327.042 323.706C326.883 323.175 326.653 322.77 326.352 322.491C326.053 322.213 325.694 322.074 325.273 322.074C324.643 322.074 324.15 322.385 323.795 323.007C323.44 323.626 323.262 324.503 323.262 325.636C323.262 326.392 323.342 327.034 323.501 327.562C323.66 328.091 323.888 328.493 324.187 328.768C324.488 329.044 324.85 329.182 325.273 329.182Z" fill="#11111A"/>
<rect x="66" y="354" width="272" height="40" rx="20" fill="#11111A"/>
<path d="M148.207 372.111H146.878C146.827 371.827 146.732 371.577 146.592 371.361C146.453 371.145 146.283 370.962 146.081 370.811C145.879 370.661 145.653 370.547 145.403 370.47C145.156 370.393 144.893 370.355 144.615 370.355C144.112 370.355 143.662 370.482 143.264 370.734C142.869 370.987 142.557 371.358 142.327 371.847C142.099 372.335 141.986 372.932 141.986 373.636C141.986 374.347 142.099 374.946 142.327 375.435C142.557 375.923 142.871 376.293 143.268 376.543C143.666 376.793 144.114 376.918 144.611 376.918C144.886 376.918 145.148 376.881 145.395 376.807C145.645 376.73 145.871 376.618 146.072 376.47C146.274 376.322 146.445 376.142 146.584 375.929C146.726 375.713 146.824 375.466 146.878 375.188L148.207 375.192C148.136 375.621 147.999 376.016 147.794 376.376C147.592 376.734 147.332 377.044 147.014 377.305C146.699 377.564 146.338 377.764 145.932 377.906C145.526 378.048 145.082 378.119 144.602 378.119C143.847 378.119 143.173 377.94 142.582 377.582C141.991 377.222 141.526 376.706 141.185 376.036C140.847 375.365 140.678 374.565 140.678 373.636C140.678 372.705 140.848 371.905 141.189 371.237C141.53 370.567 141.996 370.053 142.587 369.695C143.178 369.334 143.849 369.153 144.602 369.153C145.065 369.153 145.497 369.22 145.898 369.354C146.301 369.484 146.663 369.678 146.984 369.933C147.305 370.186 147.571 370.496 147.781 370.862C147.991 371.226 148.134 371.642 148.207 372.111ZM152.438 378.132C151.824 378.132 151.289 377.991 150.831 377.71C150.374 377.429 150.019 377.036 149.766 376.53C149.513 376.024 149.387 375.433 149.387 374.757C149.387 374.078 149.513 373.484 149.766 372.976C150.019 372.467 150.374 372.072 150.831 371.791C151.289 371.51 151.824 371.369 152.438 371.369C153.051 371.369 153.587 371.51 154.044 371.791C154.502 372.072 154.857 372.467 155.11 372.976C155.363 373.484 155.489 374.078 155.489 374.757C155.489 375.433 155.363 376.024 155.11 376.53C154.857 377.036 154.502 377.429 154.044 377.71C153.587 377.991 153.051 378.132 152.438 378.132ZM152.442 377.062C152.84 377.062 153.169 376.957 153.431 376.747C153.692 376.537 153.885 376.257 154.01 375.908C154.138 375.558 154.202 375.173 154.202 374.753C154.202 374.335 154.138 373.952 154.01 373.602C153.885 373.25 153.692 372.967 153.431 372.754C153.169 372.541 152.84 372.435 152.442 372.435C152.042 372.435 151.709 372.541 151.445 372.754C151.184 372.967 150.989 373.25 150.861 373.602C150.736 373.952 150.674 374.335 150.674 374.753C150.674 375.173 150.736 375.558 150.861 375.908C150.989 376.257 151.184 376.537 151.445 376.747C151.709 376.957 152.042 377.062 152.442 377.062ZM158.185 374.114V378H156.911V371.455H158.134V372.52H158.215C158.366 372.173 158.602 371.895 158.923 371.685C159.246 371.474 159.654 371.369 160.146 371.369C160.592 371.369 160.982 371.463 161.317 371.651C161.653 371.835 161.913 372.111 162.097 372.477C162.282 372.844 162.374 373.297 162.374 373.837V378H161.1V373.99C161.1 373.516 160.977 373.145 160.729 372.878C160.482 372.608 160.143 372.473 159.711 372.473C159.415 372.473 159.153 372.537 158.923 372.665C158.695 372.793 158.515 372.98 158.381 373.227C158.251 373.472 158.185 373.767 158.185 374.114ZM167.138 371.455V372.477H163.563V371.455H167.138ZM164.522 369.886H165.796V376.078C165.796 376.325 165.833 376.511 165.907 376.636C165.981 376.759 166.076 376.842 166.192 376.888C166.312 376.93 166.441 376.952 166.58 376.952C166.683 376.952 166.772 376.945 166.849 376.93C166.925 376.916 166.985 376.905 167.028 376.896L167.258 377.949C167.184 377.977 167.079 378.006 166.942 378.034C166.806 378.065 166.636 378.082 166.431 378.085C166.096 378.091 165.783 378.031 165.494 377.906C165.204 377.781 164.969 377.588 164.79 377.327C164.612 377.065 164.522 376.737 164.522 376.342V369.886ZM168.548 378V371.455H169.822V378H168.548ZM169.191 370.445C168.97 370.445 168.779 370.371 168.62 370.223C168.464 370.072 168.386 369.893 168.386 369.686C168.386 369.476 168.464 369.297 168.62 369.149C168.779 368.999 168.97 368.923 169.191 368.923C169.413 368.923 169.602 368.999 169.758 369.149C169.917 369.297 169.997 369.476 169.997 369.686C169.997 369.893 169.917 370.072 169.758 370.223C169.602 370.371 169.413 370.445 169.191 370.445ZM172.81 374.114V378H171.536V371.455H172.759V372.52H172.84C172.991 372.173 173.227 371.895 173.548 371.685C173.871 371.474 174.279 371.369 174.771 371.369C175.217 371.369 175.607 371.463 175.942 371.651C176.278 371.835 176.538 372.111 176.722 372.477C176.907 372.844 176.999 373.297 176.999 373.837V378H175.725V373.99C175.725 373.516 175.602 373.145 175.354 372.878C175.107 372.608 174.768 372.473 174.336 372.473C174.04 372.473 173.778 372.537 173.548 372.665C173.32 372.793 173.14 372.98 173.006 373.227C172.876 373.472 172.81 373.767 172.81 374.114ZM182.854 375.286V371.455H184.133V378H182.88V376.866H182.812C182.661 377.216 182.42 377.507 182.087 377.74C181.758 377.97 181.347 378.085 180.856 378.085C180.435 378.085 180.063 377.993 179.739 377.808C179.418 377.621 179.165 377.344 178.981 376.977C178.799 376.611 178.708 376.158 178.708 375.618V371.455H179.982V375.464C179.982 375.911 180.106 376.266 180.353 376.53C180.6 376.794 180.921 376.926 181.316 376.926C181.555 376.926 181.792 376.866 182.028 376.747C182.266 376.628 182.464 376.447 182.62 376.206C182.779 375.964 182.857 375.658 182.854 375.286ZM188.666 378.132C188.021 378.132 187.466 377.994 187 377.719C186.537 377.44 186.179 377.05 185.926 376.547C185.676 376.041 185.551 375.449 185.551 374.77C185.551 374.099 185.676 373.509 185.926 372.997C186.179 372.486 186.531 372.087 186.983 371.8C187.437 371.513 187.968 371.369 188.576 371.369C188.946 371.369 189.304 371.43 189.65 371.553C189.997 371.675 190.308 371.866 190.583 372.128C190.859 372.389 191.076 372.729 191.235 373.146C191.395 373.561 191.474 374.065 191.474 374.659V375.111H186.271V374.156H190.225C190.225 373.821 190.157 373.524 190.021 373.266C189.885 373.004 189.693 372.798 189.446 372.648C189.201 372.497 188.914 372.422 188.585 372.422C188.227 372.422 187.914 372.51 187.647 372.686C187.383 372.859 187.179 373.087 187.034 373.368C186.892 373.646 186.821 373.949 186.821 374.276V375.021C186.821 375.459 186.897 375.831 187.051 376.138C187.207 376.445 187.424 376.679 187.703 376.841C187.981 377 188.306 377.08 188.679 377.08C188.92 377.08 189.14 377.045 189.339 376.977C189.538 376.906 189.71 376.801 189.855 376.662C190 376.523 190.11 376.351 190.187 376.146L191.393 376.364C191.297 376.719 191.123 377.03 190.873 377.297C190.626 377.561 190.315 377.767 189.94 377.915C189.568 378.06 189.143 378.132 188.666 378.132ZM199.119 371.455V372.477H195.544V371.455H199.119ZM196.502 369.886H197.777V376.078C197.777 376.325 197.814 376.511 197.887 376.636C197.961 376.759 198.056 376.842 198.173 376.888C198.292 376.93 198.422 376.952 198.561 376.952C198.663 376.952 198.752 376.945 198.829 376.93C198.906 376.916 198.966 376.905 199.008 376.896L199.238 377.949C199.164 377.977 199.059 378.006 198.923 378.034C198.787 378.065 198.616 378.082 198.412 378.085C198.076 378.091 197.764 378.031 197.474 377.906C197.184 377.781 196.95 377.588 196.771 377.327C196.592 377.065 196.502 376.737 196.502 376.342V369.886ZM203.215 378.132C202.602 378.132 202.066 377.991 201.609 377.71C201.151 377.429 200.796 377.036 200.543 376.53C200.29 376.024 200.164 375.433 200.164 374.757C200.164 374.078 200.29 373.484 200.543 372.976C200.796 372.467 201.151 372.072 201.609 371.791C202.066 371.51 202.602 371.369 203.215 371.369C203.829 371.369 204.364 371.51 204.822 371.791C205.279 372.072 205.634 372.467 205.887 372.976C206.14 373.484 206.266 374.078 206.266 374.757C206.266 375.433 206.14 376.024 205.887 376.53C205.634 377.036 205.279 377.429 204.822 377.71C204.364 377.991 203.829 378.132 203.215 378.132ZM203.219 377.062C203.617 377.062 203.947 376.957 204.208 376.747C204.469 376.537 204.663 376.257 204.788 375.908C204.915 375.558 204.979 375.173 204.979 374.753C204.979 374.335 204.915 373.952 204.788 373.602C204.663 373.25 204.469 372.967 204.208 372.754C203.947 372.541 203.617 372.435 203.219 372.435C202.819 372.435 202.487 372.541 202.222 372.754C201.961 372.967 201.766 373.25 201.638 373.602C201.513 373.952 201.451 374.335 201.451 374.753C201.451 375.173 201.513 375.558 201.638 375.908C201.766 376.257 201.961 376.537 202.222 376.747C202.487 376.957 202.819 377.062 203.219 377.062ZM213.621 378.132C212.988 378.132 212.442 377.989 211.985 377.702C211.531 377.412 211.181 377.013 210.937 376.504C210.692 375.996 210.57 375.413 210.57 374.757C210.57 374.092 210.695 373.506 210.945 372.997C211.195 372.486 211.548 372.087 212.002 371.8C212.457 371.513 212.992 371.369 213.609 371.369C214.106 371.369 214.549 371.462 214.938 371.646C215.327 371.828 215.641 372.084 215.88 372.413C216.121 372.743 216.265 373.128 216.31 373.568H215.07C215.002 373.261 214.846 372.997 214.602 372.776C214.36 372.554 214.036 372.443 213.63 372.443C213.275 372.443 212.964 372.537 212.697 372.724C212.433 372.909 212.227 373.173 212.079 373.517C211.931 373.858 211.857 374.261 211.857 374.727C211.857 375.205 211.93 375.616 212.075 375.963C212.219 376.31 212.424 376.578 212.688 376.768C212.955 376.959 213.269 377.054 213.63 377.054C213.871 377.054 214.09 377.01 214.286 376.922C214.485 376.831 214.651 376.702 214.785 376.534C214.921 376.366 215.016 376.165 215.07 375.929H216.31C216.265 376.352 216.127 376.73 215.897 377.062C215.667 377.395 215.359 377.656 214.972 377.847C214.589 378.037 214.138 378.132 213.621 378.132ZM218.947 374.114V378H217.673V369.273H218.93V372.52H219.011C219.164 372.168 219.399 371.888 219.714 371.68C220.029 371.473 220.441 371.369 220.95 371.369C221.399 371.369 221.791 371.462 222.126 371.646C222.464 371.831 222.725 372.107 222.91 372.473C223.098 372.837 223.191 373.291 223.191 373.837V378H221.917V373.99C221.917 373.51 221.794 373.138 221.547 372.874C221.299 372.607 220.956 372.473 220.515 372.473C220.214 372.473 219.944 372.537 219.706 372.665C219.47 372.793 219.284 372.98 219.147 373.227C219.014 373.472 218.947 373.767 218.947 374.114ZM227.713 378.132C227.068 378.132 226.512 377.994 226.047 377.719C225.583 377.44 225.225 377.05 224.973 376.547C224.723 376.041 224.598 375.449 224.598 374.77C224.598 374.099 224.723 373.509 224.973 372.997C225.225 372.486 225.578 372.087 226.029 371.8C226.484 371.513 227.015 371.369 227.623 371.369C227.993 371.369 228.35 371.43 228.697 371.553C229.044 371.675 229.355 371.866 229.63 372.128C229.906 372.389 230.123 372.729 230.282 373.146C230.441 373.561 230.521 374.065 230.521 374.659V375.111H225.318V374.156H229.272C229.272 373.821 229.204 373.524 229.068 373.266C228.931 373.004 228.74 372.798 228.493 372.648C228.248 372.497 227.961 372.422 227.632 372.422C227.274 372.422 226.961 372.51 226.694 372.686C226.43 372.859 226.225 373.087 226.081 373.368C225.939 373.646 225.868 373.949 225.868 374.276V375.021C225.868 375.459 225.944 375.831 226.098 376.138C226.254 376.445 226.471 376.679 226.75 376.841C227.028 377 227.353 377.08 227.725 377.08C227.967 377.08 228.187 377.045 228.386 376.977C228.585 376.906 228.757 376.801 228.902 376.662C229.047 376.523 229.157 376.351 229.234 376.146L230.44 376.364C230.343 376.719 230.17 377.03 229.92 377.297C229.673 377.561 229.362 377.767 228.987 377.915C228.615 378.06 228.19 378.132 227.713 378.132ZM234.692 378.132C234.058 378.132 233.513 377.989 233.055 377.702C232.601 377.412 232.251 377.013 232.007 376.504C231.763 375.996 231.641 375.413 231.641 374.757C231.641 374.092 231.766 373.506 232.016 372.997C232.266 372.486 232.618 372.087 233.072 371.8C233.527 371.513 234.063 371.369 234.679 371.369C235.176 371.369 235.619 371.462 236.009 371.646C236.398 371.828 236.712 372.084 236.95 372.413C237.192 372.743 237.335 373.128 237.381 373.568H236.141C236.072 373.261 235.916 372.997 235.672 372.776C235.43 372.554 235.107 372.443 234.7 372.443C234.345 372.443 234.034 372.537 233.767 372.724C233.503 372.909 233.297 373.173 233.149 373.517C233.001 373.858 232.928 374.261 232.928 374.727C232.928 375.205 233 375.616 233.145 375.963C233.29 376.31 233.494 376.578 233.759 376.768C234.026 376.959 234.339 377.054 234.7 377.054C234.942 377.054 235.161 377.01 235.357 376.922C235.555 376.831 235.722 376.702 235.855 376.534C235.991 376.366 236.087 376.165 236.141 375.929H237.381C237.335 376.352 237.197 376.73 236.967 377.062C236.737 377.395 236.429 377.656 236.043 377.847C235.659 378.037 235.209 378.132 234.692 378.132ZM239.915 375.78L239.907 374.224H240.128L242.736 371.455H244.262L241.287 374.608H241.087L239.915 375.78ZM238.743 378V369.273H240.017V378H238.743ZM242.877 378L240.533 374.889L241.411 373.999L244.441 378H242.877ZM247.911 378.132C247.297 378.132 246.761 377.991 246.304 377.71C245.847 377.429 245.491 377.036 245.239 376.53C244.986 376.024 244.859 375.433 244.859 374.757C244.859 374.078 244.986 373.484 245.239 372.976C245.491 372.467 245.847 372.072 246.304 371.791C246.761 371.51 247.297 371.369 247.911 371.369C248.524 371.369 249.06 371.51 249.517 371.791C249.974 372.072 250.33 372.467 250.582 372.976C250.835 373.484 250.962 374.078 250.962 374.757C250.962 375.433 250.835 376.024 250.582 376.53C250.33 377.036 249.974 377.429 249.517 377.71C249.06 377.991 248.524 378.132 247.911 378.132ZM247.915 377.062C248.313 377.062 248.642 376.957 248.903 376.747C249.165 376.537 249.358 376.257 249.483 375.908C249.611 375.558 249.675 375.173 249.675 374.753C249.675 374.335 249.611 373.952 249.483 373.602C249.358 373.25 249.165 372.967 248.903 372.754C248.642 372.541 248.313 372.435 247.915 372.435C247.514 372.435 247.182 372.541 246.918 372.754C246.656 372.967 246.462 373.25 246.334 373.602C246.209 373.952 246.146 374.335 246.146 374.753C246.146 375.173 246.209 375.558 246.334 375.908C246.462 376.257 246.656 376.537 246.918 376.747C247.182 376.957 247.514 377.062 247.915 377.062ZM256.53 375.286V371.455H257.809V378H256.556V376.866H256.488C256.337 377.216 256.096 377.507 255.763 377.74C255.434 377.97 255.023 378.085 254.532 378.085C254.111 378.085 253.739 377.993 253.415 377.808C253.094 377.621 252.841 377.344 252.657 376.977C252.475 376.611 252.384 376.158 252.384 375.618V371.455H253.658V375.464C253.658 375.911 253.782 376.266 254.029 376.53C254.276 376.794 254.597 376.926 254.992 376.926C255.23 376.926 255.468 376.866 255.703 376.747C255.942 376.628 256.14 376.447 256.296 376.206C256.455 375.964 256.533 375.658 256.53 375.286ZM262.576 371.455V372.477H259.001V371.455H262.576ZM259.96 369.886H261.234V376.078C261.234 376.325 261.271 376.511 261.344 376.636C261.418 376.759 261.513 376.842 261.63 376.888C261.749 376.93 261.879 376.952 262.018 376.952C262.12 376.952 262.21 376.945 262.286 376.93C262.363 376.916 262.423 376.905 262.465 376.896L262.695 377.949C262.621 377.977 262.516 378.006 262.38 378.034C262.244 378.065 262.073 378.082 261.869 378.085C261.533 378.091 261.221 378.031 260.931 377.906C260.641 377.781 260.407 377.588 260.228 377.327C260.049 377.065 259.96 376.737 259.96 376.342V369.886Z" fill="white"/>
<rect x="43.5" y="239.5" width="317" height="177" rx="14.5" stroke="#388AEB" stroke-width="3"/>
</g>
<defs>
<filter id="filter0_d_88_1245" x="26" y="130" width="352" height="116" filterUnits="userSpaceOnUse" color-interpolation-filters="sRGB">
<feFlood flood-opacity="0" result="BackgroundImageFix"/>
<feColorMatrix in="SourceAlpha" type="matrix" values="0 0 0 0 0 0 0 0 0 0 0 0 0 0 0 0 0 0 127 0" result="hardAlpha"/>
<feOffset dy="12"/>
<feGaussianBlur stdDeviation="8"/>
<feComposite in2="hardAlpha" operator="out"/>
<feColorMatrix type="matrix" values="0 0 0 0 0.218698 0 0 0 0 0.54168 0 0 0 0 0.920833 0 0 0 0.04 0"/>
<feBlend mode="normal" in2="BackgroundImageFix" result="effect1_dropShadow_88_1245"/>
<feBlend mode="normal" in="SourceGraphic" in2="effect1_dropShadow_88_1245" result="shape"/>
</filter>
<filter id="filter1_d_88_1245" x="26" y="234" width="352" height="212" filterUnits="userSpaceOnUse" color-interpolation-filters="sRGB">
<feFlood flood-opacity="0" result="BackgroundImageFix"/>
<feColorMatrix in="SourceAlpha" type="matrix" values="0 0 0 0 0 0 0 0 0 0 0 0 0 0 0 0 0 0 127 0" result="hardAlpha"/>
<feOffset dy="12"/>
<feGaussianBlur stdDeviation="8"/>
<feComposite in2="hardAlpha" operator="out"/>
<feColorMatrix type="matrix" values="0 0 0 0 0.218698 0 0 0 0 0.54168 0 0 0 0 0.920833 0 0 0 0.04 0"/>
<feBlend mode="normal" in2="BackgroundImageFix" result="effect1_dropShadow_88_1245"/>
<feBlend mode="normal" in="SourceGraphic" in2="effect1_dropShadow_88_1245" result="shape"/>
</filter>
<clipPath id="clip0_88_1245">
<rect width="320" height="180" rx="16" fill="white"/>
</clipPath>
<clipPath id="clip1_88_1245">
<rect x="74" y="270" width="320" height="276" rx="16" fill="white"/>
</clipPath>
</defs>
</svg>
